<svg width="200" height="40" viewBox="0 0 200 40" fill="none" xmlns="http://www.w3.org/2000/svg">
<g filter="url(#filter0_i_46_2147)">
<path d="M28 2H8C3.58172 2 0 5.58172 0 10V30C0 34.4183 3.58172 38 8 38H28C32.4183 38 36 34.4183 36 30V10C36 5.58172 32.4183 2 28 2Z" fill="url(#paint0_linear_46_2147)"/>
<g filter="url(#filter1_dd_46_2147)">
<path d="M10.7175 15.2632L10.7665 15.2632L25.2825 15.2632C25.7627 15.2631 26.2002 15.2631 26.5504 15.3114C26.9355 15.3645 27.3456 15.4916 27.6512 15.8439C27.9535 16.1924 28.0099 16.5961 27.9987 16.9631C27.9884 17.3022 27.9147 17.7172 27.8326 18.1791L27.8326 18.1791L26.6427 24.8799C26.4548 25.9385 26.3027 26.7948 26.0935 27.4643C25.8762 28.1599 25.5738 28.7364 25.0297 29.1815C24.4834 29.6283 23.8404 29.8224 23.0893 29.9132C22.3708 30 21.4728 30 20.3693 30H15.6307C14.5272 30 13.6292 30 12.9107 29.9132C12.1596 29.8224 11.5166 29.6283 10.9703 29.1815C10.4262 28.7364 10.1238 28.1599 9.90646 27.4643C9.69726 26.7948 9.54522 25.9386 9.35727 24.8799L8.17526 18.2232L8.16743 18.1791C8.08535 17.7172 8.01162 17.3022 8.0013 16.9631C7.99013 16.5961 8.04648 16.1924 8.34877 15.8439C8.6544 15.4916 9.06454 15.3645 9.44957 15.3114C9.79977 15.2631 10.2373 15.2631 10.7175 15.2632Z" fill="url(#paint1_linear_46_2147)"/>
<path fill-rule="evenodd" clip-rule="evenodd" d="M18.2517 11.6232C16.3914 11.6232 14.8833 13.0766 14.8833 14.8696V15.2754C14.8833 15.7236 14.5063 16.087 14.0412 16.087C13.5761 16.087 13.1991 15.7236 13.1991 15.2754V14.8696C13.1991 12.1802 15.4612 10 18.2517 10C21.0422 10 23.3044 12.1802 23.3044 14.8696V15.2754C23.3044 15.7236 22.9273 16.087 22.4623 16.087C21.9972 16.087 21.6201 15.7236 21.6201 15.2754V14.8696C21.6201 13.0766 20.1121 11.6232 18.2517 11.6232Z" fill="white"/>
</g>
</g>
<path d="M197.382 10V27.7316H194.17V10H197.382Z" fill="#1E43CD"/>
<path d="M188.198 10H191.41V21.5844C191.41 22.8543 191.11 23.9711 190.51 24.9351C189.915 25.899 189.078 26.6522 187.999 27.1948C186.919 27.7316 185.658 28 184.215 28C182.766 28 181.502 27.7316 180.423 27.1948C179.344 26.6522 178.507 25.899 177.912 24.9351C177.318 23.9711 177.02 22.8543 177.02 21.5844V10H180.232V21.316C180.232 22.0548 180.394 22.7128 180.717 23.29C181.046 23.8672 181.508 24.3203 182.103 24.6494C182.697 24.9726 183.401 25.1342 184.215 25.1342C185.029 25.1342 185.733 24.9726 186.328 24.6494C186.928 24.3203 187.39 23.8672 187.713 23.29C188.036 22.7128 188.198 22.0548 188.198 21.316V10Z" fill="#1E43CD"/>
<path d="M167.017 27.9913C165.683 27.9913 164.532 27.7143 163.562 27.1602C162.598 26.6003 161.856 25.8095 161.337 24.7879C160.817 23.7605 160.558 22.5512 160.558 21.1602C160.558 19.7922 160.817 18.5916 161.337 17.5584C161.862 16.5195 162.595 15.7114 163.536 15.1342C164.477 14.5512 165.582 14.2597 166.852 14.2597C167.672 14.2597 168.445 14.3925 169.172 14.658C169.905 14.9177 170.552 15.3218 171.112 15.8701C171.677 16.4185 172.122 17.1169 172.445 17.9654C172.768 18.8081 172.93 19.8124 172.93 20.9783V21.9394H162.03V19.8268H169.926C169.92 19.2265 169.79 18.6926 169.536 18.2251C169.282 17.7518 168.927 17.3795 168.471 17.1082C168.021 16.8369 167.496 16.7013 166.895 16.7013C166.255 16.7013 165.692 16.8571 165.207 17.1688C164.722 17.4747 164.344 17.8788 164.073 18.3809C163.807 18.8773 163.672 19.4228 163.666 20.0173V21.8615C163.666 22.6349 163.807 23.2987 164.09 23.8528C164.373 24.4011 164.768 24.8225 165.276 25.1169C165.784 25.4055 166.379 25.5498 167.06 25.5498C167.516 25.5498 167.929 25.4863 168.298 25.3593C168.667 25.2265 168.988 25.0332 169.259 24.7792C169.53 24.5252 169.735 24.2107 169.874 23.8355L172.8 24.1645C172.615 24.9379 172.263 25.6133 171.744 26.1905C171.23 26.7619 170.572 27.2063 169.77 27.5238C168.967 27.8355 168.05 27.9913 167.017 27.9913Z" fill="#120F43"/>
<path d="M153.59 27.9913C152.262 27.9913 151.122 27.6999 150.17 27.1169C149.223 26.5339 148.493 25.7287 147.98 24.7013C147.472 23.6681 147.218 22.4791 147.218 21.1342C147.218 19.7835 147.477 18.5916 147.997 17.5584C148.516 16.5195 149.249 15.7114 150.196 15.1342C151.148 14.5512 152.274 14.2597 153.573 14.2597C154.652 14.2597 155.607 14.4589 156.438 14.8571C157.275 15.2496 157.942 15.8066 158.438 16.5281C158.935 17.2439 159.218 18.0808 159.287 19.039H156.291C156.17 18.3983 155.881 17.8644 155.425 17.4372C154.975 17.0043 154.372 16.7879 153.616 16.7879C152.975 16.7879 152.412 16.961 151.928 17.3074C151.443 17.6479 151.065 18.1385 150.793 18.7792C150.528 19.4199 150.395 20.1876 150.395 21.0822C150.395 21.9885 150.528 22.7677 150.793 23.4199C151.059 24.0664 151.431 24.5657 151.91 24.9177C152.395 25.2641 152.964 25.4372 153.616 25.4372C154.078 25.4372 154.49 25.3506 154.854 25.1775C155.223 24.9986 155.532 24.7417 155.78 24.4069C156.029 24.0721 156.199 23.6652 156.291 23.1861H159.287C159.212 24.127 158.935 24.961 158.456 25.6883C157.977 26.4098 157.324 26.9755 156.499 27.3853C155.674 27.7893 154.704 27.9913 153.59 27.9913Z" fill="#120F43"/>
<path d="M139.401 27.7316V14.4329H142.44V16.6493H142.579C142.821 15.8817 143.237 15.29 143.826 14.8745C144.42 14.4531 145.098 14.2424 145.86 14.2424C146.034 14.2424 146.227 14.2511 146.44 14.2684C146.66 14.2799 146.842 14.3001 146.986 14.329V17.2121C146.853 17.1659 146.642 17.1255 146.354 17.0909C146.071 17.0505 145.797 17.0303 145.531 17.0303C144.96 17.0303 144.446 17.1544 143.99 17.4026C143.54 17.645 143.185 17.9827 142.925 18.4156C142.666 18.8485 142.536 19.3478 142.536 19.9134V27.7316H139.401Z" fill="#120F43"/>
<path d="M131.568 27.9913C130.235 27.9913 129.083 27.7143 128.113 27.1602C127.149 26.6003 126.408 25.8095 125.888 24.7879C125.369 23.7605 125.109 22.5512 125.109 21.1602C125.109 19.7922 125.369 18.5916 125.888 17.5584C126.414 16.5195 127.147 15.7114 128.087 15.1342C129.028 14.5512 130.134 14.2597 131.403 14.2597C132.223 14.2597 132.997 14.3925 133.724 14.658C134.457 14.9177 135.103 15.3218 135.663 15.8701C136.229 16.4185 136.673 17.1169 136.997 17.9654C137.32 18.8081 137.481 19.8124 137.481 20.9783V21.9394H126.581V19.8268H134.477C134.471 19.2265 134.341 18.6926 134.087 18.2251C133.833 17.7518 133.479 17.3795 133.023 17.1082C132.572 16.8369 132.047 16.7013 131.447 16.7013C130.806 16.7013 130.243 16.8571 129.758 17.1688C129.274 17.4747 128.896 17.8788 128.624 18.3809C128.359 18.8773 128.223 19.4228 128.217 20.0173V21.8615C128.217 22.6349 128.359 23.2987 128.642 23.8528C128.924 24.4011 129.32 24.8225 129.828 25.1169C130.336 25.4055 130.93 25.5498 131.611 25.5498C132.067 25.5498 132.48 25.4863 132.849 25.3593C133.219 25.2265 133.539 25.0332 133.81 24.7792C134.082 24.5252 134.287 24.2107 134.425 23.8355L137.352 24.1645C137.167 24.9379 136.815 25.6133 136.295 26.1905C135.782 26.7619 135.124 27.2063 134.321 27.5238C133.519 27.8355 132.601 27.9913 131.568 27.9913Z" fill="#120F43"/>
<path d="M104.531 27.7316V14.4329H107.527V16.6926H107.683C107.96 15.9307 108.418 15.3362 109.059 14.9091C109.7 14.4762 110.465 14.2597 111.354 14.2597C112.254 14.2597 113.013 14.4791 113.631 14.9177C114.254 15.3506 114.693 15.9423 114.947 16.6926H115.085C115.379 15.9538 115.876 15.3651 116.574 14.9264C117.278 14.482 118.113 14.2597 119.076 14.2597C120.3 14.2597 121.299 14.6465 122.072 15.4199C122.846 16.1934 123.232 17.3218 123.232 18.8052V27.7316H120.089V19.29C120.089 18.4646 119.87 17.8615 119.431 17.4805C118.993 17.0938 118.456 16.9004 117.821 16.9004C117.065 16.9004 116.473 17.1371 116.046 17.6104C115.625 18.0779 115.414 18.6869 115.414 19.4372V27.7316H112.341V19.1602C112.341 18.4733 112.133 17.925 111.717 17.5151C111.307 17.1053 110.771 16.9004 110.107 16.9004C109.657 16.9004 109.247 17.0159 108.877 17.2467C108.508 17.4719 108.214 17.7922 107.994 18.2078C107.775 18.6176 107.665 19.0967 107.665 19.645V27.7316H104.531Z" fill="#120F43"/>
<path d="M83.3815 27.7316V14.4329H86.3771V16.6926H86.533C86.81 15.9307 87.2689 15.3362 87.9096 14.9091C88.5503 14.4762 89.3151 14.2597 90.204 14.2597C91.1044 14.2597 91.8634 14.4791 92.481 14.9177C93.1044 15.3506 93.5431 15.9423 93.7971 16.6926H93.9356C94.23 15.9538 94.7264 15.3651 95.4248 14.9264C96.1289 14.482 96.963 14.2597 97.9269 14.2597C99.1506 14.2597 100.149 14.6465 100.923 15.4199C101.696 16.1934 102.083 17.3218 102.083 18.8052V27.7316H98.9399V19.29C98.9399 18.4646 98.7206 17.8615 98.2819 17.4805C97.8432 17.0938 97.3064 16.9004 96.6715 16.9004C95.9154 16.9004 95.3238 17.1371 94.8966 17.6104C94.4753 18.0779 94.2646 18.6869 94.2646 19.4372V27.7316H91.191V19.1602C91.191 18.4733 90.9832 17.925 90.5676 17.5151C90.1578 17.1053 89.621 16.9004 88.9572 16.9004C88.507 16.9004 88.0972 17.0159 87.7278 17.2467C87.3584 17.4719 87.064 17.7922 86.8447 18.2078C86.6253 18.6176 86.5157 19.0967 86.5157 19.645V27.7316H83.3815Z" fill="#120F43"/>
<path d="M75.0804 27.9913C73.7817 27.9913 72.6562 27.7056 71.7038 27.1342C70.7514 26.5628 70.0126 25.7633 69.4874 24.7359C68.9679 23.7085 68.7081 22.5079 68.7081 21.1342C68.7081 19.7605 68.9679 18.557 69.4874 17.5238C70.0126 16.4906 70.7514 15.6883 71.7038 15.1169C72.6562 14.5454 73.7817 14.2597 75.0804 14.2597C76.3791 14.2597 77.5047 14.5454 78.457 15.1169C79.4094 15.6883 80.1454 16.4906 80.6648 17.5238C81.1901 18.557 81.4527 19.7605 81.4527 21.1342C81.4527 22.5079 81.1901 23.7085 80.6648 24.7359C80.1454 25.7633 79.4094 26.5628 78.457 27.1342C77.5047 27.7056 76.3791 27.9913 75.0804 27.9913ZM75.0977 25.4805C75.8019 25.4805 76.3907 25.2872 76.864 24.9004C77.3373 24.5079 77.6894 23.9827 77.9203 23.3247C78.1569 22.6667 78.2752 21.9336 78.2752 21.1255C78.2752 20.3117 78.1569 19.5758 77.9203 18.9177C77.6894 18.254 77.3373 17.7258 76.864 17.3333C76.3907 16.9408 75.8019 16.7446 75.0977 16.7446C74.3762 16.7446 73.776 16.9408 73.2969 17.3333C72.8236 17.7258 72.4686 18.254 72.2319 18.9177C72.0011 19.5758 71.8856 20.3117 71.8856 21.1255C71.8856 21.9336 72.0011 22.6667 72.2319 23.3247C72.4686 23.9827 72.8236 24.5079 73.2969 24.9004C73.776 25.2872 74.3762 25.4805 75.0977 25.4805Z" fill="#120F43"/>
<path d="M61.7404 27.9913C60.4129 27.9913 59.2729 27.6999 58.3205 27.1169C57.3739 26.5339 56.6437 25.7287 56.13 24.7013C55.6221 23.6681 55.3681 22.4791 55.3681 21.1342C55.3681 19.7835 55.6279 18.5916 56.1474 17.5584C56.6668 16.5195 57.3999 15.7114 58.3465 15.1342C59.2989 14.5512 60.4244 14.2597 61.7231 14.2597C62.8025 14.2597 63.7577 14.4589 64.5889 14.8571C65.4259 15.2496 66.0925 15.8066 66.5889 16.5281C67.0853 17.2439 67.3681 18.0808 67.4374 19.039H64.4417C64.3205 18.3983 64.0319 17.8644 63.5759 17.4372C63.1257 17.0043 62.5225 16.7879 61.7664 16.7879C61.1257 16.7879 60.5629 16.961 60.0781 17.3074C59.5932 17.6479 59.2152 18.1385 58.9439 18.7792C58.6784 19.4199 58.5456 20.1876 58.5456 21.0822C58.5456 21.9885 58.6784 22.7677 58.9439 23.4199C59.2094 24.0664 59.5817 24.5657 60.0608 24.9177C60.5456 25.2641 61.1142 25.4372 61.7664 25.4372C62.2282 25.4372 62.6409 25.3506 63.0045 25.1775C63.3739 24.9986 63.6827 24.7417 63.9309 24.4069C64.1791 24.0721 64.3494 23.6652 64.4417 23.1861H67.4374C67.3624 24.127 67.0853 24.961 66.6062 25.6883C66.1272 26.4098 65.4749 26.9755 64.6495 27.3853C63.8241 27.7893 62.8544 27.9913 61.7404 27.9913Z" fill="#120F43"/>
<path d="M42 27.7316V10H53.5325V12.6926H45.2121V17.5065H52.9351V20.1991H45.2121V25.039H53.6017V27.7316H42Z" fill="#120F43"/>
<defs>
<filter id="filter0_i_46_2147" x="0" y="2" width="36" height="44" filterUnits="userSpaceOnUse" color-interpolation-filters="sRGB">
<feFlood flood-opacity="0" result="BackgroundImageFix"/>
<feBlend mode="normal" in="SourceGraphic" in2="BackgroundImageFix" result="shape"/>
<feColorMatrix in="SourceAlpha" type="matrix" values="0 0 0 0 0 0 0 0 0 0 0 0 0 0 0 0 0 0 127 0" result="hardAlpha"/>
<feOffset dy="8"/>
<feGaussianBlur stdDeviation="8"/>
<feComposite in2="hardAlpha" operator="arithmetic" k2="-1" k3="1"/>
<feColorMatrix type="matrix" values="0 0 0 0 1 0 0 0 0 1 0 0 0 0 1 0 0 0 0.2 0"/>
<feBlend mode="normal" in2="shape" result="effect1_innerShadow_46_2147"/>
</filter>
<filter id="filter1_dd_46_2147" x="5.77778" y="6.66667" width="24.4444" height="26.6667" filterUnits="userSpaceOnUse" color-interpolation-filters="sRGB">
<feFlood flood-opacity="0" result="BackgroundImageFix"/>
<feColorMatrix in="SourceAlpha" type="matrix" values="0 0 0 0 0 0 0 0 0 0 0 0 0 0 0 0 0 0 127 0" result="hardAlpha"/>
<feOffset dy="1.11111"/>
<feGaussianBlur stdDeviation="1.11111"/>
<feComposite in2="hardAlpha" operator="out"/>
<feColorMatrix type="matrix" values="0 0 0 0 0 0 0 0 0 0 0 0 0 0 0 0 0 0 0.2 0"/>
<feBlend mode="normal" in2="BackgroundImageFix" result="effect1_dropShadow_46_2147"/>
<feColorMatrix in="SourceAlpha" type="matrix" values="0 0 0 0 0 0 0 0 0 0 0 0 0 0 0 0 0 0 127 0" result="hardAlpha"/>
<feOffset dy="-1.11111"/>
<feGaussianBlur stdDeviation="1.11111"/>
<feComposite in2="hardAlpha" operator="out"/>
<feColorMatrix type="matrix" values="0 0 0 0 1 0 0 0 0 1 0 0 0 0 1 0 0 0 0.6 0"/>
<feBlend mode="normal" in2="effect1_dropShadow_46_2147" result="effect2_dropShadow_46_2147"/>
<feBlend mode="normal" in="SourceGraphic" in2="effect2_dropShadow_46_2147" result="shape"/>
</filter>
<linearGradient id="paint0_linear_46_2147" x1="30.7059" y1="38" x2="1.58824" y2="7.29412" gradientUnits="userSpaceOnUse">
<stop stop-color="#8D33FF"/>
<stop offset="1" stop-color="#00A3FF"/>
</linearGradient>
<linearGradient id="paint1_linear_46_2147" x1="16" y1="17.5" x2="14.5" y2="32.5" gradientUnits="userSpaceOnUse">
<stop stop-color="white"/>
<stop offset="0.399038" stop-color="#C0DEFF"/>
<stop offset="1" stop-color="#9B9BFF"/>
</linearGradient>
</defs>
</svg>
