<svg width="24" height="24" viewBox="0 0 24 24" fill="none" xmlns="http://www.w3.org/2000/svg">
<path d="M12.8 5.334C13.684 4.728 14.782 4.25 16 4.25C17.667 4.25 19.115 5.158 20.121 6.415C21.128 7.673 21.75 9.344 21.75 11.028C21.75 14.648 21.228 17.316 19.125 20.484C19.117 20.496 19.109 20.507 19.101 20.518C18.266 21.637 17.235 22.411 16.039 22.663C14.833 22.917 13.583 22.614 12.373 21.816C12.162 21.677 11.838 21.677 11.627 21.816C10.417 22.614 9.167 22.917 7.961 22.663C6.765 22.411 5.734 21.637 4.899 20.518C4.891 20.507 4.883 20.496 4.875 20.484C2.773 17.316 2.25 14.648 2.25 11.028C2.25 9.344 2.872 7.673 3.879 6.415C4.885 5.158 6.333 4.25 8 4.25C9.256 4.25 10.384 4.758 11.282 5.391C11.352 4.707 11.542 3.88 11.94 3.144C12.483 2.138 13.453 1.25 15 1.25C15.414 1.25 15.75 1.586 15.75 2C15.75 2.414 15.414 2.75 15 2.75C14.147 2.75 13.617 3.196 13.26 3.856C13.011 4.317 12.868 4.854 12.8 5.334ZM5.05 7.352C4.247 8.355 3.75 9.698 3.75 11.028C3.75 14.433 4.226 16.786 6.113 19.637C6.795 20.545 7.535 21.04 8.27 21.195C9.001 21.349 9.847 21.193 10.801 20.564C11.513 20.095 12.487 20.095 13.199 20.564C14.153 21.193 14.999 21.349 15.73 21.195C16.465 21.04 17.205 20.545 17.887 19.637C19.774 16.786 20.25 14.433 20.25 11.028C20.25 9.698 19.753 8.355 18.95 7.352C18.147 6.349 17.095 5.75 16 5.75C14.844 5.75 13.733 6.396 12.889 7.182C12.389 7.646 11.611 7.646 11.111 7.182C10.267 6.396 9.156 5.75 8 5.75C6.905 5.75 5.853 6.349 5.05 7.352ZM8.637 7.604C8.856 7.955 8.748 8.418 8.396 8.637C7.479 9.208 6.75 10.575 6.75 12C6.75 12.414 6.414 12.75 6 12.75C5.586 12.75 5.25 12.414 5.25 12C5.25 10.158 6.167 8.258 7.604 7.363C7.955 7.144 8.418 7.252 8.637 7.604Z" fill="#141B34"/>
</svg>
