<svg width="20" height="20" viewBox="0 0 20 20" fill="none" xmlns="http://www.w3.org/2000/svg">
<path d="M3.95866 4.6025V9.375H18.3337C18.6787 9.375 18.9587 9.655 18.9587 10C18.9587 10.345 18.6787 10.625 18.3337 10.625H18.1253V13.3333C18.1253 14.8425 17.2812 16.1542 16.0395 16.8217L16.2753 17.0583C16.5195 17.3025 16.5195 17.6975 16.2753 17.9417C16.0312 18.1858 15.6362 18.1858 15.392 17.9417L14.7053 17.255C14.5295 17.2792 14.3495 17.2917 14.167 17.2917H5.83366C5.65116 17.2917 5.47116 17.2792 5.29533 17.255L4.60866 17.9417C4.36449 18.1858 3.96949 18.1858 3.72533 17.9417C3.48116 17.6975 3.48116 17.3025 3.72533 17.0583L3.96116 16.8217C2.71949 16.1542 1.87533 14.8425 1.87533 13.3333V10.625H1.66699C1.32199 10.625 1.04199 10.345 1.04199 10C1.04199 9.655 1.32199 9.375 1.66699 9.375H2.70866V4.6025C2.70866 3.09667 3.93033 1.875 5.43616 1.875C6.44199 1.875 7.34699 2.425 7.82033 3.27667L8.35949 2.845C8.62949 2.63 9.02283 2.67333 9.23866 2.9425C9.45366 3.2125 9.41033 3.60583 9.14116 3.82167L7.05783 5.48833C6.78783 5.70333 6.39449 5.66 6.17866 5.39083C5.96366 5.12083 6.00699 4.7275 6.27616 4.51167L6.81866 4.07833C6.60199 3.50833 6.05366 3.125 5.43616 3.125C4.62033 3.125 3.95866 3.78667 3.95866 4.6025ZM3.12533 10.625V13.3333C3.12533 14.8292 4.33783 16.0417 5.83366 16.0417H14.167C15.6628 16.0417 16.8753 14.8292 16.8753 13.3333V10.625H3.12533Z" fill="#6F7C8E"/>
</svg>
