<svg width="24" height="24" viewBox="0 0 24 24" fill="none" xmlns="http://www.w3.org/2000/svg">
<path d="M9.25 2C9.25 1.586 9.586 1.25 10 1.25H14.745C15.691 1.25 16.603 1.608 17.297 2.252L17.51 2.45C17.814 2.732 17.831 3.207 17.55 3.51C17.268 3.814 16.793 3.831 16.49 3.55L16.276 3.351C15.86 2.965 15.313 2.75 14.745 2.75H12.75V4.258C12.91 4.264 13.061 4.275 13.197 4.293C13.553 4.341 13.928 4.454 14.237 4.763C14.547 5.072 14.659 5.447 14.707 5.803C14.75 6.126 14.75 6.522 14.75 6.955V7.949C16.537 8.924 17.75 10.821 17.75 13V18.055C17.75 18.952 17.75 19.7 17.67 20.295C17.586 20.922 17.4 21.489 16.944 21.944C16.489 22.4 15.922 22.586 15.295 22.67C14.7 22.75 13.952 22.75 13.055 22.75H10.945C10.048 22.75 9.3 22.75 8.706 22.67C8.078 22.586 7.511 22.4 7.055 21.944C6.6 21.489 6.414 20.922 6.33 20.295C6.25 19.7 6.25 18.951 6.25 18.052V12.998C6.251 10.819 7.463 8.924 9.25 7.949V7V6.955C9.25 6.522 9.25 6.126 9.293 5.803C9.341 5.447 9.454 5.072 9.763 4.763C10.072 4.454 10.447 4.341 10.803 4.293C10.939 4.275 11.09 4.264 11.25 4.258V2.75H10C9.586 2.75 9.25 2.414 9.25 2ZM7.75 13.75V18C7.75 18.964 7.752 19.612 7.817 20.095C7.879 20.556 7.986 20.754 8.116 20.884C8.246 21.014 8.444 21.121 8.905 21.184C9.388 21.248 10.036 21.25 11 21.25H13C13.964 21.25 14.612 21.248 15.095 21.184C15.556 21.121 15.754 21.014 15.884 20.884C16.014 20.754 16.121 20.556 16.184 20.095C16.248 19.612 16.25 18.964 16.25 18V13.75H7.75ZM16.184 12.25C15.83 10.26 14.091 8.75 12 8.75C9.909 8.75 8.17 10.26 7.816 12.25H16.184ZM13.25 7.386V7C13.25 6.507 13.248 6.213 13.22 6.003C13.207 5.906 13.192 5.858 13.183 5.836C13.182 5.834 13.181 5.831 13.181 5.831C13.18 5.829 13.178 5.826 13.178 5.826L13.177 5.823L13.174 5.822C13.172 5.821 13.169 5.819 13.164 5.817C13.142 5.808 13.094 5.793 12.997 5.78C12.787 5.752 12.493 5.75 12 5.75C11.507 5.75 11.213 5.752 11.003 5.78C10.906 5.793 10.858 5.808 10.836 5.817C10.831 5.819 10.828 5.821 10.826 5.822L10.823 5.823L10.822 5.826C10.821 5.828 10.819 5.831 10.817 5.836C10.808 5.858 10.793 5.906 10.78 6.003C10.752 6.213 10.75 6.507 10.75 7V7.386C11.152 7.297 11.571 7.25 12 7.25C12.429 7.25 12.848 7.297 13.25 7.386Z" fill="#141B34"/>
</svg>
