<svg width="20" height="20" viewBox="0 0 20 20" fill="none" xmlns="http://www.w3.org/2000/svg">
<path d="M1.87533 9.90167V6.13417V6.03917C1.87449 5.55667 1.87366 5.1025 2.12199 4.68C2.36199 4.27167 2.71699 4.05333 3.10866 3.8125L3.17699 3.77083C5.11616 2.57333 7.46949 1.875 10.0003 1.875C12.532 1.875 14.8853 2.57333 16.8245 3.77083L16.8928 3.8125C17.2845 4.05333 17.6387 4.27167 17.8795 4.68C18.1278 5.1025 18.127 5.55667 18.1253 6.03917V6.13417V9.90167C18.1812 9.94583 18.2353 9.99417 18.287 10.0467C18.667 10.4258 18.822 10.8983 18.892 11.4208C18.9587 11.9167 18.9587 12.54 18.9587 13.2875V17.5C18.9587 17.845 18.6787 18.125 18.3337 18.125C17.9887 18.125 17.7087 17.845 17.7087 17.5V15.2083H2.29199V17.5C2.29199 17.845 2.01199 18.125 1.66699 18.125C1.32199 18.125 1.04199 17.845 1.04199 17.5V13.29C1.04199 12.5417 1.04199 11.9167 1.10866 11.4208C1.17866 10.8983 1.33366 10.4258 1.71283 10.0467C1.76533 9.99417 1.81949 9.94583 1.87533 9.90167ZM9.79199 9.375H10.2087V8.51083C10.2087 8.34833 10.2145 8.105 10.3328 7.87667C10.4653 7.6225 10.6787 7.48917 10.8412 7.40667C11.4103 7.115 12.1262 6.875 12.917 6.875C13.7078 6.875 14.4237 7.115 14.9937 7.40667C15.1553 7.48917 15.3687 7.6225 15.5012 7.87667C15.6195 8.105 15.6253 8.34833 15.6253 8.51083V9.37667C16.1045 9.38 16.522 9.3925 16.8753 9.43667V6.13417C16.8753 5.49917 16.857 5.40833 16.802 5.31417C16.7362 5.20167 16.662 5.13917 16.1678 4.83417C14.4278 3.76 12.302 3.125 10.0003 3.125C7.69949 3.125 5.57366 3.76 3.83366 4.83417C3.33949 5.13917 3.26533 5.20167 3.19949 5.31417C3.14366 5.40833 3.12533 5.49917 3.12533 6.13417V9.43667C3.47866 9.3925 3.89616 9.38 4.37533 9.37667V8.51083C4.37533 8.34833 4.38116 8.105 4.50033 7.87667C4.63199 7.6225 4.84533 7.48917 5.00699 7.40667C5.57699 7.115 6.29283 6.875 7.08366 6.875C7.87449 6.875 8.59033 7.115 9.15949 7.40667C9.32199 7.48917 9.53533 7.6225 9.66782 7.87667C9.78616 8.105 9.79199 8.34833 9.79199 8.51083V9.375ZM17.7087 13.3333C17.7087 12.53 17.707 11.99 17.6537 11.5875C17.6012 11.2033 17.512 11.0383 17.4037 10.93C17.2953 10.8217 17.1303 10.7325 16.7462 10.68C16.3437 10.6267 15.8037 10.625 15.0003 10.625H5.00033C4.19699 10.625 3.65699 10.6267 3.25449 10.68C2.87033 10.7325 2.70533 10.8217 2.59699 10.93C2.48866 11.0383 2.39949 11.2033 2.34783 11.5875C2.29366 11.99 2.29199 12.53 2.29199 13.3333V13.9583H17.7087V13.3333ZM8.54199 9.375V8.51083V8.495C8.10616 8.27833 7.60449 8.125 7.08366 8.125C6.56283 8.125 6.06116 8.27833 5.62533 8.495V8.51083V9.375H8.54199ZM11.4587 8.51083V9.375H14.3753V8.51083V8.495C13.9395 8.27833 13.4378 8.125 12.917 8.125C12.3962 8.125 11.8945 8.27833 11.4587 8.495V8.51083Z" fill="#6F7C8E"/>
</svg>
