<svg width="24" height="24" viewBox="0 0 24 24" fill="none" xmlns="http://www.w3.org/2000/svg">
<path d="M10.621 16.75C10.083 16.75 9.694 16.75 9.352 16.476C9.013 16.209 8.924 15.823 8.775 15.184L8.774 15.177C8.336 13.288 6.589 11.798 4.958 11.917C4.688 11.938 4.525 11.95 4.34 11.906C4.169 11.868 4.037 11.794 3.854 11.691C3.716 11.613 3.578 11.537 3.44 11.461L3.415 11.448C3.137 11.294 2.85 11.135 2.568 10.963C1.773 10.478 1.281 9.63398 1.251 8.70598C1.235 8.23398 1.419 7.79198 1.743 7.52598C2.041 7.28198 2.424 7.19798 2.824 7.29198L9.246 8.80298C9.258 8.80598 9.271 8.80898 9.283 8.81198C9.53 8.86998 9.776 8.92798 9.861 8.92798C9.964 8.88698 10.248 8.69398 10.528 8.50198L10.55 8.48698C11.484 7.84798 13.943 6.46498 16.594 7.42198C16.932 7.54398 17.246 7.65698 17.361 7.68298C17.456 7.66898 17.705 7.59698 17.969 7.52098L17.973 7.51898C18.215 7.44898 18.457 7.38698 18.698 7.33398C18.026 6.71298 17.245 6.14998 16.365 5.65298C16.004 5.44898 15.877 4.99198 16.081 4.63098C16.285 4.26998 16.742 4.14298 17.103 4.34698C18.6 5.19298 19.849 6.21798 20.814 7.39298C22.167 9.03998 22.7 10.676 22.748 11.659C22.761 11.921 22.636 12.17 22.419 12.317C22.202 12.464 21.924 12.487 21.686 12.378C21.091 12.105 20.45 11.967 19.781 11.967C17.696 11.967 15.79 13.351 15.346 15.185L15.342 15.2V15.201C15.188 15.834 15.095 16.216 14.757 16.482C14.417 16.75 14.032 16.75 13.498 16.75H10.621ZM10.621 15.25H13.499C13.596 15.25 13.699 15.25 13.784 15.248C13.812 15.147 13.844 15.016 13.876 14.884L13.885 14.845L13.888 14.831C14.5 12.302 16.978 10.466 19.781 10.466C20.188 10.466 20.587 10.505 20.977 10.582C20.784 10.059 20.456 9.39198 19.896 8.65098C19.504 8.69498 18.993 8.78398 18.399 8.95598L18.367 8.96598C17.844 9.11698 17.58 9.19398 17.309 9.18298C17.033 9.17398 16.758 9.07498 16.092 8.83498C14.085 8.10998 12.14 9.21498 11.397 9.72398C10.805 10.13 10.507 10.333 10.142 10.402C9.779 10.47 9.448 10.392 8.901 10.263L2.766 8.81898C2.825 9.17598 3.035 9.48998 3.348 9.68198C3.61 9.84098 3.879 9.98998 4.165 10.147C4.213 10.1743 4.261 10.201 4.309 10.227C4.403 10.279 4.497 10.331 4.591 10.384C4.608 10.394 4.627 10.404 4.645 10.414C4.657 10.421 4.668 10.427 4.679 10.433C4.705 10.432 4.736 10.429 4.768 10.427C4.794 10.425 4.82 10.423 4.846 10.421C7.21 10.24 9.63 12.224 10.236 14.838C10.242 14.863 10.247 14.887 10.253 14.912C10.281 15.031 10.309 15.152 10.334 15.247V15.248C10.42 15.25 10.524 15.25 10.621 15.25ZM4.5 19.75C2.708 19.75 1.25 18.292 1.25 16.5C1.25 14.708 2.708 13.25 4.5 13.25C6.292 13.25 7.75 14.708 7.75 16.5C7.75 18.292 6.292 19.75 4.5 19.75ZM19.5 19.75C17.708 19.75 16.25 18.292 16.25 16.5C16.25 14.708 17.708 13.25 19.5 13.25C21.292 13.25 22.75 14.708 22.75 16.5C22.75 18.292 21.292 19.75 19.5 19.75ZM19.5 14.75C18.535 14.75 17.75 15.535 17.75 16.5C17.75 17.465 18.535 18.25 19.5 18.25C20.465 18.25 21.25 17.465 21.25 16.5C21.25 15.535 20.465 14.75 19.5 14.75ZM4.5 14.75C3.535 14.75 2.75 15.535 2.75 16.5C2.75 17.465 3.535 18.25 4.5 18.25C5.465 18.25 6.25 17.465 6.25 16.5C6.25 15.535 5.465 14.75 4.5 14.75Z" fill="#141B34"/>
</svg>
