<svg width="24" height="24" viewBox="0 0 24 24" fill="none" xmlns="http://www.w3.org/2000/svg">
<path d="M6.121 2.54899C8.968 3.09099 10.935 4.13099 12 4.99398C13.065 4.13099 15.032 3.09099 17.879 2.54899L17.942 2.53699C18.734 2.38599 19.427 2.25399 20.009 2.24999C20.659 2.24599 21.239 2.39799 21.767 2.84999C22.31 3.31499 22.545 3.91299 22.651 4.59699C22.75 5.23299 22.75 6.03299 22.75 6.98399V14.299C22.75 15.179 22.75 15.9 22.688 16.471C22.624 17.06 22.484 17.601 22.121 18.05C21.743 18.518 21.19 18.764 20.583 18.944C19.979 19.123 19.184 19.275 18.201 19.462L18.16 19.47C16.417 19.802 15.073 20.327 14.117 20.843L14.098 20.853C13.61 21.117 13.219 21.328 12.92 21.472C12.767 21.545 12.62 21.61 12.484 21.657C12.356 21.702 12.185 21.75 12 21.75C11.815 21.75 11.644 21.702 11.516 21.657C11.38 21.61 11.233 21.545 11.08 21.472C10.781 21.328 10.39 21.117 9.902 20.853L9.883 20.843C8.927 20.327 7.583 19.802 5.84 19.47L5.799 19.462C4.816 19.275 4.021 19.123 3.418 18.944C2.81 18.764 2.257 18.518 1.879 18.05C1.516 17.601 1.376 17.06 1.312 16.471C1.25 15.9 1.25 15.179 1.25 14.299V6.98699C1.25 6.03499 1.25 5.23299 1.349 4.59699C1.455 3.91299 1.69 3.31499 2.233 2.84999C2.761 2.39799 3.341 2.24599 3.991 2.24999C4.573 2.25399 5.266 2.38599 6.058 2.53699L6.121 2.54899ZM12.75 19.874C12.936 19.776 13.151 19.66 13.405 19.523C14.5 18.932 15.991 18.356 17.879 17.996C18.914 17.799 19.633 17.661 20.155 17.506C20.682 17.35 20.869 17.212 20.954 17.107C21.053 16.984 21.145 16.78 21.197 16.309C21.249 15.829 21.25 15.189 21.25 14.255V7.04599C21.25 6.01899 21.248 5.33499 21.169 4.82799C21.095 4.35399 20.969 4.14199 20.791 3.98899C20.598 3.82399 20.396 3.74799 20.019 3.74999C19.59 3.75299 19.034 3.85598 18.16 4.02198C15.24 4.57798 13.468 5.67099 12.75 6.32599V19.874ZM3.209 3.98899C3.031 4.14199 2.905 4.35399 2.831 4.82799C2.752 5.33499 2.75 6.01899 2.75 7.04599V14.255C2.75 15.189 2.751 15.829 2.803 16.309C2.855 16.78 2.947 16.984 3.046 17.107C3.131 17.212 3.318 17.35 3.845 17.506C4.367 17.661 5.086 17.799 6.121 17.996C8.01 18.356 9.5 18.932 10.595 19.523C10.849 19.66 11.064 19.776 11.25 19.874V6.32599C10.532 5.67099 8.76 4.57798 5.84 4.02198C4.966 3.85598 4.41 3.75299 3.981 3.74999C3.604 3.74799 3.402 3.82399 3.209 3.98899Z" fill="#141B34"/>
</svg>
