<svg width="24" height="24" viewBox="0 0 24 24" fill="none" xmlns="http://www.w3.org/2000/svg">
<path d="M13.12 3.26297C15.547 1.16297 18.272 0.965972 20.385 1.50497C21.579 1.80997 22.327 2.66797 22.614 3.67997C22.894 4.66797 22.736 5.79297 22.194 6.73997C20.675 9.39497 18.951 11.754 15.833 14.828C12.809 17.811 9.64703 20.31 6.61003 22.212C4.55503 23.498 1.73903 22.372 1.39303 19.852C1.24203 18.745 1.18703 17.559 1.34503 16.468C1.48303 15.52 1.79003 14.587 2.38803 13.851C2.07203 11.872 2.66703 9.70497 4.34703 8.47897C4.86803 8.09797 5.46803 7.82597 6.14203 7.67697C6.30403 6.60397 6.87903 5.36197 7.92803 4.44197C9.11203 3.40397 10.843 2.82497 13.12 3.26297ZM14.914 3.78497C15.564 4.03397 16.249 4.35697 16.969 4.76197C17.33 4.96397 17.459 5.42197 17.256 5.78297C17.053 6.14397 16.596 6.27197 16.235 6.06897C15.071 5.41597 14.05 5.01697 13.164 4.80697C11.119 4.32097 9.76703 4.82397 8.91703 5.56997C8.26303 6.14297 7.86903 6.89097 7.69703 7.55397C9.09103 7.61897 10.712 8.11697 12.533 9.13997C12.894 9.34297 13.022 9.79997 12.819 10.161C12.617 10.522 12.159 10.651 11.798 10.448C8.48403 8.58597 6.37903 8.85197 5.23103 9.68997C4.17103 10.464 3.66603 11.904 3.83803 13.389C4.67003 13.526 5.85403 13.904 6.99003 14.713C7.32703 14.954 7.40603 15.422 7.16503 15.759C6.92503 16.097 6.45603 16.175 6.11903 15.935C5.12803 15.228 4.10603 14.941 3.50603 14.856C3.16403 15.305 2.94003 15.922 2.83003 16.683C2.69903 17.587 2.73903 18.622 2.88003 19.649C3.06503 21 4.60303 21.698 5.81403 20.94C8.75003 19.101 11.827 16.673 14.78 13.76C17.804 10.778 19.444 8.52697 20.892 5.99497C21.251 5.36897 21.332 4.65797 21.171 4.08797C21.016 3.54197 20.642 3.11897 20.014 2.95797C18.526 2.57897 16.68 2.63997 14.914 3.78497Z" fill="#141B34"/>
</svg>
