<svg width="24" height="24" viewBox="0 0 24 24" fill="none" xmlns="http://www.w3.org/2000/svg">
<path d="M12 1.25C14.382 1.25 16.354 3.003 16.697 5.289C17.68 5.4 18.59 5.751 19.306 6.344C20.204 7.086 20.75 8.173 20.75 9.5C20.75 10.821 19.921 11.993 18.612 12.796L17.626 17.942C17.477 18.721 17.357 19.348 17.218 19.852C17.075 20.371 16.899 20.815 16.608 21.21C16.258 21.686 15.806 22.075 15.283 22.343C14.848 22.567 14.386 22.662 13.863 22.707C13.359 22.75 12.743 22.75 11.986 22.75H11.921C11.197 22.75 10.608 22.75 10.125 22.71C9.622 22.668 9.178 22.579 8.755 22.37C8.247 22.12 7.802 21.756 7.45 21.307C7.159 20.936 6.972 20.517 6.813 20.025C6.659 19.548 6.517 18.955 6.341 18.219L5.444 14.474C4.957 14.284 4.538 13.999 4.198 13.629C3.545 12.92 3.25 11.975 3.25 11C3.25 10.091 3.574 9.142 4.095 8.383C4.528 7.753 5.142 7.191 5.896 6.925C6.277 5.94 7.008 5.391 7.729 5.048C8.125 4.86 8.532 4.728 8.867 4.62C9.227 4.504 9.477 4.423 9.665 4.329C10.378 3.972 11.019 3.529 11.359 3.117C11.527 2.913 11.568 2.78 11.573 2.72V2.718C11.575 2.696 11.58 2.641 11.47 2.53C11.255 2.316 11.191 1.993 11.307 1.713C11.423 1.433 11.697 1.25 12 1.25ZM5.332 9.232C4.963 9.77 4.75 10.427 4.75 11C4.75 11.682 4.955 12.237 5.302 12.613C5.639 12.98 6.177 13.25 7 13.25C7.943 13.25 10.139 13.008 12.157 12.756C13.153 12.631 14.088 12.507 14.774 12.413C15.116 12.366 15.397 12.327 15.591 12.3L15.816 12.269L15.873 12.26C18.21 11.787 19.25 10.468 19.25 9.5C19.25 8.617 18.901 7.955 18.35 7.499C17.785 7.032 16.965 6.75 16 6.75C15.586 6.75 15.25 6.414 15.25 6C15.25 4.576 14.334 3.366 13.059 2.926C13 3.374 12.771 3.761 12.516 4.071C11.981 4.721 11.122 5.278 10.335 5.671C10.043 5.817 9.693 5.929 9.39 6.027L9.328 6.047C8.986 6.157 8.668 6.263 8.372 6.403C7.808 6.671 7.386 7.034 7.214 7.725C7.127 8.076 7.168 8.313 7.253 8.48C7.342 8.653 7.525 8.843 7.888 9.009C8.641 9.353 9.973 9.498 11.907 9.256C12.318 9.204 12.693 9.496 12.744 9.907C12.796 10.318 12.504 10.693 12.093 10.744C10.068 10.997 8.4 10.892 7.265 10.373C6.683 10.107 6.2 9.713 5.918 9.165C5.848 9.027 5.793 8.886 5.753 8.742C5.604 8.878 5.462 9.042 5.332 9.232ZM16.943 13.536C16.686 13.614 16.42 13.681 16.147 13.735C16.133 13.738 16.12 13.741 16.106 13.743L16.026 13.754L15.799 13.786C15.603 13.813 15.321 13.852 14.976 13.899C14.287 13.993 13.347 14.119 12.343 14.244C10.393 14.488 8.132 14.742 7.052 14.75L7.793 17.841C7.977 18.612 8.107 19.149 8.24 19.564C8.371 19.969 8.491 20.204 8.63 20.381C8.846 20.656 9.116 20.876 9.419 21.025C9.61 21.119 9.848 21.182 10.25 21.215C10.663 21.25 11.19 21.25 11.953 21.25C12.751 21.25 13.303 21.25 13.735 21.213C14.155 21.177 14.402 21.11 14.598 21.009C14.91 20.849 15.185 20.614 15.4 20.321C15.539 20.133 15.654 19.884 15.772 19.454C15.893 19.014 16.002 18.445 16.159 17.63L16.943 13.536Z" fill="#141B34"/>
</svg>
