<svg width="24" height="24" viewBox="0 0 24 24" fill="none" xmlns="http://www.w3.org/2000/svg">
<path d="M11.943 1.75H12.057C14.248 1.75 15.969 1.75 17.312 1.931C18.689 2.116 19.781 2.503 20.639 3.361C21.497 4.219 21.884 5.311 22.069 6.688C22.25 8.031 22.25 9.752 22.25 11.943V12.057C22.25 14.248 22.25 15.969 22.069 17.312C21.884 18.689 21.497 19.781 20.639 20.639C19.781 21.497 18.689 21.884 17.312 22.069C15.969 22.25 14.248 22.25 12.057 22.25H11.943C9.752 22.25 8.031 22.25 6.688 22.069C5.311 21.884 4.219 21.497 3.361 20.639C2.503 19.781 2.116 18.689 1.931 17.312C1.75 15.969 1.75 14.248 1.75 12.057V11.943C1.75 9.752 1.75 8.031 1.931 6.688C2.116 5.311 2.503 4.219 3.361 3.361C4.219 2.503 5.311 2.116 6.688 1.931C8.031 1.75 9.752 1.75 11.943 1.75ZM3.259 9.75C3.25 10.422 3.25 11.167 3.25 12C3.25 14.26 3.252 15.88 3.417 17.112C3.58 18.322 3.889 19.045 4.422 19.578C4.955 20.111 5.678 20.42 6.888 20.583C8.12 20.748 9.74 20.75 12 20.75C14.26 20.75 15.88 20.748 17.112 20.583C18.322 20.42 19.045 20.111 19.578 19.578C20.111 19.045 20.42 18.322 20.583 17.112C20.748 15.88 20.75 14.26 20.75 12C20.75 11.167 20.75 10.422 20.741 9.75H3.259ZM4.422 4.422C3.889 4.955 3.58 5.678 3.417 6.888C3.362 7.296 3.325 7.747 3.301 8.25H20.699C20.675 7.747 20.638 7.296 20.583 6.888C20.42 5.678 20.111 4.955 19.578 4.422C19.045 3.889 18.322 3.58 17.112 3.417C15.88 3.252 14.26 3.25 12 3.25C9.74 3.25 8.12 3.252 6.888 3.417C5.678 3.58 4.955 3.889 4.422 4.422ZM7.432 12.51C7.702 12.197 8.176 12.161 8.49 12.432L9.716 13.489L9.748 13.516C9.978 13.715 10.205 13.91 10.368 14.095C10.549 14.299 10.75 14.595 10.75 15C10.75 15.405 10.549 15.701 10.368 15.905C10.205 16.09 9.978 16.285 9.748 16.484L9.716 16.511L8.49 17.568C8.176 17.838 7.702 17.803 7.432 17.49C7.161 17.176 7.197 16.702 7.51 16.432L8.737 15.375C8.937 15.203 9.068 15.088 9.159 15C9.068 14.912 8.937 14.797 8.737 14.625L7.51 13.568C7.197 13.298 7.161 12.824 7.432 12.51ZM12 16.25H16C16.414 16.25 16.75 16.586 16.75 17C16.75 17.414 16.414 17.75 16 17.75H12C11.586 17.75 11.25 17.414 11.25 17C11.25 16.586 11.586 16.25 12 16.25ZM11 5H11.009C11.561 5 12.009 5.448 12.009 6C12.009 6.552 11.561 7 11.009 7H11C10.448 7 10 6.552 10 6C10 5.448 10.448 5 11 5ZM6 6C6 5.448 6.448 5 7 5H7.009C7.561 5 8.009 5.448 8.009 6C8.009 6.552 7.561 7 7.009 7H7C6.448 7 6 6.552 6 6Z" fill="#141B34"/>
</svg>
