<svg width="25" height="24" viewBox="0 0 25 24" fill="none" xmlns="http://www.w3.org/2000/svg">
<path d="M9.82288 2.25H15.1769H15.2669C16.0269 2.25 16.5349 2.25 17.0229 2.369C17.2439 2.423 17.4599 2.495 17.6679 2.584C18.1299 2.783 18.5249 3.087 19.1049 3.533L19.1749 3.588L19.2069 3.612C20.2529 4.418 21.0829 5.056 21.6919 5.628C22.3149 6.213 22.7739 6.786 23.0149 7.487C23.2129 8.062 23.2869 8.668 23.2329 9.272C23.1659 10.009 22.8539 10.668 22.3849 11.368C21.9279 12.051 21.2719 12.843 20.4479 13.839L16.3899 18.739C15.6529 19.629 15.0479 20.36 14.4919 20.861C13.9089 21.387 13.2829 21.75 12.4999 21.75C11.7169 21.75 11.0909 21.387 10.5079 20.861C9.95188 20.36 9.34688 19.629 8.60988 18.739L4.55188 13.839C3.72788 12.843 3.07188 12.051 2.61488 11.368C2.14588 10.668 1.83388 10.009 1.76688 9.272C1.71288 8.668 1.78688 8.062 1.98488 7.487C2.22588 6.786 2.68488 6.213 3.30788 5.628C3.91688 5.056 4.74688 4.418 5.79288 3.612L5.82488 3.588L5.89488 3.533C6.47488 3.087 6.86988 2.783 7.33188 2.584C7.53988 2.495 7.75588 2.423 7.97688 2.369C8.46488 2.25 8.97288 2.25 9.73288 2.25H9.82288ZM8.33188 3.826C8.19188 3.86 8.05488 3.906 7.92388 3.962C7.65588 4.077 7.41588 4.255 6.73988 4.776C5.65388 5.612 4.88388 6.206 4.33488 6.722C3.79188 7.231 3.53088 7.605 3.40388 7.975C3.27388 8.352 3.22588 8.746 3.26088 9.137C3.29488 9.518 3.45688 9.93 3.86088 10.533C4.27088 11.145 4.87688 11.879 5.73388 12.914L9.72788 17.737C10.5119 18.683 11.0479 19.328 11.5119 19.747C11.9579 20.149 12.2389 20.25 12.4999 20.25C12.7609 20.25 13.0419 20.149 13.4879 19.747C13.9519 19.328 14.4879 18.683 15.2719 17.737L19.2659 12.914C20.1229 11.879 20.7289 11.145 21.1389 10.533C21.5429 9.93 21.7049 9.518 21.7389 9.137C21.7739 8.746 21.7259 8.352 21.5969 7.975C21.4689 7.605 21.2079 7.231 20.6659 6.722C20.1159 6.206 19.3459 5.612 18.2599 4.776C17.5839 4.255 17.3439 4.077 17.0759 3.962C16.9449 3.906 16.8079 3.86 16.6669 3.826C16.3759 3.755 16.0589 3.75 15.1769 3.75H9.82288C8.94088 3.75 8.62288 3.755 8.33188 3.826ZM10.4999 7.75H14.4999C14.9139 7.75 15.2499 8.086 15.2499 8.5C15.2499 8.914 14.9139 9.25 14.4999 9.25H10.4999C10.0859 9.25 9.74988 8.914 9.74988 8.5C9.74988 8.086 10.0859 7.75 10.4999 7.75Z" fill="#141B34"/>
</svg>
