<svg width="24" height="24" viewBox="0 0 24 24" fill="none" xmlns="http://www.w3.org/2000/svg">
<path d="M9.023 1.25H14.932H14.977C15.398 1.25 15.788 1.25 16.106 1.294C16.458 1.342 16.831 1.457 17.136 1.769C17.423 2.062 17.559 2.485 17.632 2.819C17.713 3.186 17.75 3.6 17.75 4C17.75 4.4 17.713 4.814 17.632 5.181C17.559 5.515 17.423 5.938 17.136 6.231C16.954 6.418 16.748 6.534 16.536 6.607C16.462 6.758 16.426 6.837 16.399 6.913C16.169 7.542 16.232 8.241 16.57 8.82C16.63 8.922 16.709 9.029 16.942 9.339L17.345 9.877L17.388 9.934C17.797 10.479 18.061 10.831 18.255 11.222C18.451 11.617 18.591 12.036 18.671 12.469C18.75 12.898 18.75 13.338 18.75 14.02V16.055C18.75 17.423 18.75 18.525 18.633 19.392C18.512 20.292 18.254 21.05 17.652 21.652C17.05 22.254 16.292 22.513 15.392 22.633C14.526 22.75 13.424 22.75 12.058 22.75H11.942C10.576 22.75 9.474 22.75 8.608 22.633C7.708 22.513 6.95 22.254 6.348 21.652C5.746 21.05 5.488 20.292 5.367 19.392C5.25 18.525 5.25 17.423 5.25 16.055V14.092V14.02C5.25 13.338 5.25 12.898 5.329 12.469C5.409 12.036 5.549 11.617 5.745 11.222C5.939 10.831 6.203 10.479 6.612 9.934L6.655 9.877L7.058 9.339C7.291 9.029 7.37 8.922 7.429 8.82C7.768 8.241 7.831 7.542 7.601 6.913C7.574 6.837 7.538 6.758 7.464 6.607C7.252 6.534 7.046 6.418 6.864 6.231C6.577 5.938 6.441 5.515 6.368 5.181C6.287 4.814 6.25 4.4 6.25 4C6.25 3.6 6.287 3.186 6.368 2.819C6.441 2.485 6.577 2.062 6.864 1.769C7.169 1.457 7.542 1.342 7.894 1.294C8.212 1.25 8.602 1.25 9.023 1.25ZM9.12 6.75C9.364 7.703 9.226 8.72 8.724 9.577C8.616 9.763 8.481 9.942 8.285 10.204L8.258 10.239L7.855 10.777C7.389 11.399 7.214 11.636 7.089 11.889C6.955 12.159 6.859 12.446 6.804 12.742C6.753 13.02 6.75 13.314 6.75 14.092V16C6.75 17.435 6.752 18.437 6.853 19.192C6.952 19.926 7.132 20.314 7.409 20.591C7.686 20.868 8.074 21.048 8.808 21.147C9.563 21.248 10.565 21.25 12 21.25C13.435 21.25 14.436 21.248 15.192 21.147C15.926 21.048 16.314 20.868 16.591 20.591C16.868 20.314 17.048 19.926 17.147 19.192C17.248 18.437 17.25 17.435 17.25 16V14.092C17.25 13.314 17.247 13.02 17.196 12.742C17.141 12.446 17.045 12.159 16.911 11.889C16.786 11.636 16.611 11.399 16.145 10.777L15.742 10.239L15.715 10.204C15.519 9.942 15.384 9.763 15.276 9.577C14.774 8.72 14.635 7.703 14.88 6.75H9.12ZM7.939 2.816L7.937 2.822C7.924 2.847 7.877 2.939 7.833 3.141C7.78 3.38 7.75 3.683 7.75 4C7.75 4.317 7.78 4.62 7.833 4.859C7.877 5.061 7.924 5.153 7.937 5.178L7.939 5.184L7.943 5.185C7.961 5.193 8.006 5.208 8.098 5.22C8.302 5.248 8.586 5.25 9.068 5.25H14.932C15.414 5.25 15.698 5.248 15.902 5.22C15.994 5.208 16.038 5.193 16.057 5.185L16.06 5.184L16.063 5.178C16.076 5.153 16.123 5.061 16.167 4.859C16.22 4.62 16.25 4.317 16.25 4C16.25 3.683 16.22 3.38 16.167 3.141C16.123 2.939 16.076 2.847 16.063 2.822L16.06 2.816L16.057 2.815C16.038 2.807 15.994 2.792 15.902 2.78C15.698 2.752 15.414 2.75 14.932 2.75H9.068C8.586 2.75 8.302 2.752 8.098 2.78C8.006 2.792 7.961 2.807 7.943 2.815L7.939 2.816ZM11.25 13C11.25 12.586 11.586 12.25 12 12.25C12.414 12.25 12.75 12.586 12.75 13V14.75H14.5C14.914 14.75 15.25 15.086 15.25 15.5C15.25 15.914 14.914 16.25 14.5 16.25H12.75V18C12.75 18.414 12.414 18.75 12 18.75C11.586 18.75 11.25 18.414 11.25 18V16.25H9.5C9.086 16.25 8.75 15.914 8.75 15.5C8.75 15.086 9.086 14.75 9.5 14.75H11.25V13Z" fill="#141B34"/>
</svg>
