<svg width="24" height="24" viewBox="0 0 24 24" fill="none" xmlns="http://www.w3.org/2000/svg">
<path d="M17.094 4.903C16.98 5.047 16.839 5.255 16.621 5.576C16.388 5.919 15.922 6.008 15.579 5.776C15.236 5.543 15.147 5.077 15.379 4.734L15.394 4.712C15.593 4.419 15.764 4.166 15.915 3.975C16.066 3.784 16.258 3.57 16.521 3.435C17.136 3.12 17.858 3.216 18.378 3.657C18.6 3.845 18.741 4.093 18.849 4.314C18.958 4.536 19.075 4.823 19.211 5.157L22.695 13.717C22.794 13.962 22.755 14.229 22.614 14.431L22.204 15.046C21.945 15.435 21.879 15.541 21.837 15.649C21.812 15.711 21.793 15.775 21.778 15.84C21.754 15.953 21.75 16.078 21.75 16.546V16.583C21.75 17.232 21.75 17.773 21.707 18.212C21.661 18.671 21.563 19.098 21.314 19.486C21.1 19.818 20.818 20.1 20.486 20.314C20.098 20.563 19.671 20.661 19.212 20.707C18.773 20.75 18.232 20.75 17.583 20.75H16.475C16.03 20.75 15.659 20.75 15.355 20.729C15.038 20.708 14.738 20.661 14.448 20.541C13.774 20.262 13.238 19.726 12.959 19.052C12.839 18.762 12.792 18.462 12.771 18.145C12.75 17.841 12.75 17.47 12.75 17.025V16.975C12.75 16.599 12.75 16.275 12.763 16H12.75C12.75 15.586 12.414 15.25 12 15.25C11.586 15.25 11.25 15.586 11.25 16H11.237C11.25 16.275 11.25 16.599 11.25 16.975V17.025C11.25 17.47 11.25 17.841 11.229 18.145C11.208 18.462 11.161 18.762 11.041 19.052C10.762 19.726 10.226 20.262 9.552 20.541C9.262 20.661 8.962 20.708 8.645 20.729C8.341 20.75 7.97 20.75 7.525 20.75H6.417C5.768 20.75 5.227 20.75 4.788 20.707C4.329 20.661 3.902 20.563 3.514 20.314C3.182 20.1 2.9 19.818 2.686 19.486C2.437 19.098 2.339 18.671 2.293 18.212C2.25 17.773 2.25 17.232 2.25 16.584V16.546C2.25 16.078 2.246 15.953 2.222 15.84C2.207 15.775 2.188 15.711 2.163 15.649C2.121 15.541 2.055 15.435 1.796 15.046L1.376 14.416C1.294 14.293 1.252 14.152 1.25 14.009V13.993C1.25 13.985 1.25 13.977 1.251 13.97C1.254 13.878 1.275 13.787 1.312 13.7L4.789 5.158C4.926 4.823 5.042 4.536 5.151 4.314C5.259 4.093 5.401 3.845 5.623 3.657C6.143 3.216 6.865 3.12 7.479 3.435C7.743 3.57 7.935 3.784 8.085 3.975C8.236 4.166 8.407 4.419 8.606 4.712L8.621 4.734C8.853 5.077 8.764 5.543 8.421 5.776C8.078 6.008 7.612 5.919 7.38 5.576C7.162 5.255 7.02 5.047 6.907 4.903C6.833 4.81 6.795 4.774 6.784 4.765C6.728 4.74 6.663 4.744 6.599 4.795C6.593 4.803 6.56 4.848 6.498 4.973C6.415 5.143 6.318 5.381 6.169 5.747L3.115 13.25H7.525C7.97 13.25 8.341 13.25 8.645 13.271C8.962 13.292 9.262 13.339 9.552 13.459C9.965 13.63 10.325 13.897 10.607 14.233C10.99 13.931 11.474 13.75 12 13.75C12.526 13.75 13.01 13.931 13.393 14.233C13.675 13.897 14.035 13.63 14.448 13.459C14.738 13.339 15.038 13.292 15.355 13.271C15.659 13.25 16.03 13.25 16.475 13.25H20.885L17.831 5.747C17.683 5.381 17.585 5.143 17.502 4.973C17.441 4.848 17.407 4.804 17.401 4.796C17.337 4.745 17.272 4.74 17.216 4.765C17.206 4.774 17.167 4.81 17.094 4.903ZM8.543 14.767C8.296 14.75 7.976 14.75 7.5 14.75H3.388C3.455 14.866 3.513 14.98 3.56 15.1C3.613 15.237 3.656 15.378 3.687 15.522C3.75 15.812 3.75 16.107 3.75 16.482V16.546C3.75 17.241 3.751 17.708 3.786 18.065C3.82 18.41 3.88 18.57 3.948 18.676C4.045 18.826 4.174 18.955 4.324 19.052C4.43 19.12 4.59 19.18 4.935 19.214C5.292 19.249 5.759 19.25 6.454 19.25H7.5C7.976 19.25 8.296 19.25 8.543 19.233C8.784 19.216 8.901 19.187 8.978 19.155C9.285 19.028 9.528 18.785 9.655 18.478C9.687 18.401 9.716 18.284 9.733 18.043C9.75 17.796 9.75 17.476 9.75 17C9.75 16.524 9.75 16.204 9.733 15.957C9.716 15.716 9.687 15.599 9.655 15.522C9.528 15.215 9.285 14.972 8.978 14.845C8.901 14.813 8.784 14.784 8.543 14.767ZM15.457 14.767C15.216 14.784 15.099 14.813 15.022 14.845C14.715 14.972 14.472 15.215 14.345 15.522C14.313 15.599 14.284 15.716 14.267 15.957C14.25 16.204 14.25 16.524 14.25 17C14.25 17.476 14.25 17.796 14.267 18.043C14.284 18.284 14.313 18.401 14.345 18.478C14.472 18.785 14.715 19.028 15.022 19.155C15.099 19.187 15.216 19.216 15.457 19.233C15.704 19.25 16.024 19.25 16.5 19.25H17.546C18.241 19.25 18.708 19.249 19.065 19.214C19.41 19.18 19.57 19.12 19.676 19.052C19.826 18.955 19.955 18.826 20.052 18.676C20.12 18.57 20.18 18.41 20.214 18.065C20.249 17.708 20.25 17.241 20.25 16.546V16.481C20.25 16.107 20.25 15.812 20.313 15.522C20.344 15.378 20.386 15.237 20.44 15.1C20.487 14.98 20.545 14.866 20.612 14.75H16.5C16.024 14.75 15.704 14.75 15.457 14.767Z" fill="#141B34"/>
</svg>
