<svg width="24" height="24" viewBox="0 0 24 24" fill="none" xmlns="http://www.w3.org/2000/svg">
<path d="M11.665 1.32899C11.876 1.22399 12.125 1.22399 12.336 1.32899L12.34 1.33199C12.363 1.34299 12.416 1.37099 12.445 1.38699C12.509 1.42199 12.599 1.47199 12.706 1.53699C12.921 1.66499 13.213 1.85399 13.523 2.09499C13.984 2.45399 14.546 2.97399 14.927 3.63499C15.57 3.38599 16.269 3.24999 17 3.24999C17.414 3.24999 17.75 3.58599 17.75 3.99999V7.99999C17.75 10.921 15.571 13.334 12.75 13.701V16.757C13.988 15.228 15.88 14.25 18 14.25C18.414 14.25 18.75 14.586 18.75 15C18.75 15.414 18.414 15.75 18 15.75C15.101 15.75 12.75 18.101 12.75 21V22C12.75 22.414 12.414 22.75 12 22.75C11.586 22.75 11.25 22.414 11.25 22V21C11.25 18.101 8.899 15.75 6 15.75C5.586 15.75 5.25 15.414 5.25 15C5.25 14.586 5.586 14.25 6 14.25C8.12 14.25 10.012 15.228 11.25 16.757V13.701C8.429 13.334 6.25 10.921 6.25 7.99999V3.99999C6.25 3.58599 6.586 3.24999 7 3.24999C7.731 3.24999 8.43 3.38699 9.073 3.63499C9.454 2.97399 10.017 2.45399 10.477 2.09499C10.788 1.85399 11.08 1.66499 11.294 1.53699C11.402 1.47199 11.491 1.42199 11.555 1.38699C11.585 1.37099 11.638 1.34299 11.66 1.33199L11.665 1.32899ZM10.39 4.35499C10.615 4.51899 10.827 4.69899 11.025 4.89399C11.321 5.18399 11.325 5.65899 11.036 5.95399C10.746 6.24999 10.271 6.25499 9.975 5.96499C9.377 5.37899 8.608 4.96899 7.75 4.81599V7.99999C7.75 10.347 9.653 12.25 12 12.25C14.347 12.25 16.25 10.347 16.25 7.99999V4.81599C14.26 5.16999 12.75 6.90899 12.75 8.99999C12.75 9.41399 12.414 9.74999 12 9.74999C11.586 9.74999 11.25 9.41399 11.25 8.99999C11.25 7.09199 12.179 5.40099 13.61 4.35499C13.376 3.95999 13.002 3.59099 12.602 3.27999C12.38 3.10699 12.168 2.96599 12 2.86299C11.832 2.96599 11.62 3.10699 11.398 3.27999C10.998 3.59099 10.625 3.95999 10.39 4.35499Z" fill="#141B34"/>
</svg>
