<svg width="25" height="24" viewBox="0 0 25 24" fill="none" xmlns="http://www.w3.org/2000/svg">
<path d="M7.16797 22.75C6.09797 22.75 5.45297 22.75 4.93397 22.244L4.92497 22.235C4.41797 21.723 4.41797 21.075 4.41797 20V6C4.41797 3.975 4.41797 2.86 5.22997 2.054C6.02597 1.25 7.14197 1.25 9.16797 1.25H15.168C17.195 1.25 18.311 1.25 19.111 2.058C19.918 2.859 19.918 3.975 19.918 6V20C19.918 21.074 19.918 21.722 19.411 22.235L19.402 22.244C18.883 22.75 18.238 22.75 17.168 22.75H7.16797ZM5.91797 10.75V20C5.91797 20.497 5.91797 21.059 5.98897 21.176C6.09297 21.25 6.68797 21.25 7.16797 21.25H17.168C17.648 21.25 18.243 21.25 18.347 21.176C18.418 21.06 18.418 20.497 18.418 20V10.75H5.91797ZM5.91797 9.25H18.418V6C18.418 4.255 18.403 3.469 18.049 3.118C17.699 2.765 16.913 2.75 15.168 2.75H9.16797C7.42297 2.75 6.63597 2.765 6.29097 3.114C5.93297 3.47 5.91797 4.256 5.91797 6V9.25ZM7.17297 7C7.17297 6.448 7.61597 6 8.16797 6H8.17797C8.72997 6 9.17797 6.448 9.17797 7C9.17797 7.552 8.72997 8 8.17797 8C7.62597 8 7.17297 7.552 7.17297 7ZM8.17797 14C7.62597 14 7.17297 13.552 7.17297 13C7.17297 12.448 7.61597 12 8.16797 12H8.17797C8.72997 12 9.17797 12.448 9.17797 13C9.17797 13.552 8.72997 14 8.17797 14Z" fill="#141B34"/>
</svg>
