<svg width="24" height="24" viewBox="0 0 24 24" fill="none" xmlns="http://www.w3.org/2000/svg">
<path d="M4.92494 6.051C9.34093 4.983 14.6589 4.983 19.0749 6.051C20.1029 6.3 20.8959 7.043 21.2589 8.012C21.8429 9.572 22.5129 12.201 22.7399 15.761C22.9059 18.35 20.9809 19.706 19.2809 20.562C18.8229 20.793 18.3489 20.804 17.9169 20.634C17.5189 20.478 17.2029 20.188 16.9599 19.9C16.4779 19.327 16.1009 18.534 15.8299 17.924C15.6559 17.533 15.2779 17.286 14.8279 17.286H9.17193C8.72193 17.286 8.34393 17.533 8.16993 17.924C7.89993 18.534 7.52293 19.327 7.03993 19.9C6.79693 20.188 6.48194 20.478 6.08293 20.634C5.65093 20.804 5.17793 20.793 4.71993 20.562C3.03993 19.716 1.09393 18.369 1.25993 15.761C1.48693 12.201 2.15693 9.572 2.74093 8.012C3.10393 7.043 3.89693 6.3 4.92494 6.051ZM18.7219 7.509C14.5379 6.497 9.46194 6.497 5.27793 7.509C4.75993 7.635 4.34393 8.008 4.14593 8.538C3.61793 9.948 2.97593 12.431 2.75693 15.857C2.65393 17.463 3.76493 18.402 5.39493 19.223C5.46893 19.26 5.49793 19.253 5.53593 19.238C5.60693 19.21 5.72993 19.128 5.89293 18.934C6.22193 18.543 6.52593 17.932 6.79893 17.316C7.21993 16.369 8.14493 15.786 9.17193 15.786H14.8279C15.8559 15.786 16.7809 16.369 17.2009 17.316C17.4749 17.932 17.7779 18.543 18.1079 18.934C18.2709 19.128 18.3929 19.21 18.4649 19.238C18.5029 19.253 18.5309 19.26 18.6059 19.223C20.2489 18.395 21.3449 17.448 21.2429 15.857C21.0249 12.431 20.3819 9.948 19.8539 8.538C19.6559 8.008 19.2409 7.635 18.7219 7.509ZM9.52993 10.53L8.56093 11.5L9.52993 12.47C9.82294 12.763 9.82294 13.237 9.52993 13.53C9.23693 13.823 8.76294 13.823 8.46993 13.53L7.49993 12.561L6.52993 13.53C6.23693 13.823 5.76293 13.823 5.46993 13.53C5.17693 13.237 5.17693 12.763 5.46993 12.47L6.43893 11.5L5.46993 10.53C5.17693 10.237 5.17693 9.763 5.46993 9.47C5.76293 9.177 6.23693 9.177 6.52993 9.47L7.49993 10.439L8.46993 9.47C8.76294 9.177 9.23693 9.177 9.52993 9.47C9.82294 9.763 9.82294 10.237 9.52993 10.53ZM16.2729 3.818C16.3729 3.416 16.7799 3.172 17.1819 3.273L19.1819 3.773C19.5839 3.873 19.8279 4.28 19.7279 4.682C19.6269 5.084 19.2199 5.328 18.8179 5.228L16.8179 4.728C16.4159 4.627 16.1719 4.22 16.2729 3.818ZM7.68993 3.815C7.79193 4.216 7.54993 4.625 7.14793 4.727L5.18493 5.227C4.78393 5.329 4.37593 5.087 4.27293 4.685C4.17093 4.284 4.41393 3.876 4.81493 3.773L6.77793 3.273C7.17893 3.171 7.58793 3.414 7.68993 3.815ZM17.9879 12H17.9969C18.5489 12 18.9969 12.448 18.9969 13C18.9969 13.552 18.5489 14 17.9969 14H17.9879C17.4359 14 16.9879 13.552 16.9879 13C16.9879 12.448 17.4359 12 17.9879 12ZM14.9879 10C14.9879 9.448 15.4359 9 15.9879 9H15.9969C16.5489 9 16.9969 9.448 16.9969 10C16.9969 10.552 16.5489 11 15.9969 11H15.9879C15.4359 11 14.9879 10.552 14.9879 10Z" fill="#141B34"/>
</svg>
