<svg width="24" height="25" viewBox="0 0 24 25" fill="none" xmlns="http://www.w3.org/2000/svg">
<path fill-rule="evenodd" clip-rule="evenodd" d="M3.99805 23.0215C3.58805 23.0215 3.24805 22.6815 3.24805 22.2715V12.7715C3.24805 12.2195 3.39484 11.6762 3.66289 11.204L3.41805 11.0815C3.10805 10.9115 2.74805 11.1615 2.74805 11.4915V15.2815C2.74805 15.6915 2.40805 16.0315 1.99805 16.0315V16.0215C1.58805 16.0215 1.24805 15.6815 1.24805 15.2715V11.4816C1.24805 10.4016 2.12805 9.52148 3.20805 9.52148C3.52805 9.52148 3.82805 9.59145 4.10805 9.74146L4.76475 10.0699C5.6432 9.53156 6.78684 9.4014 7.89805 9.73154C9.47805 10.2115 10.648 10.4415 12.358 9.30148L12.948 7.54147C13.588 5.62147 15.138 4.17153 17.108 3.60153L17.968 2.74143C18.258 2.45143 18.738 2.45143 19.028 2.74143C19.318 3.03143 19.318 3.51148 19.028 3.80148L18.028 4.80148C17.928 4.90148 17.808 4.96144 17.678 5.00144C16.108 5.39144 14.868 6.52145 14.378 8.01145L13.708 10.0114C13.658 10.1614 13.558 10.2914 13.438 10.3814C11.068 12.0714 9.33805 11.7415 7.46805 11.1715C6.62805 10.9215 5.74804 11.0915 5.23804 11.6015C4.92804 11.9115 4.74805 12.3415 4.74805 12.7815V22.2815C4.74805 22.6915 4.40805 23.0315 3.99805 23.0315V23.0215ZM20.4985 11.5214C20.2985 11.5214 20.1085 11.4415 19.9685 11.3015L18.6685 10.0014C18.3668 9.96475 18.0747 9.87563 17.8026 9.74257C17.5673 10.3059 17.5556 10.9505 17.788 11.5117C18.098 12.3017 18.178 13.1518 18.018 13.9718C17.808 15.0318 17.018 16.0317 16.238 16.6617V22.2817C16.238 22.6917 15.898 23.0317 15.488 23.0317L15.498 23.0217C15.088 23.0217 14.748 22.6817 14.748 22.2717V16.2717C14.748 16.0217 14.868 15.7917 15.078 15.6517C15.788 15.1717 16.418 14.3217 16.548 13.6717C16.658 13.1317 16.608 12.5817 16.398 12.0617C15.9587 10.9681 16.0524 9.73463 16.6381 8.72074C16.4926 8.50345 16.3739 8.26532 16.2885 8.01141C16.1585 7.62141 16.3685 7.19146 16.7585 7.06146C17.1485 6.93146 17.5785 7.14143 17.7085 7.53143C17.8985 8.09143 18.4485 8.52142 18.9985 8.52142C19.1985 8.52142 19.3885 8.60139 19.5285 8.74139L20.7585 9.96149C20.8785 9.91149 20.9985 9.83139 21.0985 9.74139L18.8685 6.17145C18.6485 5.82145 18.7585 5.36142 19.1085 5.14142C19.4585 4.92142 19.9185 5.03141 20.1385 5.38141L22.6385 9.38141C22.7785 9.60141 22.7885 9.88151 22.6785 10.1115C22.2585 10.9415 21.3685 11.5314 20.5085 11.5314L20.4985 11.5214ZM12.248 22.2715C12.248 22.6815 12.588 23.0215 12.998 23.0215C13.408 23.0215 13.748 22.6815 13.748 22.2715V15.7715C13.748 15.3615 13.408 15.0215 12.998 15.0215C12.588 15.0215 12.248 15.3615 12.248 15.7715V16.7514C10.8529 17.1999 9.62798 17.0112 8.92998 16.818C9.04693 16.5589 9.1487 16.271 9.22805 15.9516C9.32805 15.5516 9.07805 15.1416 8.67805 15.0416C8.26805 14.9416 7.86804 15.1916 7.76804 15.5916C7.37804 17.1416 6.29805 17.5516 6.25805 17.5616C5.95805 17.6616 5.74805 17.9516 5.74805 18.2716V22.2716C5.74805 22.6816 6.08805 23.0216 6.49805 23.0216C6.90805 23.0216 7.24805 22.6816 7.24805 22.2716V18.7316C7.48076 18.5943 7.76587 18.3915 8.05174 18.1037C8.52531 18.2729 9.40153 18.5218 10.5082 18.5218C11.0444 18.5218 11.6306 18.4634 12.248 18.3089V22.2715Z" fill="#141B34"/>
</svg>
