<svg width="24" height="24" viewBox="0 0 24 24" fill="none" xmlns="http://www.w3.org/2000/svg">
<path d="M12 1.25C14.234 1.25 16.15 2.715 16.685 4.745C18.436 5.233 19.75 6.784 19.75 8.667C19.75 10.378 18.667 11.813 17.153 12.428L16.371 14.978C15.64 17.36 15.069 19.223 14.497 20.484C14.208 21.121 13.891 21.669 13.507 22.066C13.104 22.481 12.605 22.75 12 22.75C11.396 22.75 10.896 22.481 10.493 22.066C10.11 21.669 9.793 21.121 9.504 20.484C8.931 19.223 8.36 17.36 7.629 14.978L6.783 12.22C6.78 12.209 6.776 12.197 6.774 12.186C5.279 11.405 4.25 9.887 4.25 8.111C4.25 5.964 5.759 4.191 7.768 3.646C8.597 2.208 10.19 1.25 12 1.25ZM8.951 4.618C8.849 4.835 8.649 4.99 8.414 5.035C6.868 5.332 5.75 6.619 5.75 8.111C5.75 9.811 7.207 11.25 9.083 11.25C10.074 11.25 10.957 10.844 11.563 10.208C11.362 9.733 11.25 9.212 11.25 8.667C11.25 8.252 11.586 7.917 12 7.917C12.414 7.917 12.75 8.252 12.75 8.667C12.75 9.123 12.875 9.551 13.098 9.925C13.563 10.706 14.457 11.25 15.5 11.25C17.054 11.25 18.25 10.059 18.25 8.667C18.25 7.7 17.677 6.833 16.805 6.392C16.746 6.923 16.592 7.428 16.361 7.89C16.177 8.261 15.726 8.412 15.356 8.227C14.985 8.042 14.834 7.591 15.019 7.221C15.221 6.816 15.333 6.366 15.333 5.889C15.333 5.749 15.324 5.612 15.305 5.477C15.095 3.966 13.72 2.75 12 2.75C10.625 2.75 9.463 3.53 8.951 4.618ZM8.505 12.717L9.044 14.476C9.798 16.933 10.342 18.702 10.87 19.864C11.133 20.445 11.365 20.809 11.571 21.022C11.758 21.215 11.889 21.25 12 21.25C12.112 21.25 12.243 21.215 12.43 21.022C12.635 20.809 12.867 20.445 13.131 19.864C13.658 18.702 14.202 16.933 14.956 14.476L15.486 12.75C14.282 12.746 13.188 12.26 12.413 11.474C11.543 12.267 10.368 12.75 9.083 12.75C8.888 12.75 8.695 12.739 8.505 12.717Z" fill="#141B34"/>
</svg>
