<svg width="25" height="24" viewBox="0 0 25 24" fill="none" xmlns="http://www.w3.org/2000/svg">
<path d="M3.41797 9C3.41797 5.278 6.44597 2.25 10.168 2.25C13.89 2.25 16.918 5.278 16.918 9V11.438C17.974 12.718 18.674 14.302 18.865 16.037C19.198 15.812 19.418 15.431 19.418 15V13C19.418 11.484 20.652 10.25 22.168 10.25C22.582 10.25 22.918 10.586 22.918 11C22.918 11.414 22.582 11.75 22.168 11.75C21.479 11.75 20.918 12.311 20.918 13V15C20.918 16.257 20.069 17.321 18.914 17.647C18.901 18.453 18.84 19.296 18.554 20.011C18.236 20.805 17.494 21.75 15.768 21.75H4.56797C2.84297 21.75 2.10097 20.804 1.78197 20.011C1.41797 19.103 1.41797 17.986 1.41797 17C1.41797 14.889 2.16897 12.951 3.41797 11.438V9ZM2.92997 17.75C3.00597 19.867 3.45097 20.25 4.56797 20.25H15.768C17.18 20.25 17.418 19.438 17.418 17C17.418 13.002 14.166 9.75 10.168 9.75C6.42297 9.75 3.33297 12.603 2.95597 16.25H12.168C12.582 16.25 12.918 16.586 12.918 17C12.918 17.414 12.582 17.75 12.168 17.75H2.92997ZM15.418 9C15.418 6.105 13.063 3.75 10.168 3.75C7.27297 3.75 4.91797 6.105 4.91797 9V10.004C5.66697 9.44 6.50997 8.994 7.41797 8.693V8C7.41797 6.484 8.65197 5.25 10.168 5.25C11.684 5.25 12.918 6.484 12.918 8V8.693C13.826 8.994 14.669 9.44 15.418 10.004V9ZM11.418 8C11.418 7.311 10.857 6.75 10.168 6.75C9.47897 6.75 8.91797 7.311 8.91797 8V8.339C9.32597 8.28 9.74397 8.25 10.168 8.25C10.592 8.25 11.01 8.28 11.418 8.339V8Z" fill="#141B34"/>
</svg>
