<svg width="24" height="24" viewBox="0 0 24 24" fill="none" xmlns="http://www.w3.org/2000/svg">
<path d="M12.5831 3.46902C14.1991 2.25502 16.8731 1.52702 19.8541 3.35502C21.9151 4.62002 23.0751 7.26102 22.6681 10.295C22.2591 13.344 20.2861 16.793 16.1061 19.886L16.0021 19.963C14.5511 21.038 13.5901 21.75 11.9991 21.75C10.4091 21.75 9.4481 21.038 7.9971 19.963L7.8931 19.886C3.7131 16.793 1.7401 13.344 1.3311 10.295C0.924096 7.26102 2.0831 4.62002 4.1451 3.35502C7.1261 1.52702 9.8001 2.25502 11.4151 3.46902C11.6811 3.66802 11.8641 3.80502 11.9991 3.89702C12.1351 3.80502 12.3181 3.66802 12.5831 3.46902ZM19.0701 4.63402C16.6881 3.17202 14.6811 3.76902 13.4841 4.66802L13.4631 4.68402C13.1931 4.88702 12.9611 5.06102 12.7751 5.18302C12.6781 5.24602 12.5711 5.31002 12.4601 5.36102C12.3551 5.40802 12.1931 5.46802 11.9991 5.46802C11.8061 5.46802 11.6441 5.40802 11.5381 5.36102C11.4271 5.31002 11.3211 5.24602 11.2241 5.18302C11.0381 5.06102 10.8061 4.88702 10.5361 4.68402L10.5151 4.66802C9.3181 3.76902 7.3111 3.17202 4.9291 4.63402C3.4711 5.52802 2.4731 7.52702 2.8171 10.096C3.1601 12.649 4.8471 15.766 8.7851 18.681C10.3671 19.852 10.9451 20.25 11.9991 20.25C13.0541 20.25 13.6321 19.852 15.2141 18.681C19.1521 15.766 20.8391 12.649 21.1811 10.096C21.5261 7.52702 20.5281 5.52802 19.0701 4.63402ZM11.2501 9.00102C11.2501 8.58702 11.5851 8.25102 12.0001 8.25102C12.4141 8.25102 12.7501 8.58702 12.7501 9.00102V11.251H15.0001C15.4141 11.251 15.7501 11.587 15.7501 12.001C15.7501 12.415 15.4141 12.751 15.0001 12.751H12.7501V15.001C12.7501 15.415 12.4141 15.751 12.0001 15.751C11.5851 15.751 11.2501 15.415 11.2501 15.001V12.751H9.0001C8.5851 12.751 8.2501 12.415 8.2501 12.001C8.2501 11.587 8.5851 11.251 9.0001 11.251H11.2501V9.00102ZM11.8441 3.99302C11.8401 3.99502 11.8401 3.99502 11.8431 3.99402L11.8441 3.99302ZM12.1581 3.99502L12.1551 3.99302L12.1561 3.99402C12.1581 3.99402 12.1581 3.99502 12.1581 3.99502Z" fill="#141B34"/>
</svg>
