<svg width="24" height="24" viewBox="0 0 24 24" fill="none" xmlns="http://www.w3.org/2000/svg">
<path d="M3 17.4C3 16.0136 3 15.3204 3.31206 14.8112C3.48667 14.5262 3.72624 14.2867 4.01118 14.1121C4.52041 13.8 5.21361 13.8 6.6 13.8C7.98639 13.8 8.67959 13.8 9.18882 14.1121C9.47376 14.2867 9.71333 14.5262 9.88794 14.8112C10.2 15.3204 10.2 16.0136 10.2 17.4C10.2 18.7864 10.2 19.4796 9.88794 19.9888C9.71333 20.2738 9.47376 20.5133 9.18882 20.6879C8.67959 21 7.98639 21 6.6 21C5.21361 21 4.52041 21 4.01118 20.6879C3.72624 20.5133 3.48667 20.2738 3.31206 19.9888C3 19.4796 3 18.7864 3 17.4Z" stroke="#14181F" stroke-width="1.5"/>
<path d="M13.8 17.4C13.8 16.0136 13.8 15.3204 14.1121 14.8112C14.2867 14.5262 14.5263 14.2867 14.8112 14.1121C15.3205 13.8 16.0137 13.8 17.4 13.8C18.7864 13.8 19.4796 13.8 19.9889 14.1121C20.2738 14.2867 20.5134 14.5262 20.688 14.8112C21 15.3204 21 16.0136 21 17.4C21 18.7864 21 19.4796 20.688 19.9888C20.5134 20.2738 20.2738 20.5133 19.9889 20.6879C19.4796 21 18.7864 21 17.4 21C16.0137 21 15.3205 21 14.8112 20.6879C14.5263 20.5133 14.2867 20.2738 14.1121 19.9888C13.8 19.4796 13.8 18.7864 13.8 17.4Z" stroke="#14181F" stroke-width="1.5"/>
<path d="M3 6.6C3 5.21361 3 4.52041 3.31206 4.01118C3.48667 3.72624 3.72624 3.48667 4.01118 3.31206C4.52041 3 5.21361 3 6.6 3C7.98639 3 8.67959 3 9.18882 3.31206C9.47376 3.48667 9.71333 3.72624 9.88794 4.01118C10.2 4.52041 10.2 5.21361 10.2 6.6C10.2 7.98639 10.2 8.67959 9.88794 9.18882C9.71333 9.47376 9.47376 9.71333 9.18882 9.88794C8.67959 10.2 7.98639 10.2 6.6 10.2C5.21361 10.2 4.52041 10.2 4.01118 9.88794C3.72624 9.71333 3.48667 9.47376 3.31206 9.18882C3 8.67959 3 7.98639 3 6.6Z" stroke="#14181F" stroke-width="1.5"/>
<path d="M13.8 6.6C13.8 5.21361 13.8 4.52041 14.1121 4.01118C14.2867 3.72624 14.5263 3.48667 14.8112 3.31206C15.3205 3 16.0137 3 17.4 3C18.7864 3 19.4796 3 19.9889 3.31206C20.2738 3.48667 20.5134 3.72624 20.688 4.01118C21 4.52041 21 5.21361 21 6.6C21 7.98639 21 8.67959 20.688 9.18882C20.5134 9.47376 20.2738 9.71333 19.9889 9.88794C19.4796 10.2 18.7864 10.2 17.4 10.2C16.0137 10.2 15.3205 10.2 14.8112 9.88794C14.5263 9.71333 14.2867 9.47376 14.1121 9.18882C13.8 8.67959 13.8 7.98639 13.8 6.6Z" stroke="#14181F" stroke-width="1.5"/>
</svg>
