<svg width="24" height="24" viewBox="0 0 24 24" fill="none" xmlns="http://www.w3.org/2000/svg">
<path d="M20.25 8.25601C18.475 9.17001 15.193 10.59 10.75 10.736V18.499C10.75 20.846 8.847 22.749 6.5 22.749C4.153 22.749 2.25 20.846 2.25 18.499C2.25 16.152 4.153 14.249 6.5 14.249C7.549 14.249 8.509 14.629 9.25 15.258V10.002V9.99901V9.99601V6.99901V6.95701C9.25 6.53101 9.25 6.14501 9.289 5.83201C9.33 5.49301 9.429 5.12701 9.711 4.81901C10 4.50501 10.372 4.37901 10.712 4.30901C11.033 4.24401 11.439 4.20901 11.894 4.17001L11.935 4.16701C15.828 3.83501 18.608 2.56601 19.975 1.76201L20.001 1.74601C20.125 1.67401 20.276 1.58501 20.41 1.52901C20.541 1.47401 20.899 1.34101 21.272 1.55401C21.64 1.76501 21.71 2.13401 21.73 2.27801C21.75 2.42201 21.75 2.59401 21.75 2.73301V6.98401C21.75 6.99335 21.75 7.00268 21.75 7.01201V15.999C21.75 18.07 20.071 19.749 18 19.749C15.929 19.749 14.25 18.07 14.25 15.999C14.25 13.928 15.929 12.249 18 12.249C18.844 12.249 19.623 12.528 20.25 12.998V8.25601ZM20.25 6.55601V3.32801C18.618 4.20601 15.813 5.34201 12.062 5.66201C11.553 5.70501 11.237 5.73301 11.012 5.77901C10.891 5.80401 10.836 5.82701 10.816 5.83701C10.807 5.85701 10.791 5.90801 10.777 6.01601C10.751 6.22601 10.75 6.51801 10.75 6.99901V9.23601C15.498 9.06801 18.807 7.34801 20.25 6.55601ZM3.75 18.499C3.75 20.017 4.981 21.249 6.5 21.249C8.019 21.249 9.25 20.017 9.25 18.499C9.25 16.98 8.019 15.749 6.5 15.749C4.981 15.749 3.75 16.98 3.75 18.499ZM15.75 15.999C15.75 17.241 16.757 18.249 18 18.249C19.243 18.249 20.25 17.241 20.25 15.999C20.25 14.756 19.243 13.749 18 13.749C16.757 13.749 15.75 14.756 15.75 15.999ZM10.821 5.82601L10.818 5.83101C10.821 5.82801 10.822 5.82601 10.821 5.82601Z" fill="#141B34"/>
</svg>
