<svg width="24" height="24" viewBox="0 0 24 24" fill="none" xmlns="http://www.w3.org/2000/svg">
<path d="M6.889 1.25H14H14.111C14.747 1.25 15.222 1.249 15.631 1.37C16.594 1.652 17.348 2.406 17.631 3.369C17.707 3.629 17.735 3.915 17.745 4.251C17.953 4.254 18.141 4.259 18.308 4.271C18.607 4.293 18.896 4.342 19.177 4.469C19.985 4.834 20.392 5.467 20.58 6.139C20.751 6.748 20.751 7.424 20.75 7.963V8.13C20.751 8.964 20.751 9.555 20.584 10.073C20.29 10.983 19.564 11.587 18.802 12.007C18.035 12.429 17.123 12.722 16.288 12.959C15.017 13.319 14.723 13.436 14.503 13.728C14.399 13.865 14.333 14.023 14.294 14.314C14.262 14.559 14.253 14.859 14.251 15.276C14.385 15.293 14.527 15.324 14.67 15.383C15.099 15.561 15.439 15.901 15.617 16.33C15.699 16.529 15.727 16.724 15.739 16.902C15.75 17.067 15.75 17.264 15.75 17.478V20.522C15.75 20.736 15.75 20.933 15.739 21.098C15.727 21.276 15.699 21.471 15.617 21.67C15.439 22.098 15.099 22.439 14.67 22.617C14.471 22.699 14.276 22.727 14.098 22.739C13.933 22.75 13.736 22.75 13.522 22.75H13.478C13.264 22.75 13.067 22.75 12.902 22.739C12.724 22.727 12.529 22.699 12.33 22.617C11.901 22.439 11.561 22.098 11.383 21.67C11.301 21.471 11.273 21.276 11.261 21.098C11.25 20.933 11.25 20.736 11.25 20.522V17.478C11.25 17.264 11.25 17.067 11.261 16.902C11.273 16.724 11.301 16.529 11.383 16.33C11.561 15.901 11.901 15.561 12.33 15.383C12.474 15.324 12.616 15.293 12.751 15.276C12.753 14.84 12.762 14.453 12.807 14.116C12.87 13.646 13.005 13.221 13.306 12.823C13.865 12.084 14.695 11.849 15.715 11.562L15.879 11.516C16.699 11.283 17.471 11.027 18.079 10.693C18.691 10.356 19.032 9.997 19.156 9.612C19.242 9.348 19.25 9.016 19.25 8.004C19.25 7.409 19.245 6.932 19.136 6.544C19.04 6.203 18.881 5.981 18.559 5.836C18.504 5.811 18.41 5.783 18.197 5.767C18.072 5.758 17.926 5.753 17.744 5.752C17.735 6.087 17.707 6.372 17.631 6.631C17.348 7.594 16.594 8.348 15.631 8.631C15.222 8.751 14.747 8.751 14.111 8.75H14H7H6.889C6.254 8.751 5.778 8.751 5.369 8.631C4.406 8.348 3.652 7.594 3.37 6.631C3.249 6.222 3.25 5.746 3.25 5.112V5V4.889C3.25 4.254 3.249 3.778 3.37 3.369C3.652 2.406 4.406 1.652 5.369 1.37C5.778 1.249 6.254 1.25 6.889 1.25ZM7 2.75C6.203 2.75 5.966 2.758 5.792 2.809C5.318 2.948 4.948 3.318 4.809 3.792C4.758 3.966 4.75 4.203 4.75 5C4.75 5.797 4.758 6.035 4.809 6.209C4.948 6.682 5.318 7.052 5.792 7.191C5.966 7.242 6.203 7.25 7 7.25H14C14.797 7.25 15.035 7.242 15.209 7.191C15.682 7.052 16.052 6.682 16.191 6.209C16.242 6.035 16.25 5.797 16.25 5C16.25 4.203 16.242 3.966 16.191 3.792C16.052 3.318 15.682 2.948 15.209 2.809C15.035 2.758 14.797 2.75 14 2.75H7ZM12.901 16.77C12.842 16.796 12.796 16.843 12.77 16.901C12.768 16.909 12.762 16.937 12.758 17.004C12.75 17.112 12.75 17.257 12.75 17.5V20.5C12.75 20.743 12.75 20.888 12.758 20.996C12.762 21.063 12.768 21.091 12.77 21.099C12.796 21.157 12.842 21.204 12.901 21.23C12.909 21.232 12.937 21.238 13.004 21.242C13.112 21.25 13.257 21.25 13.5 21.25C13.743 21.25 13.888 21.25 13.996 21.242C14.063 21.238 14.091 21.232 14.099 21.23C14.158 21.204 14.204 21.157 14.23 21.099C14.232 21.091 14.238 21.063 14.242 20.996C14.25 20.888 14.25 20.743 14.25 20.5V17.5C14.25 17.257 14.25 17.112 14.242 17.004C14.238 16.937 14.232 16.909 14.23 16.901C14.204 16.843 14.158 16.796 14.099 16.77C14.091 16.768 14.063 16.762 13.996 16.758C13.888 16.75 13.743 16.75 13.5 16.75C13.257 16.75 13.112 16.75 13.004 16.758C12.937 16.762 12.909 16.768 12.901 16.77Z" fill="#141B34"/>
</svg>
