<svg width="24" height="24" viewBox="0 0 24 24" fill="none" xmlns="http://www.w3.org/2000/svg">
<path d="M10.444 1.25H11.556C13.394 1.25 14.85 1.25 15.989 1.403C17.161 1.561 18.11 1.893 18.859 2.641C19.607 3.39 19.939 4.339 20.097 5.511C20.25 6.649 20.25 8.104 20.25 9.94V11C20.25 11.414 19.914 11.75 19.5 11.75C19.086 11.75 18.75 11.414 18.75 11V10C18.75 8.093 18.748 6.739 18.61 5.711C18.475 4.705 18.221 4.125 17.798 3.702C17.375 3.279 16.795 3.025 15.789 2.89C14.761 2.752 13.407 2.75 11.5 2.75H10.5C8.593 2.75 7.239 2.752 6.211 2.89C5.205 3.025 4.625 3.279 4.202 3.702C3.779 4.125 3.525 4.705 3.39 5.711C3.252 6.738 3.25 8.093 3.25 10V14C3.25 15.907 3.252 17.261 3.39 18.289C3.525 19.295 3.779 19.875 4.202 20.298C4.625 20.721 5.205 20.975 6.211 21.11C7.238 21.248 8.593 21.25 10.5 21.25C10.914 21.25 11.25 21.586 11.25 22C11.25 22.414 10.914 22.75 10.5 22.75H10.444C8.606 22.75 7.15 22.75 6.011 22.597C4.838 22.439 3.89 22.107 3.141 21.359C2.393 20.61 2.061 19.661 1.903 18.489C1.75 17.35 1.75 15.894 1.75 14.057V14.056V9.944C1.75 8.106 1.75 6.65 1.903 5.511C2.061 4.339 2.393 3.39 3.141 2.641C3.89 1.893 4.839 1.561 6.011 1.403C7.15 1.25 8.606 1.25 10.444 1.25ZM20.19 13.432C20.452 13.562 20.675 13.786 20.888 14L20.944 14.056L21 14.113C21.214 14.325 21.438 14.548 21.568 14.81C21.811 15.3 21.811 15.876 21.568 16.366C21.438 16.628 21.214 16.851 21 17.063L20.944 17.12L16.12 21.944L16.064 22C15.834 22.232 15.586 22.481 15.259 22.617C14.932 22.752 14.58 22.751 14.254 22.75H14.174H13C12.586 22.75 12.25 22.414 12.25 22V20.827V20.747C12.249 20.42 12.248 20.069 12.384 19.742C12.519 19.415 12.769 19.167 13 18.937L13.057 18.88L17.88 14.056L17.937 14C18.15 13.786 18.372 13.562 18.634 13.432C19.124 13.189 19.7 13.189 20.19 13.432ZM6.25 7C6.25 6.586 6.586 6.25 7 6.25H15C15.414 6.25 15.75 6.586 15.75 7C15.75 7.414 15.414 7.75 15 7.75H7C6.586 7.75 6.25 7.414 6.25 7ZM6.25 12C6.25 11.586 6.586 11.25 7 11.25H15C15.414 11.25 15.75 11.586 15.75 12C15.75 12.414 15.414 12.75 15 12.75H7C6.586 12.75 6.25 12.414 6.25 12ZM19.236 14.83C19.169 14.89 19.083 14.974 18.941 15.117L14.117 19.941C13.965 20.093 13.88 20.179 13.821 20.248C13.795 20.278 13.781 20.297 13.775 20.306C13.772 20.311 13.771 20.313 13.77 20.315L13.769 20.316C13.769 20.317 13.768 20.321 13.767 20.326C13.764 20.338 13.761 20.36 13.758 20.4C13.751 20.491 13.75 20.611 13.75 20.827V21.25H14.174C14.389 21.25 14.51 21.25 14.6 21.243C14.641 21.24 14.663 21.236 14.674 21.234C14.676 21.233 14.677 21.233 14.679 21.233C14.681 21.232 14.683 21.232 14.683 21.231H14.685L14.686 21.23C14.687 21.23 14.69 21.228 14.694 21.225C14.704 21.219 14.722 21.206 14.753 21.18C14.822 21.12 14.907 21.035 15.06 20.883L19.883 16.059C20.026 15.917 20.111 15.832 20.17 15.764C20.208 15.722 20.222 15.702 20.225 15.697C20.259 15.628 20.259 15.548 20.225 15.479C20.222 15.474 20.208 15.454 20.17 15.412C20.111 15.344 20.026 15.259 19.883 15.117C19.741 14.974 19.656 14.89 19.589 14.83C19.546 14.792 19.526 14.778 19.521 14.775C19.452 14.742 19.372 14.742 19.303 14.775C19.298 14.778 19.278 14.792 19.236 14.83Z" fill="#141B34"/>
</svg>
