<svg width="24" height="24" viewBox="0 0 24 24" fill="none" xmlns="http://www.w3.org/2000/svg">
<path d="M15.2039 1.794C16.3889 1.09 17.8499 1.068 19.0539 1.737C19.5539 2.014 20.0099 2.48 20.6879 3.173L20.7809 3.268L20.8719 3.361C21.5519 4.056 22.0079 4.521 22.2779 5.029C22.9269 6.248 22.9049 7.723 22.2219 8.922C21.9369 9.422 21.4679 9.873 20.7679 10.547L20.6739 10.637L11.2709 19.694L11.1499 19.811C9.76888 21.142 8.91788 21.962 7.84088 22.382C6.76188 22.804 5.58988 22.773 3.69188 22.723L3.52588 22.718L3.20488 22.71C2.92688 22.703 2.64588 22.695 2.41388 22.657C2.14788 22.612 1.83088 22.51 1.58088 22.226C1.33288 21.944 1.26888 21.619 1.25388 21.352C1.24088 21.115 1.26288 20.832 1.28488 20.547L1.31488 20.161L1.32588 20.022C1.45488 18.359 1.53388 17.343 1.93588 16.419C2.33788 15.494 3.02388 14.751 4.14388 13.538L4.23788 13.436L13.5229 3.377L13.6129 3.279C14.2699 2.566 14.7119 2.087 15.2039 1.794ZM5.33988 14.453C4.09588 15.801 3.59988 16.353 3.31088 17.017C3.02188 17.682 2.95488 18.431 2.81088 20.278L2.78388 20.624C2.76188 20.898 2.74988 21.068 2.74988 21.188C2.78788 21.192 2.83388 21.195 2.89088 21.198C2.99888 21.204 3.12488 21.207 3.28488 21.212L3.56488 21.219C5.68488 21.274 6.53288 21.283 7.29488 20.985C8.05888 20.687 8.68788 20.1 10.2299 18.614L18.5449 10.606L13.5249 5.586L5.33988 14.453ZM18.3259 3.048C17.5879 2.638 16.6969 2.652 15.9709 3.084C15.6919 3.249 15.4069 3.547 14.6249 4.394L14.5429 4.483L19.6249 9.565L19.6339 9.557C20.4619 8.759 20.7549 8.466 20.9189 8.179C21.3469 7.427 21.3609 6.498 20.9539 5.733C20.7979 5.441 20.5139 5.14 19.7089 4.317C18.9029 3.494 18.6089 3.205 18.3259 3.048ZM13.9999 21.25H21.9999C22.4139 21.25 22.7499 21.586 22.7499 22C22.7499 22.414 22.4139 22.75 21.9999 22.75H13.9999C13.5859 22.75 13.2499 22.414 13.2499 22C13.2499 21.586 13.5859 21.25 13.9999 21.25Z" fill="#141B34"/>
</svg>
