<svg width="24" height="24" viewBox="0 0 24 24" fill="none" xmlns="http://www.w3.org/2000/svg">
<path d="M3.44593 11.326C0.803932 8.68499 1.26893 3.20499 1.29093 2.97299C1.32393 2.61299 1.60893 2.32699 1.96993 2.29399C2.20193 2.27299 7.68193 1.80699 10.3229 4.44999C11.4089 5.53499 11.9219 7.09099 11.6929 8.61299C11.6309 9.02299 11.2489 9.30499 10.8399 9.24299C10.4299 9.18199 10.1479 8.79999 10.2099 8.38999C10.3679 7.33799 10.0139 6.26099 9.26293 5.51099C8.16993 4.41799 6.31493 4.00399 4.95093 3.84999C4.07293 3.75099 3.27893 3.74399 2.75293 3.75699C2.73993 4.28199 2.74693 5.07699 2.84593 5.95499C2.99993 7.31899 3.41293 9.17399 4.50593 10.266C5.51593 11.277 7.05093 11.519 8.30493 10.937C6.95393 8.82399 5.60893 7.65699 5.52093 7.58099C5.51793 7.57899 5.51693 7.57699 5.51593 7.57699C5.19893 7.31099 5.15693 6.83799 5.42193 6.52099C5.68693 6.20399 6.15893 6.16099 6.47693 6.42499C6.54193 6.47899 8.08593 7.77899 9.63093 10.226C9.72893 10.381 9.82793 10.543 9.92793 10.711C9.93393 10.719 9.93993 10.726 9.94593 10.734C9.98693 10.789 10.0199 10.848 10.0439 10.91C10.8339 12.28 11.6489 14.066 12.1749 16.22C12.6349 15.061 13.2619 13.941 14.0489 12.879C12.8269 11.15 13.0019 8.76799 14.5399 7.22999C16.9149 4.85399 21.8249 5.27099 22.0319 5.28899C22.3929 5.32199 22.6779 5.60699 22.7109 5.96799C22.7299 6.17599 23.1459 11.085 20.7699 13.46C19.9449 14.286 18.8179 14.751 17.6529 14.751C17.5909 14.751 17.5289 14.751 17.4669 14.748C17.0529 14.73 16.7319 14.381 16.7499 13.967C16.7669 13.564 17.0989 13.249 17.4989 13.249H17.5309C18.3449 13.284 19.1359 12.974 19.7099 12.4C20.6639 11.446 21.0269 9.81799 21.1619 8.61899C21.2449 7.88499 21.2549 7.21599 21.2469 6.75299C20.7839 6.74399 20.1159 6.75399 19.3809 6.83799C18.1829 6.97399 16.5549 7.33599 15.6009 8.28999C14.6909 9.19899 14.5049 10.557 15.0559 11.649C16.3689 10.193 17.5249 9.41399 17.5819 9.37599C17.9269 9.14599 18.3919 9.23899 18.6219 9.58399C18.8519 9.92799 18.7589 10.394 18.4149 10.624C18.3449 10.671 12.7479 14.509 12.7479 21C12.7479 21.22 12.6529 21.418 12.5019 21.556C12.3689 21.677 12.1919 21.751 11.9979 21.751H11.9969V21.752C11.5829 21.752 11.2469 21.416 11.2469 21.002C11.2469 17.306 10.1739 14.328 9.06393 12.236C8.38093 12.577 7.63593 12.745 6.89193 12.745C5.63493 12.745 4.38393 12.265 3.44593 11.326Z" fill="#141B34"/>
</svg>
