<svg width="24" height="24" viewBox="0 0 24 24" fill="none" xmlns="http://www.w3.org/2000/svg">
<path d="M11.6199 5.51599C12.3079 6.33199 13.1939 7.05799 14.1819 7.75699L14.4699 7.46999C14.7629 7.17699 15.2369 7.17699 15.5299 7.46999C15.8229 7.76299 15.8229 8.23699 15.5299 8.52999L15.4479 8.61199C15.7239 8.79199 16.0039 8.97199 16.2859 9.15299L16.4699 8.96999C16.7629 8.67699 17.2369 8.67699 17.5299 8.96999C17.8079 9.24699 17.8219 9.68799 17.5739 9.98199C19.6259 11.323 21.7069 12.84 22.5569 14.937C22.7869 15.502 22.8069 16.063 22.6419 16.578C22.4799 17.081 22.1589 17.489 21.7859 17.802C21.0549 18.416 20.0219 18.75 19.1009 18.75H7.8969C6.4859 18.75 5.3349 18.75 4.4279 18.6C3.4679 18.442 2.6819 18.101 2.0819 17.351C1.5169 16.645 1.3009 15.712 1.2579 14.777C1.2149 13.83 1.3459 12.791 1.5629 11.785C1.9959 9.77599 2.7969 7.76599 3.4189 6.63799C3.5739 6.35799 3.8879 6.20699 4.2029 6.26099C4.5179 6.31499 4.7639 6.56199 4.8159 6.87799C4.9319 7.57699 5.5979 8.05799 6.7949 8.28899C7.5519 8.43399 8.3699 8.44199 9.0279 8.38899C8.8519 7.64199 8.9589 7.00299 9.2949 6.47399C9.6969 5.83799 10.3549 5.50799 10.6749 5.34699L10.7089 5.32999C11.0189 5.17399 11.3959 5.25099 11.6199 5.51599ZM16.4929 11.068L16.0299 11.53C15.7369 11.823 15.2629 11.823 14.9699 11.53C14.6769 11.237 14.6769 10.763 14.9699 10.47L15.1999 10.24C14.9219 10.061 14.6419 9.88099 14.3639 9.69699L14.0299 10.03C13.7369 10.323 13.2629 10.323 12.9699 10.03C12.6769 9.73699 12.6769 9.26299 12.9699 8.96999L13.1069 8.83199C12.3029 8.24899 11.5419 7.62799 10.8919 6.94899C10.7549 7.04499 10.6419 7.14999 10.5619 7.27599C10.4499 7.45299 10.3069 7.82999 10.7219 8.66699C10.8249 8.87299 10.8269 9.11499 10.7279 9.32299C10.6289 9.53099 10.4389 9.68199 10.2149 9.73199C9.3809 9.91899 7.8819 10.025 6.5119 9.76199C5.6919 9.60399 4.7709 9.27899 4.1249 8.64599C3.7139 9.62899 3.2959 10.865 3.0299 12.101C2.9279 12.573 2.8499 13.037 2.8029 13.48C6.5719 14.731 8.8729 15.013 11.7949 14.089L11.8139 14.083C12.2969 13.931 12.6839 13.808 12.9899 13.727C13.2859 13.649 13.5909 13.585 13.8789 13.605C14.1789 13.625 14.5269 13.759 14.8669 13.903C15.2349 14.058 15.7209 14.285 16.3419 14.574L16.3569 14.582C17.6239 15.172 19.2449 15.521 20.9179 14.986C20.1199 13.566 18.5159 12.382 16.5729 11.12C16.5459 11.103 16.5199 11.086 16.4929 11.068ZM2.7829 15.052C2.8489 15.661 3.0129 16.114 3.2539 16.414C3.5479 16.782 3.9419 17 4.6729 17.12C5.4429 17.248 6.4699 17.25 7.9629 17.25H19.1009C19.7059 17.25 20.3879 17.018 20.8219 16.653C20.8679 16.615 20.9099 16.576 20.9469 16.537C18.9729 17.035 17.1139 16.589 15.7229 15.941C15.0839 15.643 14.6229 15.428 14.2829 15.284C14.1129 15.212 13.9879 15.164 13.8939 15.134C13.8189 15.109 13.7829 15.103 13.7749 15.101C13.7479 15.1 13.6449 15.106 13.3729 15.177C13.1069 15.248 12.7529 15.359 12.2469 15.519C9.0229 16.539 6.4419 16.227 2.7829 15.052Z" fill="#141B34"/>
</svg>
