<svg width="24" height="24" viewBox="0 0 24 24" fill="none" xmlns="http://www.w3.org/2000/svg">
<path d="M10.9999 20.332C10.9389 20.755 10.8619 21.143 10.7379 21.472C10.6119 21.811 10.4209 22.131 10.1079 22.368C9.79589 22.606 9.43689 22.704 9.07689 22.737C8.72689 22.768 8.33289 22.74 7.90889 22.688L3.69989 22.163C2.93289 22.067 2.15989 21.913 1.68789 21.339C1.21589 20.763 1.21789 19.975 1.27689 19.203L2.01689 9.612C2.06989 8.922 2.10189 8.511 2.18389 8.105C2.29189 7.567 2.49389 7.074 2.66789 6.652L2.68189 6.619C2.85889 6.191 3.00689 5.834 3.09289 5.465C3.16689 5.148 3.16189 4.83 3.15589 4.419C3.15389 4.295 3.15189 4.162 3.15189 4.019C3.15189 3.584 3.17389 3.184 3.25089 2.836C3.32889 2.479 3.47589 2.131 3.75789 1.851C4.03989 1.57 4.38789 1.425 4.74489 1.347C5.09289 1.271 5.49189 1.25 5.92689 1.25H18.0749C18.5089 1.25 18.9089 1.271 19.2569 1.347C19.6129 1.425 19.9619 1.57 20.2439 1.851C20.5249 2.131 20.6719 2.479 20.7509 2.836C20.8279 3.184 20.8499 3.584 20.8499 4.019C20.8499 4.162 20.8479 4.295 20.8459 4.419C20.8399 4.83 20.8349 5.148 20.9089 5.465C20.9949 5.834 21.1419 6.191 21.3189 6.619L21.3329 6.652C21.5069 7.074 21.7089 7.567 21.8169 8.105C22.1859 9.935 22.3429 11.828 22.4419 13.696C22.4789 14.385 22.5079 15.064 22.5369 15.737C22.5869 16.91 22.6359 18.062 22.7239 19.203C22.7839 19.975 22.7849 20.763 22.3129 21.339C21.8419 21.913 21.0689 22.067 20.3019 22.163L16.0919 22.688C15.6679 22.74 15.2749 22.768 14.9239 22.737C14.5649 22.704 14.2059 22.606 13.8939 22.368C13.5809 22.131 13.3899 21.811 13.2629 21.472C13.1389 21.143 13.0619 20.755 13.0019 20.332L12.3449 15.75H11.6559L10.9999 20.332ZM16.2549 5.75H7.74489C7.72489 6.705 7.63189 7.941 7.19589 9.032C6.90789 9.752 6.45789 10.446 5.75089 10.955C5.11689 11.413 4.32389 11.688 3.35789 11.741L2.77289 19.318C2.70989 20.14 2.80189 20.331 2.84789 20.387C2.89489 20.444 3.06689 20.572 3.88589 20.674L8.09489 21.199C8.48689 21.248 8.75389 21.26 8.94289 21.243C9.12289 21.226 9.18189 21.188 9.19989 21.174C9.21889 21.16 9.27089 21.115 9.33389 20.946C9.39989 20.77 9.45889 20.51 9.51489 20.119L10.1749 15.509C9.94589 15.405 9.74189 15.271 9.55289 15.118C9.33889 14.944 9.14889 14.75 8.97889 14.569C8.92589 14.513 8.87589 14.459 8.82689 14.406C8.70889 14.278 8.59589 14.157 8.46989 14.03C8.17689 13.737 8.17689 13.263 8.46989 12.97C8.76289 12.677 9.23689 12.677 9.52989 12.97C9.67789 13.118 9.81989 13.27 9.94489 13.405C9.98989 13.453 10.0319 13.499 10.0719 13.542C10.2329 13.713 10.3659 13.846 10.4969 13.952C10.7309 14.142 10.9609 14.25 11.3279 14.25H12.6719C13.0389 14.25 13.2689 14.142 13.5029 13.952C13.6339 13.846 13.7669 13.713 13.9279 13.542C13.9679 13.499 14.0099 13.453 14.0549 13.405C14.1799 13.27 14.3219 13.118 14.4699 12.97C14.7629 12.677 15.2369 12.677 15.5299 12.97C15.8229 13.263 15.8229 13.737 15.5299 14.03C15.4039 14.157 15.2909 14.278 15.1729 14.406C15.1239 14.459 15.0739 14.513 15.0209 14.569C14.8509 14.75 14.6609 14.944 14.4469 15.118C14.2589 15.27 14.0539 15.404 13.8259 15.509L14.4869 20.119C14.5429 20.51 14.6019 20.77 14.6679 20.946C14.7309 21.115 14.7829 21.16 14.8009 21.174C14.8189 21.188 14.8779 21.226 15.0589 21.243C15.2479 21.26 15.5149 21.248 15.9069 21.199L20.1159 20.674C20.9349 20.572 21.1069 20.444 21.1539 20.387C21.1989 20.331 21.2919 20.14 21.2289 19.318C21.1389 18.155 21.0869 16.954 21.0359 15.76C21.0079 15.094 20.9789 14.429 20.9439 13.776C20.9079 13.094 20.8639 12.417 20.8059 11.747C19.7649 11.718 18.9189 11.438 18.2489 10.955C17.5419 10.446 17.0919 9.752 16.8039 9.032C16.3679 7.941 16.2749 6.705 16.2549 5.75ZM4.71489 3.16C4.67389 3.347 4.65189 3.617 4.65189 4.019C4.65189 4.09 4.65289 4.168 4.65489 4.25H19.3469C19.3479 4.168 19.3499 4.09 19.3499 4.019C19.3499 3.617 19.3279 3.347 19.2859 3.16C19.2469 2.981 19.2009 2.929 19.1859 2.914C19.1699 2.898 19.1169 2.852 18.9369 2.813C18.7489 2.772 18.4769 2.75 18.0749 2.75H5.92689C5.52389 2.75 5.25289 2.772 5.06489 2.813C4.88489 2.852 4.83089 2.898 4.81589 2.914C4.80089 2.929 4.75489 2.981 4.71489 3.16ZM20.6459 10.238C20.5659 9.617 20.4689 9.004 20.3469 8.401C20.2709 8.025 20.1259 7.659 19.9469 7.225L19.9179 7.155C19.7529 6.758 19.5629 6.298 19.4479 5.806C19.4439 5.787 19.4399 5.769 19.4359 5.75H17.7569C17.7769 6.633 17.8589 7.631 18.1959 8.475C18.4079 9.005 18.7079 9.437 19.1259 9.739C19.4809 9.995 19.9659 10.189 20.6459 10.238ZM4.56589 5.75C4.56189 5.769 4.55789 5.787 4.55289 5.806C4.43889 6.298 4.24789 6.758 4.08389 7.155L4.05489 7.225C3.87589 7.659 3.72989 8.025 3.65389 8.401C3.59289 8.707 3.56689 9.023 3.50889 9.778L3.47389 10.228C4.09189 10.166 4.53989 9.98 4.87389 9.739C5.29189 9.437 5.59189 9.005 5.80389 8.475C6.14089 7.631 6.22289 6.633 6.24389 5.75H4.56589Z" fill="#141B34"/>
</svg>
