<svg width="18" height="19" viewBox="0 0 18 19" fill="none" xmlns="http://www.w3.org/2000/svg">
<path d="M10.2957 3.08313L11.6156 5.74466C11.7956 6.11515 12.2755 6.47053 12.6805 6.53858L15.0727 6.93932C16.6025 7.1964 16.9625 8.31544 15.8601 9.41937L14.0003 11.2945C13.6854 11.6121 13.5129 12.2246 13.6104 12.6631L14.1428 14.9844C14.5628 16.8217 13.5954 17.5325 11.983 16.5722L9.74079 15.2339C9.33583 14.9919 8.66841 14.9919 8.25595 15.2339L6.0137 16.5722C4.40888 17.5325 3.43399 16.8142 3.85394 14.9844L4.38638 12.6631C4.48387 12.2246 4.31139 11.6121 3.99642 11.2945L2.13663 9.41937C1.04175 8.31544 1.39421 7.1964 2.92404 6.93932L5.31628 6.53858C5.71373 6.47053 6.19368 6.11515 6.37366 5.74466L7.69352 3.08313C8.41344 1.63896 9.58331 1.63896 10.2957 3.08313Z" stroke="#525E6F" stroke-width="1.5" stroke-linecap="round" stroke-linejoin="round"/>
</svg>
