<svg width="24" height="24" viewBox="0 0 24 24" fill="none" xmlns="http://www.w3.org/2000/svg">
<path d="M12.002 2.75C10.965 2.75 10.091 3.452 9.83095 4.407C9.77495 4.613 9.63295 4.785 9.44295 4.881C9.25195 4.976 9.02895 4.986 8.83095 4.907C8.57495 4.806 8.29595 4.75 8.00195 4.75C6.75895 4.75 5.75195 5.757 5.75195 7C5.75195 7.329 5.82195 7.639 5.94695 7.919C6.03195 8.107 6.03495 8.323 5.95595 8.513C5.87595 8.704 5.72195 8.854 5.52795 8.927C4.48895 9.321 3.75195 10.325 3.75195 11.5C3.75195 12.885 4.77595 14.032 6.10795 14.222C6.47795 14.275 6.75195 14.591 6.75195 14.965C6.75195 16.219 7.77095 17.25 9.00195 17.25C9.41595 17.25 9.75195 17.586 9.75195 18C9.75195 18.414 9.41595 18.75 9.00195 18.75C7.12995 18.75 5.59395 17.356 5.30195 15.578C3.53895 15.06 2.25195 13.431 2.25195 11.5C2.25195 9.939 3.09295 8.576 4.34595 7.837C4.28395 7.567 4.25195 7.287 4.25195 7C4.25195 4.929 5.93095 3.25 8.00195 3.25C8.22395 3.25 8.44295 3.269 8.65495 3.307C9.27395 2.087 10.539 1.25 12.002 1.25C13.465 1.25 14.73 2.087 15.349 3.307C15.561 3.269 15.779 3.25 16.002 3.25C18.073 3.25 19.752 4.929 19.752 7C19.752 7.287 19.719 7.567 19.658 7.837C20.91 8.576 21.752 9.939 21.752 11.5C21.752 13.431 20.465 15.06 18.702 15.578C18.41 17.356 16.874 18.75 15.002 18.75C14.588 18.75 14.252 18.414 14.252 18C14.252 17.586 14.588 17.25 15.002 17.25C16.233 17.25 17.252 16.219 17.252 14.965C17.252 14.591 17.526 14.275 17.896 14.222C19.228 14.032 20.252 12.885 20.252 11.5C20.252 10.325 19.515 9.321 18.475 8.927C18.282 8.854 18.128 8.704 18.048 8.513C17.969 8.323 17.972 8.107 18.057 7.919C18.182 7.639 18.252 7.329 18.252 7C18.252 5.757 17.245 4.75 16.002 4.75C15.708 4.75 15.429 4.806 15.173 4.907C14.975 4.986 14.752 4.976 14.561 4.881C14.37 4.785 14.229 4.613 14.173 4.407C13.913 3.452 13.038 2.75 12.002 2.75ZM12 8.248C12.414 8.248 12.75 8.584 12.75 8.998V13.187L13.97 11.968C14.263 11.675 14.737 11.675 15.03 11.968C15.323 12.261 15.323 12.736 15.03 13.028L12.75 15.309V21.248H14C14.414 21.248 14.75 21.584 14.75 21.998C14.75 22.412 14.414 22.748 14 22.748H9.99995C9.58595 22.748 9.24995 22.412 9.24995 21.998C9.24995 21.584 9.58595 21.248 9.99995 21.248H11.25V13.309L8.96995 11.028C8.67695 10.736 8.67695 10.261 8.96995 9.968C9.26295 9.675 9.73695 9.675 10.03 9.968L11.25 11.187V8.998C11.25 8.584 11.586 8.248 12 8.248Z" fill="#141B34"/>
</svg>
