<svg width="24" height="24" viewBox="0 0 24 24" fill="none" xmlns="http://www.w3.org/2000/svg">
<path d="M5.25 12.567C5.24 12.558 5.229 12.549 5.219 12.539L2.522 9.92799L2.489 9.89599C2.169 9.58699 1.877 9.30499 1.672 9.04399C1.446 8.75799 1.25 8.40799 1.25 7.96099C1.25 7.51499 1.446 7.16399 1.672 6.87899C1.877 6.61799 2.169 6.33499 2.489 6.02599L2.522 5.99399L4.523 4.05799L4.572 4.00999C4.871 3.71999 5.103 3.49499 5.386 3.32599C5.667 3.15799 5.978 3.05799 6.379 2.92899L6.445 2.90699L8.091 2.37599L8.113 2.36899C8.212 2.33699 8.343 2.29499 8.46 2.27199C8.588 2.24699 8.859 2.21099 9.136 2.36899C9.433 2.53799 9.533 2.81999 9.57 2.93499C9.607 3.05199 9.634 3.19299 9.655 3.30399L9.66 3.32899C9.86 4.37199 10.818 5.19199 12 5.19199C13.182 5.19199 14.14 4.37199 14.34 3.32899L14.345 3.30399C14.366 3.19299 14.393 3.05199 14.43 2.93499C14.467 2.81999 14.567 2.53799 14.865 2.36899C15.141 2.21099 15.412 2.24699 15.54 2.27199C15.657 2.29499 15.788 2.33699 15.887 2.36899L15.909 2.37599L17.555 2.90699L17.621 2.92899C18.022 3.05799 18.333 3.15799 18.614 3.32599C18.897 3.49499 19.129 3.71999 19.428 4.00999L19.477 4.05799L21.511 6.02599C21.831 6.33499 22.123 6.61799 22.328 6.87899C22.553 7.16399 22.75 7.51499 22.75 7.96099C22.75 8.40799 22.553 8.75799 22.328 9.04399C22.123 9.30499 21.831 9.58699 21.511 9.89599L18.781 12.539C18.771 12.549 18.76 12.558 18.75 12.567V16.741C18.75 17.599 18.75 18.321 18.67 18.896C18.584 19.508 18.395 20.062 17.934 20.504C17.631 20.795 17.226 20.999 16.812 21.15C16.388 21.304 15.897 21.423 15.376 21.512C14.334 21.69 13.105 21.763 11.899 21.748C10.693 21.733 9.483 21.629 8.477 21.444C7.975 21.351 7.508 21.236 7.111 21.093C6.731 20.957 6.344 20.771 6.066 20.504C5.606 20.062 5.416 19.508 5.33 18.896C5.25 18.321 5.25 17.598 5.25 16.738V12.567ZM6.906 4.33499C6.409 4.49499 6.272 4.54399 6.156 4.61299C6.041 4.68199 5.936 4.77699 5.566 5.13599L3.565 7.07199C3.202 7.42399 2.985 7.63599 2.85 7.80699C2.788 7.88599 2.763 7.93199 2.754 7.95299C2.752 7.95699 2.751 7.95899 2.751 7.96099C2.751 7.96299 2.752 7.96599 2.754 7.96899C2.763 7.99099 2.788 8.03599 2.85 8.11499C2.985 8.28699 3.202 8.49899 3.565 8.84999L5.25 10.481V8.99999C5.25 8.58599 5.586 8.24999 6 8.24999C6.414 8.24999 6.75 8.58599 6.75 8.99999V16.684C6.75 17.612 6.752 18.229 6.816 18.688C6.877 19.122 6.98 19.302 7.105 19.423C7.156 19.471 7.306 19.569 7.618 19.681C7.914 19.788 8.296 19.885 8.749 19.969C9.653 20.136 10.776 20.234 11.918 20.248C13.06 20.263 14.194 20.192 15.123 20.033C15.588 19.954 15.985 19.854 16.299 19.74C16.623 19.622 16.807 19.506 16.895 19.423C17.02 19.302 17.123 19.122 17.184 18.688C17.248 18.229 17.25 17.612 17.25 16.684V8.99999C17.25 8.58599 17.586 8.24999 18 8.24999C18.414 8.24999 18.75 8.58599 18.75 8.99999V10.481L20.435 8.84999C20.798 8.49899 21.015 8.28699 21.15 8.11499C21.212 8.03599 21.237 7.99099 21.246 7.96899C21.247 7.96599 21.249 7.96299 21.249 7.96099C21.249 7.95899 21.247 7.95699 21.246 7.95299C21.237 7.93199 21.212 7.88599 21.15 7.80699C21.015 7.63599 20.798 7.42399 20.435 7.07199L18.434 5.13599C18.064 4.77699 17.959 4.68199 17.844 4.61299C17.728 4.54399 17.591 4.49499 17.094 4.33499L15.746 3.89999C15.297 5.52199 13.777 6.69199 12 6.69199C10.223 6.69199 8.703 5.52199 8.254 3.89999L6.906 4.33499Z" fill="#141B34"/>
</svg>
