<svg width="20" height="20" viewBox="0 0 20 20" fill="none" xmlns="http://www.w3.org/2000/svg">
<path fill-rule="evenodd" clip-rule="evenodd" d="M4.37467 18.125H16.0413C17.308 18.125 18.333 17.1 18.333 15.8333V4.16667C18.333 2.9 17.308 1.875 16.0413 1.875H4.37467C3.10801 1.875 2.08301 2.9 2.08301 4.16667V15.8333C2.08301 17.1 3.10801 18.125 4.37467 18.125ZM3.33301 4.16667C3.33301 3.59167 3.79967 3.125 4.37467 3.125H16.0413C16.6163 3.125 17.083 3.59167 17.083 4.16667V15.8333C17.083 16.4083 16.6163 16.875 16.0413 16.875H4.37467C3.79967 16.875 3.33301 16.4083 3.33301 15.8333V4.16667ZM13.9326 15.4416C14.0576 15.5666 14.2159 15.6249 14.3743 15.6249C14.5326 15.6249 14.6909 15.5666 14.8159 15.4416L15.6492 14.6082C15.8909 14.3666 15.8909 13.9666 15.6492 13.7249C15.4076 13.4832 15.0076 13.4832 14.7659 13.7249L13.9326 14.5582C13.6909 14.7999 13.6909 15.1999 13.9326 15.4416ZM10.5993 15.4416C10.7243 15.5666 10.8826 15.6249 11.0409 15.6249C11.1993 15.6249 11.3576 15.5666 11.4826 15.4416L15.6492 11.2749C15.8909 11.0332 15.8909 10.6333 15.6492 10.3916C15.4076 10.1499 15.0076 10.1499 14.7659 10.3916L10.5993 14.5582C10.3576 14.7999 10.3576 15.1999 10.5993 15.4416ZM7.26588 15.4416C7.39088 15.5666 7.54922 15.6249 7.70755 15.6249C7.86588 15.6249 8.02422 15.5666 8.14922 15.4416L15.6492 7.94162C15.8909 7.69995 15.8909 7.29995 15.6492 7.05828C15.4076 6.81662 15.0076 6.81662 14.7659 7.05828L7.26588 14.5582C7.02422 14.7999 7.02422 15.1999 7.26588 15.4416Z" fill="#6F7C8E"/>
</svg>
