<svg width="24" height="24" viewBox="0 0 24 24" fill="none" xmlns="http://www.w3.org/2000/svg">
<path d="M8.63305 3.909C9.45005 2.31 10.6481 1.25 12.0001 1.25C13.3521 1.25 14.5501 2.31 15.3671 3.909C15.9351 5.019 16.3691 6.47 16.5891 8.251C17.0861 8.253 17.5221 8.264 17.8871 8.314C18.3911 8.383 18.8701 8.538 19.2571 8.93C19.6431 9.322 19.7941 9.804 19.8611 10.31C19.9241 10.784 19.9241 11.377 19.9241 12.071V12.926C19.9241 13.327 19.9261 13.438 19.9451 13.542C19.9631 13.645 19.9991 13.751 20.1381 14.126L20.3771 14.774C20.9481 16.319 21.4061 17.558 21.6171 18.549C21.8331 19.568 21.8281 20.496 21.2761 21.304C20.7221 22.115 19.8611 22.449 18.8391 22.602C17.8491 22.75 16.5451 22.75 14.9221 22.75H9.07805C7.45505 22.75 6.15005 22.75 5.16005 22.602C4.13805 22.449 3.27805 22.115 2.72405 21.304C2.17205 20.496 2.16605 19.568 2.38305 18.549C2.59405 17.558 3.05105 16.319 3.62305 14.773L3.86205 14.126C4.00105 13.75 4.03605 13.646 4.05505 13.542L4.07605 12.926V12.071C4.07605 11.377 4.07605 10.784 4.13905 10.31C4.20605 9.804 4.35605 9.322 4.74205 8.931C5.12905 8.538 5.60905 8.383 6.11205 8.314C6.47805 8.264 6.91405 8.253 7.41105 8.251C7.63105 6.47 8.06505 5.019 8.63305 3.909ZM15.2501 11C15.2501 10.566 15.2381 10.149 15.2171 9.75H8.78305C8.76205 10.149 8.75005 10.566 8.75005 11C8.75005 11.414 8.41405 11.75 8.00005 11.75C7.58605 11.75 7.25005 11.414 7.25005 11C7.25005 10.57 7.26105 10.154 7.28105 9.752C6.86905 9.755 6.56205 9.767 6.31605 9.8C5.98205 9.846 5.87405 9.919 5.81105 9.983C5.74605 10.049 5.67205 10.163 5.62605 10.507C5.57805 10.871 5.57605 11.364 5.57605 12.12V12.979C5.57705 13.191 5.57705 13.372 5.56405 13.542C5.55805 13.632 5.54705 13.719 5.53205 13.806C5.50105 13.977 5.45105 14.142 5.38605 14.326C5.40605 14.338 5.42605 14.351 5.44505 14.365C6.89305 15.432 8.91505 16.121 10.0791 16.272C10.2281 16.105 10.3911 15.951 10.5621 15.817C10.9411 15.52 11.4471 15.25 12.0001 15.25C12.5531 15.25 13.0601 15.52 13.4381 15.817C13.6031 15.947 13.7611 16.094 13.9051 16.254C15.0571 16.123 17.1321 15.427 18.6101 14.339L18.6171 14.333C18.5511 14.146 18.4991 13.979 18.4681 13.806C18.4531 13.719 18.4431 13.632 18.4361 13.542C18.4241 13.372 18.4241 13.191 18.4241 12.979V12.12C18.4241 11.364 18.4221 10.871 18.3741 10.507C18.3291 10.163 18.2541 10.049 18.1891 9.983C18.1261 9.919 18.0181 9.846 17.6851 9.8C17.4381 9.767 17.1321 9.755 16.7191 9.752C16.7391 10.154 16.7501 10.57 16.7501 11C16.7501 11.414 16.4141 11.75 16.0001 11.75C15.5861 11.75 15.2501 11.414 15.2501 11ZM9.30805 17.66C8.00005 17.389 6.25305 16.734 4.85005 15.781C4.35905 17.114 4.01405 18.091 3.85105 18.861C3.66805 19.718 3.75005 20.147 3.96305 20.458C4.17305 20.766 4.53405 20.991 5.38305 21.118C6.24905 21.248 7.44205 21.25 9.14605 21.25H14.8541C16.5591 21.25 17.7511 21.248 18.6181 21.118C19.4661 20.991 19.8281 20.766 20.0381 20.458C20.2501 20.147 20.3321 19.718 20.1501 18.861C19.9861 18.092 19.6421 17.118 19.1531 15.789C17.7381 16.737 15.9871 17.385 14.6891 17.646C14.7531 17.905 14.7741 18.182 14.7171 18.457C14.6571 18.746 14.5121 19.022 14.2661 19.239C14.0261 19.45 13.7311 19.572 13.4181 19.63C12.5571 19.791 11.4301 19.789 10.5831 19.63C10.2701 19.572 9.97405 19.45 9.73405 19.239C9.48805 19.022 9.34305 18.746 9.28305 18.457C9.22705 18.187 9.24605 17.915 9.30805 17.66ZM14.0321 4.591C13.3151 3.19 12.5131 2.75 12.0001 2.75C11.4871 2.75 10.6851 3.19 9.96805 4.591C9.51205 5.483 9.13205 6.699 8.92305 8.25H15.0771C14.8681 6.699 14.4881 5.483 14.0321 4.591ZM10.8581 18.156C11.5251 18.28 12.4641 18.282 13.1421 18.156C13.1951 18.146 13.2291 18.134 13.2501 18.125C13.2501 18.063 13.2271 17.915 13.1021 17.688C12.9621 17.435 12.7471 17.181 12.5121 16.997C12.2631 16.802 12.0791 16.75 12.0001 16.75C11.9211 16.75 11.7371 16.802 11.4891 16.997C11.2541 17.181 11.0381 17.435 10.8991 17.688C10.7731 17.915 10.7501 18.063 10.7501 18.125C10.7711 18.134 10.8051 18.146 10.8581 18.156Z" fill="#141B34"/>
</svg>
