<svg width="24" height="24" viewBox="0 0 24 24" fill="none" xmlns="http://www.w3.org/2000/svg">
<path d="M12 1.25C17.937 1.25 22.75 6.063 22.75 12C22.75 17.937 17.937 22.75 12 22.75C6.063 22.75 1.25 17.937 1.25 12C1.25 6.063 6.063 1.25 12 1.25ZM11.049 9.98C9.043 12.275 6.11 13.757 2.915 13.747C3.624 17.455 6.546 20.377 10.254 21.085C10.244 17.89 11.725 14.957 14.02 12.951C13.208 11.799 12.202 10.792 11.049 9.98ZM15.214 12.041C16.922 10.91 18.948 10.247 21.085 10.252C20.376 6.545 17.454 3.623 13.747 2.915C13.753 5.052 13.09 7.078 11.959 8.786C13.217 9.681 14.319 10.783 15.214 12.041ZM17.73 19.262C19.874 17.567 21.25 14.944 21.25 12C21.25 11.918 21.249 11.836 21.247 11.754C19.344 11.714 17.535 12.297 16.015 13.309C17.008 15.088 17.617 17.109 17.73 19.262ZM4.738 6.269C6.891 6.383 8.912 6.992 10.691 7.985C11.703 6.465 12.285 4.656 12.245 2.753C12.164 2.751 12.082 2.75 12 2.75C9.056 2.75 6.432 4.126 4.738 6.269ZM3.797 7.722C3.128 9.001 2.75 10.457 2.75 12C2.75 12.082 2.751 12.164 2.753 12.245C5.472 12.304 7.992 11.092 9.751 9.181C8.036 8.268 6.078 7.75 4 7.75C3.929 7.75 3.861 7.74 3.797 7.722ZM14.819 14.25C12.908 16.009 11.697 18.528 11.756 21.247C11.837 21.249 11.918 21.25 12 21.25C13.543 21.25 14.999 20.872 16.278 20.204C16.26 20.139 16.25 20.07 16.25 20C16.25 17.922 15.732 15.964 14.819 14.25Z" fill="#141B34"/>
</svg>
