<svg width="24" height="24" viewBox="0 0 24 24" fill="none" xmlns="http://www.w3.org/2000/svg">
<path d="M3.495 19.505C2.82 18.83 2.524 17.977 2.385 16.94C2.25 15.937 2.25 14.658 2.25 13.056V12.75H2C1.586 12.75 1.25 12.414 1.25 12C1.25 11.586 1.586 11.25 2 11.25H3.25V5.523C3.25 3.716 4.716 2.25 6.523 2.25C7.73 2.25 8.816 2.91 9.384 3.932L10.031 3.414C10.355 3.156 10.827 3.208 11.086 3.532C11.344 3.855 11.292 4.327 10.969 4.586L8.469 6.586C8.145 6.844 7.673 6.792 7.414 6.469C7.156 6.145 7.208 5.673 7.532 5.414L8.182 4.894C7.922 4.21 7.264 3.75 6.523 3.75C5.544 3.75 4.75 4.544 4.75 5.523V11.25H22C22.414 11.25 22.75 11.586 22.75 12C22.75 12.414 22.414 12.75 22 12.75H21.75V13.056C21.75 14.658 21.75 15.937 21.615 16.94C21.476 17.977 21.18 18.83 20.505 19.505C20.161 19.85 19.77 20.095 19.332 20.272L19.53 20.47C19.823 20.763 19.823 21.237 19.53 21.53C19.237 21.823 18.763 21.823 18.47 21.53L17.595 20.655C16.648 20.75 15.48 20.75 14.056 20.75H9.944C8.52 20.75 7.352 20.75 6.405 20.655L5.53 21.53C5.237 21.823 4.763 21.823 4.47 21.53C4.177 21.237 4.177 20.763 4.47 20.47L4.668 20.272C4.23 20.095 3.839 19.85 3.495 19.505ZM20.25 12.75H3.75V13C3.75 14.671 3.752 15.849 3.871 16.74C3.988 17.61 4.205 18.095 4.555 18.444C4.905 18.795 5.39 19.012 6.259 19.128C7.151 19.248 8.329 19.25 10 19.25H14C15.671 19.25 16.849 19.248 17.74 19.128C18.611 19.012 19.095 18.795 19.444 18.444C19.795 18.095 20.012 17.61 20.128 16.74C20.248 15.849 20.25 14.671 20.25 13V12.75Z" fill="#141B34"/>
</svg>
