<svg width="24" height="24" viewBox="0 0 24 24" fill="none" xmlns="http://www.w3.org/2000/svg">
<path d="M11.444 1.25H12.556C14.394 1.25 15.85 1.25 16.989 1.403C18.161 1.561 19.11 1.893 19.859 2.641C20.607 3.39 20.939 4.339 21.097 5.511C21.25 6.65 21.25 8.106 21.25 9.944V16.929C21.25 16.941 21.25 16.952 21.249 16.964V16.968C21.25 16.978 21.25 16.989 21.25 17C21.25 17.414 20.914 17.75 20.5 17.75C19.534 17.75 18.75 18.534 18.75 19.5C18.75 20.466 19.534 21.25 20.5 21.25C20.914 21.25 21.25 21.586 21.25 22C21.25 22.414 20.914 22.75 20.5 22.75H6C4.205 22.75 2.75 21.295 2.75 19.5V9.944C2.75 8.106 2.75 6.65 2.903 5.511C3.061 4.339 3.393 3.39 4.141 2.641C4.89 1.893 5.839 1.561 7.011 1.403C8.15 1.25 9.606 1.25 11.444 1.25ZM19.75 10C19.75 8.093 19.748 6.739 19.61 5.711C19.475 4.705 19.221 4.125 18.798 3.702C18.375 3.279 17.795 3.025 16.789 2.89C15.762 2.752 14.407 2.75 12.5 2.75H11.5C9.593 2.75 8.239 2.752 7.211 2.89C6.205 3.025 5.625 3.279 5.202 3.702C4.779 4.125 4.525 4.705 4.39 5.711C4.252 6.739 4.25 8.093 4.25 10V16.761C4.755 16.438 5.356 16.25 6 16.25H19.75V10ZM17.761 21.25C17.438 20.745 17.25 20.144 17.25 19.5C17.25 18.856 17.438 18.255 17.761 17.75H6C5.034 17.75 4.251 18.533 4.25 19.498V19.501C4.25 20.467 5.034 21.25 6 21.25H17.761ZM15.75 7C15.75 7.414 15.414 7.75 15 7.75H9C8.586 7.75 8.25 7.414 8.25 7C8.25 6.586 8.586 6.25 9 6.25H15C15.414 6.25 15.75 6.586 15.75 7ZM12 11.75H9C8.586 11.75 8.25 11.414 8.25 11C8.25 10.586 8.586 10.25 9 10.25H12C12.414 10.25 12.75 10.586 12.75 11C12.75 11.414 12.414 11.75 12 11.75Z" fill="#141B34"/>
</svg>
