<svg width="24" height="24" viewBox="0 0 24 24" fill="none" xmlns="http://www.w3.org/2000/svg">
<path d="M20.686 1.45201C21.635 1.92501 22.023 3.07801 21.546 4.02701L21.542 4.03601L15.729 15.224C15.591 16.325 15.172 17.894 14.378 19.323C13.55 20.812 12.253 22.25 10.337 22.728C10.278 22.743 10.217 22.75 10.156 22.75C8.074 22.75 5.692 21.543 4.1 19.455C2.989 17.999 2.25 16.101 2.25 13.851C2.25 13.592 2.384 13.351 2.604 13.214C2.824 13.077 3.1 13.064 3.332 13.179C4.238 13.626 5.247 14.041 6.533 14.054C7.789 14.066 9.387 13.695 11.465 12.447L18.169 2.20001C18.679 1.32801 19.781 1.00101 20.686 1.45201ZM6.518 15.554C5.48 15.544 4.593 15.322 3.833 15.037C4.015 16.303 4.481 17.396 5.111 18.297C5.583 18.344 6.268 18.359 7.022 18.268C7.955 18.155 8.94 17.887 9.751 17.368C10.1 17.145 10.564 17.247 10.787 17.596C11.011 17.945 10.909 18.409 10.56 18.632C9.495 19.313 8.27 19.628 7.202 19.757C6.971 19.785 6.746 19.805 6.528 19.817C7.662 20.735 8.961 21.223 10.063 21.249C11.374 20.889 12.361 19.864 13.067 18.594C13.681 17.49 14.038 16.275 14.192 15.363L11.977 13.886C9.832 15.127 8.047 15.569 6.518 15.554ZM6.703 3.74001L6.924 4.33701C7.238 5.18501 7.329 5.38501 7.472 5.52801C7.615 5.67101 7.815 5.76201 8.663 6.07601L9.26 6.29701C9.555 6.40601 9.75 6.68601 9.75 7.00001C9.75 7.31401 9.555 7.59401 9.26 7.70301L8.663 7.92401C7.815 8.23801 7.615 8.32901 7.472 8.47201C7.329 8.61501 7.238 8.81501 6.924 9.66301L6.703 10.26C6.594 10.555 6.314 10.75 6 10.75C5.686 10.75 5.406 10.555 5.297 10.26L5.076 9.66301C4.762 8.81501 4.671 8.61501 4.528 8.47201C4.385 8.32901 4.185 8.23801 3.337 7.92401L2.74 7.70301C2.445 7.59401 2.25 7.31401 2.25 7.00001C2.25 6.68601 2.445 6.40601 2.74 6.29701L3.337 6.07601C4.185 5.76201 4.385 5.67101 4.528 5.52801C4.671 5.38501 4.762 5.18501 5.076 4.33701L5.297 3.74001C5.406 3.44501 5.686 3.25001 6 3.25001C6.314 3.25001 6.594 3.44501 6.703 3.74001ZM17.303 8.94101L20.207 3.35001C20.307 3.14701 20.225 2.89801 20.017 2.79501C19.815 2.69401 19.57 2.77001 19.46 2.96301C19.452 2.97701 19.444 2.99101 19.435 3.00401L16.051 8.17701L17.303 8.94101ZM16.61 10.276L15.23 9.43301L13.035 12.788L14.72 13.912L16.61 10.276ZM5.589 6.58901C5.423 6.75401 5.234 6.88601 5.023 7.00001C5.234 7.11401 5.423 7.24601 5.589 7.41101C5.754 7.57701 5.886 7.76601 6 7.97701C6.114 7.76601 6.246 7.57701 6.411 7.41101C6.577 7.24601 6.766 7.11401 6.977 7.00001C6.766 6.88601 6.577 6.75401 6.411 6.58901C6.246 6.42301 6.114 6.23401 6 6.02301C5.886 6.23401 5.754 6.42301 5.589 6.58901Z" fill="#141B34"/>
</svg>
