<svg width="25" height="24" viewBox="0 0 25 24" fill="none" xmlns="http://www.w3.org/2000/svg">
<path d="M12.469 1.25H12.532C13.136 1.25 13.636 1.25 14.049 1.285C14.481 1.322 14.872 1.401 15.25 1.587C15.922 1.92 16.346 2.449 16.645 2.979C16.876 3.39 17.055 3.852 17.207 4.243C17.243 4.335 17.278 4.424 17.311 4.507L17.608 5.25C18.699 5.25 19.486 5.251 20.092 5.335C20.775 5.429 21.269 5.631 21.783 6.025C22.043 6.224 22.276 6.457 22.475 6.717C22.902 7.273 23.083 7.922 23.168 8.676C23.25 9.406 23.25 10.32 23.25 11.455V16.055C23.25 17.423 23.25 18.525 23.133 19.392C23.013 20.292 22.754 21.05 22.152 21.652C21.55 22.254 20.792 22.513 19.892 22.633C19.025 22.75 17.923 22.75 16.555 22.75H8.445C7.078 22.75 5.975 22.75 5.108 22.633C4.208 22.513 3.45 22.254 2.848 21.652C2.246 21.05 1.988 20.292 1.867 19.392C1.75 18.525 1.75 17.423 1.75 16.055V11.455C1.75 10.32 1.75 9.406 1.832 8.676C1.917 7.922 2.098 7.273 2.525 6.717C2.724 6.457 2.957 6.224 3.217 6.025C3.731 5.631 4.225 5.429 4.908 5.335C5.514 5.251 6.301 5.25 7.392 5.25L7.69 4.507C7.723 4.424 7.757 4.336 7.793 4.244C7.945 3.853 8.125 3.39 8.356 2.979C8.654 2.449 9.079 1.92 9.751 1.587C10.128 1.401 10.519 1.322 10.952 1.285C11.365 1.25 11.865 1.25 12.469 1.25ZM18.208 6.751C18.341 7.128 18.153 7.546 17.779 7.696C17.394 7.85 16.958 7.663 16.804 7.279L15.918 5.064C15.873 4.951 15.831 4.843 15.79 4.738C15.641 4.357 15.511 4.023 15.337 3.714C15.128 3.342 14.895 3.086 14.584 2.932C14.437 2.859 14.25 2.808 13.921 2.78C13.58 2.751 13.144 2.75 12.5 2.75C11.857 2.75 11.421 2.751 11.079 2.78C10.75 2.808 10.563 2.859 10.416 2.932C10.106 3.086 9.873 3.342 9.663 3.714C9.489 4.023 9.359 4.357 9.211 4.738C9.17 4.843 9.127 4.951 9.082 5.064L8.197 7.279C8.043 7.663 7.606 7.85 7.222 7.696C6.847 7.546 6.66 7.128 6.793 6.751C6.013 6.754 5.504 6.767 5.113 6.82C4.671 6.881 4.425 6.989 4.13 7.215C3.974 7.335 3.835 7.474 3.715 7.63C3.522 7.882 3.393 8.224 3.323 8.844C3.251 9.48 3.25 10.31 3.25 11.5V16C3.25 17.435 3.252 18.437 3.353 19.192C3.452 19.926 3.632 20.314 3.909 20.591C4.186 20.868 4.574 21.048 5.308 21.147C6.063 21.248 7.065 21.25 8.5 21.25H16.5C17.935 21.25 18.937 21.248 19.692 21.147C20.426 21.048 20.814 20.868 21.091 20.591C21.368 20.314 21.548 19.926 21.647 19.192C21.748 18.437 21.75 17.435 21.75 16V11.5C21.75 10.31 21.749 9.48 21.677 8.844C21.607 8.224 21.478 7.882 21.285 7.63C21.165 7.474 21.026 7.335 20.87 7.215C20.575 6.989 20.329 6.881 19.887 6.82C19.496 6.767 18.987 6.754 18.208 6.751ZM8.25 14C8.25 11.653 10.153 9.75 12.5 9.75C14.847 9.75 16.75 11.653 16.75 14C16.75 16.347 14.847 18.25 12.5 18.25C10.153 18.25 8.25 16.347 8.25 14ZM12.5 11.25C10.981 11.25 9.75 12.481 9.75 14C9.75 15.519 10.981 16.75 12.5 16.75C14.019 16.75 15.25 15.519 15.25 14C15.25 12.481 14.019 11.25 12.5 11.25ZM12.5 5H12.509C13.061 5 13.509 5.448 13.509 6C13.509 6.552 13.061 7 12.509 7H12.5C11.948 7 11.5 6.552 11.5 6C11.5 5.448 11.948 5 12.5 5Z" fill="#141B34"/>
</svg>
