<svg width="24" height="25" viewBox="0 0 24 25" fill="none" xmlns="http://www.w3.org/2000/svg">
<path d="M19.3298 20.9324C19.6577 21.0715 19.9758 21.0723 20.4999 21.0723C21.0338 21.0723 21.3517 21.0715 21.6598 20.9324C22.0998 20.7524 22.4398 20.4222 22.6098 19.9922C22.7498 19.6722 22.7498 19.3723 22.7498 18.8223V15.7422C22.7498 14.5122 22.7498 13.8323 22.5498 13.1523C22.3452 12.48 21.9601 11.9025 21.3299 10.9574L21.2798 10.8823L21.0192 10.4956L22.4501 9.42244C22.7801 9.17244 22.8501 8.70239 22.6001 8.37239C22.3501 8.04239 21.8801 7.97224 21.5501 8.22224L20.3204 9.14462L19.7298 7.72217C18.9598 5.86217 18.5298 4.83238 17.5798 4.19238C16.6298 3.57238 15.5198 3.57227 13.4998 3.57227H10.4998H10.4987C8.47935 3.57227 7.36958 3.57227 6.41976 4.20215C5.48587 4.82147 5.06416 5.82735 4.30913 7.62826L4.26976 7.72217L3.67932 9.14431L2.45003 8.22224C2.12003 7.97224 1.65003 8.04239 1.40003 8.37239C1.15003 8.70239 1.22003 9.17244 1.55003 9.42244L2.98053 10.4953L2.71976 10.8823L2.66973 10.9574C2.03947 11.9025 1.6544 12.48 1.44976 13.1523C1.24976 13.8323 1.24976 14.5122 1.24976 15.7422V18.8223C1.24976 19.3723 1.24976 19.6722 1.37976 19.9822C1.55976 20.4222 1.89976 20.7624 2.31976 20.9324C2.64951 21.0723 2.95929 21.0723 3.49853 21.0723H3.49976H3.501C4.04025 21.0723 4.36 21.0723 4.66976 20.9324C5.10976 20.7524 5.44976 20.4222 5.61976 19.9922C5.75976 19.6722 5.75976 19.3723 5.75976 18.8223C5.75976 18.5623 5.75976 18.2922 5.77976 18.2222C5.80976 18.1622 5.84976 18.1223 5.91976 18.0923C5.98976 18.0723 6.24976 18.0723 6.50976 18.0723H17.5098C17.7698 18.0723 18.0298 18.0723 18.1098 18.0923C18.1698 18.1223 18.2098 18.1622 18.2398 18.2222C18.2598 18.2922 18.2598 18.5623 18.2598 18.8223C18.2598 19.3723 18.2598 19.6722 18.3898 19.9822C18.5698 20.4222 18.9098 20.7624 19.3298 20.9324ZM4.33431 11.1809L5.58003 11.4923C5.79003 11.5423 6.02003 11.5723 6.25003 11.5723H17.7501C17.9801 11.5723 18.2101 11.5423 18.4201 11.4923L19.6739 11.1788L20.0398 11.7222C20.6698 12.6722 20.9798 13.1423 21.1198 13.5923C21.2598 14.0523 21.2598 14.6222 21.2598 15.7422V18.8223C21.2598 19.0823 21.2598 19.3524 21.2398 19.4224C21.2098 19.4824 21.1698 19.5222 21.0998 19.5522C20.9698 19.5922 20.0698 19.6022 19.9098 19.5522C19.8498 19.5222 19.8098 19.4824 19.7798 19.4224C19.7598 19.3524 19.7598 19.0823 19.7598 18.8223C19.7598 18.2723 19.7598 17.9724 19.6298 17.6624C19.4498 17.2224 19.1098 16.8822 18.6898 16.7122C18.3601 16.5723 18.0403 16.5723 17.511 16.5723H17.5098H6.50976H6.50851C5.96927 16.5723 5.64952 16.5723 5.33976 16.7122C4.89976 16.8922 4.55976 17.2223 4.38976 17.6523C4.24976 17.9723 4.24976 18.2723 4.24976 18.8223C4.24976 19.0823 4.24976 19.3524 4.22976 19.4224C4.19976 19.4824 4.15976 19.5222 4.08976 19.5522C3.95976 19.5922 3.05976 19.6022 2.89976 19.5522C2.83976 19.5222 2.79976 19.4824 2.76976 19.4224C2.74976 19.3524 2.74976 19.0823 2.74976 18.8223V15.7422C2.74976 14.6122 2.74976 14.0523 2.88976 13.5923C3.02976 13.1423 3.33976 12.6722 3.96976 11.7222L4.33431 11.1809ZM5.03429 9.80732L5.65976 8.30225C6.39976 6.54225 6.71976 5.82215 7.25976 5.45215C7.82958 5.07227 8.71921 5.07227 10.5081 5.07227H10.5098H13.5098C15.2898 5.07227 16.1898 5.07238 16.7498 5.44238C17.2998 5.81238 17.6198 6.54225 18.3498 8.30225L18.974 9.80423L18.0501 10.0323C17.9501 10.0623 17.8501 10.0723 17.7501 10.0723H6.24003C6.14003 10.0723 6.04003 10.0623 5.94003 10.0323L5.03429 9.80732ZM18.0096 15.3323C17.4596 15.3323 17.0096 14.8823 17.0096 14.3323C17.0096 13.7823 17.4596 13.3323 18.0096 13.3323C18.5596 13.3323 19.0096 13.7723 19.0096 14.3323C19.0096 14.8923 18.5596 15.3423 18.0096 15.3423V15.3323ZM5.00953 14.3323C5.00953 14.8823 5.45953 15.3323 6.00953 15.3323V15.3423C6.55953 15.3423 7.00953 14.8923 7.00953 14.3323C7.00953 13.7723 6.55953 13.3323 6.00953 13.3323C5.45953 13.3323 5.00953 13.7823 5.00953 14.3323Z" fill="#141B34"/>
</svg>
