<svg width="24" height="24" viewBox="0 0 24 24" fill="none" xmlns="http://www.w3.org/2000/svg">
<path d="M14.75 4.282C14.75 5.386 14.362 6.421 13.697 7.238C15.237 7.944 16.606 9.087 17.592 10.668C17.844 10.376 18.146 10.069 18.492 9.778C19.348 9.057 20.556 8.364 22 8.364C22.304 8.364 22.578 8.548 22.694 8.829C22.809 9.111 22.744 9.434 22.528 9.648C22.239 9.933 21.739 10.784 21.463 11.84C21.189 12.892 21.195 13.927 21.641 14.663C21.782 14.895 21.786 15.184 21.653 15.42C21.521 15.656 21.271 15.802 21 15.802C20.48 15.802 19.992 15.562 19.605 15.308C19.201 15.042 18.808 14.695 18.458 14.347C18.156 14.045 17.872 13.73 17.627 13.441C16.64 15.049 15.255 16.212 13.696 16.927C14.362 17.745 14.75 18.78 14.75 19.885C14.75 20.379 14.344 20.752 13.878 20.75C12.389 20.743 11.252 20.615 10.393 20.358C9.52499 20.099 8.88799 19.692 8.48699 19.097C8.48099 19.088 8.47499 19.078 8.46899 19.068L7.52599 17.52C4.94399 16.903 2.58999 15.192 1.31699 12.394C1.22799 12.196 1.22799 11.97 1.31699 11.773C2.59099 8.971 4.94099 7.262 7.52599 6.646L8.46899 5.098C8.47499 5.089 8.48099 5.079 8.48699 5.069C8.64399 4.837 8.87499 4.658 9.07699 4.526C9.29399 4.385 9.54699 4.254 9.81199 4.135C10.343 3.896 10.977 3.682 11.586 3.525C12.186 3.37 12.808 3.259 13.305 3.251C13.543 3.247 13.828 3.264 14.082 3.361C14.214 3.411 14.38 3.5 14.519 3.659C14.669 3.833 14.75 4.052 14.75 4.282ZM2.83199 12.083C3.97299 14.339 5.97199 15.682 8.14799 16.122C8.35299 16.163 8.53199 16.288 8.64099 16.467L9.73999 18.271C9.89099 18.489 10.183 18.73 10.822 18.921C11.369 19.084 12.13 19.198 13.183 19.236C13.017 18.44 12.549 17.735 11.88 17.267C11.568 17.049 11.206 16.9 10.765 16.754C10.372 16.624 10.158 16.2 10.288 15.807C10.417 15.413 10.842 15.2 11.235 15.33C11.614 15.455 12.018 15.606 12.411 15.83C14.163 15.214 15.714 13.969 16.668 12.083C13.833 6.486 5.66699 6.486 2.83199 12.083ZM9.43799 6.39C10.349 6.361 11.264 6.461 12.149 6.689C12.719 6.193 13.101 5.51 13.215 4.755C12.892 4.774 12.449 4.851 11.96 4.977C11.419 5.117 10.867 5.305 10.427 5.503C10.206 5.602 10.027 5.698 9.89599 5.783C9.78899 5.853 9.74399 5.897 9.73199 5.908L9.43799 6.39ZM6.00799 13H5.99899C5.44699 13 4.99899 12.552 4.99899 12C4.99899 11.448 5.44699 11 5.99899 11H6.00799C6.55999 11 7.00799 11.448 7.00799 12C7.00799 12.552 6.55999 13 6.00799 13ZM19.458 10.925C18.995 11.315 18.64 11.731 18.415 12.039C18.699 12.394 19.09 12.859 19.517 13.284C19.608 13.375 19.699 13.462 19.789 13.545C19.741 12.822 19.845 12.099 20.012 11.461C20.119 11.05 20.259 10.648 20.419 10.276C20.074 10.453 19.752 10.678 19.458 10.925Z" fill="#141B34"/>
</svg>
