<svg width="24" height="24" viewBox="0 0 24 24" fill="none" xmlns="http://www.w3.org/2000/svg">
<path d="M7.786 1.25H8.143C9.757 1.25 11.177 2.08 12 3.337C12.823 2.08 14.243 1.25 15.857 1.25H16.214C17.615 1.25 18.75 2.385 18.75 3.786C18.75 4.717 18.429 5.573 17.891 6.25H18.527C18.971 6.25 19.345 6.25 19.649 6.272C19.965 6.295 20.272 6.345 20.565 6.48C20.896 6.633 21.192 6.862 21.407 7.161C21.611 7.443 21.687 7.747 21.72 8.04C21.75 8.303 21.75 8.619 21.75 8.961V9.039C21.75 9.381 21.75 9.697 21.72 9.96C21.687 10.252 21.611 10.557 21.407 10.839C21.233 11.081 21.006 11.277 20.75 11.424V15.056C20.75 16.658 20.75 17.937 20.615 18.94C20.476 19.977 20.18 20.83 19.505 21.505C18.83 22.18 17.977 22.476 16.94 22.615C15.937 22.75 14.658 22.75 13.056 22.75H10.944C9.342 22.75 8.063 22.75 7.06 22.615C6.023 22.476 5.17 22.18 4.495 21.505C3.82 20.83 3.524 19.977 3.385 18.94C3.25 17.937 3.25 16.658 3.25 15.056V11.424C2.994 11.277 2.767 11.081 2.593 10.839C2.389 10.557 2.313 10.252 2.28 9.96C2.25 9.696 2.25 9.379 2.25 9.036V9V8.964C2.25 8.621 2.25 8.304 2.28 8.04C2.313 7.747 2.389 7.443 2.593 7.161C2.808 6.862 3.104 6.633 3.436 6.48C3.728 6.345 4.035 6.295 4.351 6.272C4.655 6.25 5.029 6.25 5.473 6.25H6.109C5.571 5.573 5.25 4.717 5.25 3.786C5.25 2.385 6.385 1.25 7.786 1.25ZM11.25 11.75H5.473C5.206 11.75 4.966 11.75 4.75 11.745V15C4.75 16.671 4.752 17.849 4.871 18.74C4.988 19.61 5.205 20.095 5.555 20.444C5.905 20.795 6.39 21.012 7.259 21.128C8.151 21.248 9.329 21.25 11 21.25H11.25V11.75ZM12.75 21.25H13C14.671 21.25 15.849 21.248 16.74 21.128C17.61 21.012 18.095 20.795 18.444 20.444C18.795 20.095 19.012 19.61 19.128 18.74C19.248 17.849 19.25 16.671 19.25 15V11.745C19.034 11.75 18.794 11.75 18.527 11.75H12.75V21.25ZM12 10.25H18.5C18.978 10.25 19.297 10.25 19.541 10.232C19.779 10.215 19.88 10.184 19.935 10.158C20.06 10.101 20.143 10.027 20.191 9.961C20.193 9.959 20.197 9.953 20.203 9.935C20.21 9.912 20.221 9.869 20.23 9.792C20.249 9.622 20.25 9.391 20.25 9C20.25 8.609 20.249 8.378 20.23 8.208C20.221 8.131 20.21 8.088 20.203 8.065C20.197 8.047 20.193 8.041 20.191 8.039C20.143 7.973 20.06 7.899 19.935 7.842C19.88 7.816 19.779 7.785 19.541 7.768C19.297 7.75 18.978 7.75 18.5 7.75H5.5C5.022 7.75 4.703 7.75 4.459 7.768C4.221 7.785 4.12 7.816 4.064 7.842C3.94 7.899 3.857 7.973 3.809 8.039C3.808 8.041 3.803 8.047 3.797 8.065C3.79 8.088 3.779 8.131 3.77 8.208C3.751 8.378 3.75 8.609 3.75 9C3.75 9.391 3.751 9.622 3.77 9.792C3.779 9.869 3.79 9.912 3.797 9.935C3.803 9.953 3.807 9.959 3.809 9.961C3.857 10.027 3.94 10.101 4.064 10.158C4.12 10.184 4.221 10.215 4.459 10.232C4.703 10.25 5.022 10.25 5.5 10.25H12ZM17.25 3.786C17.25 3.214 16.786 2.75 16.214 2.75H15.857C14.141 2.75 12.75 4.141 12.75 5.857V6.25H14.786C16.147 6.25 17.25 5.147 17.25 3.786ZM11.25 5.857C11.25 4.141 9.859 2.75 8.143 2.75H7.786C7.214 2.75 6.75 3.214 6.75 3.786C6.75 5.147 7.853 6.25 9.214 6.25H11.25V5.857Z" fill="#141B34"/>
</svg>
