<svg width="24" height="24" viewBox="0 0 24 24" fill="none" xmlns="http://www.w3.org/2000/svg">
<path d="M3.5 12.25H11.394C11.937 12.25 12.468 12.411 12.92 12.712L14.861 14.006C14.945 14.062 15.055 14.062 15.139 14.006L17.08 12.712C17.532 12.411 18.063 12.25 18.606 12.25H20.5C21.743 12.25 22.75 13.257 22.75 14.5C22.75 15.714 21.789 16.703 20.586 16.748L20.296 17.91C19.878 19.579 18.378 20.75 16.658 20.75H7.342C5.622 20.75 4.122 19.579 3.704 17.91L3.414 16.748C2.211 16.703 1.25 15.714 1.25 14.5C1.25 13.257 2.257 12.25 3.5 12.25ZM9.146 3.25H14.854C17.703 3.25 20.091 5.17 20.959 7.793L20.977 7.847C21.089 8.186 21.209 8.547 21.241 8.876C21.282 9.295 21.189 9.69 20.898 10.058C20.587 10.452 20.181 10.618 19.762 10.689C19.398 10.75 18.951 10.75 18.476 10.75H5.524C5.049 10.75 4.603 10.75 4.238 10.689C3.819 10.618 3.413 10.452 3.102 10.058C2.811 9.69 2.718 9.295 2.759 8.876C2.791 8.547 2.911 8.186 3.023 7.847L3.041 7.793C3.909 5.17 6.297 3.25 9.146 3.25ZM5.16 17.546C5.41 18.547 6.31 19.25 7.342 19.25H16.658C17.69 19.25 18.59 18.547 18.84 17.546L19.039 16.75H18.5C18.086 16.75 17.75 16.414 17.75 16C17.75 15.586 18.086 15.25 18.5 15.25H20.5C20.914 15.25 21.25 14.914 21.25 14.5C21.25 14.086 20.914 13.75 20.5 13.75H18.606C18.359 13.75 18.118 13.823 17.912 13.96L15.971 15.254C15.383 15.646 14.617 15.646 14.029 15.254L12.088 13.96C11.882 13.823 11.641 13.75 11.394 13.75H3.5C3.086 13.75 2.75 14.086 2.75 14.5C2.75 14.914 3.086 15.25 3.5 15.25H11C11.414 15.25 11.75 15.586 11.75 16C11.75 16.414 11.414 16.75 11 16.75H4.961L5.16 17.546ZM4.465 8.264C4.327 8.683 4.266 8.88 4.252 9.021C4.25 9.048 4.25 9.065 4.25 9.074C4.251 9.083 4.252 9.086 4.252 9.086L4.253 9.088C4.253 9.088 4.254 9.09 4.255 9.093C4.258 9.099 4.265 9.11 4.279 9.129L4.281 9.132C4.292 9.147 4.317 9.181 4.488 9.21C4.712 9.248 5.03 9.25 5.578 9.25H18.422C18.97 9.25 19.288 9.248 19.512 9.21C19.683 9.181 19.708 9.147 19.719 9.132L19.721 9.129C19.735 9.11 19.742 9.099 19.745 9.093L19.747 9.09V9.088L19.748 9.086L19.75 9.074C19.75 9.065 19.75 9.048 19.748 9.021C19.734 8.88 19.673 8.683 19.535 8.264C18.851 6.197 16.997 4.75 14.854 4.75H9.146C7.003 4.75 5.149 6.197 4.465 8.264ZM11.03 7.03L10.03 8.03C9.737 8.323 9.263 8.323 8.97 8.03C8.677 7.737 8.677 7.263 8.97 6.97L9.97 5.97C10.263 5.677 10.737 5.677 11.03 5.97C11.323 6.263 11.323 6.737 11.03 7.03ZM16.008 7C16.008 7.552 15.56 8 15.008 8H14.999C14.446 8 13.999 7.552 13.999 7C13.999 6.448 14.446 6 14.999 6H15.008C15.56 6 16.008 6.448 16.008 7Z" fill="#141B34"/>
</svg>
