<svg width="24" height="24" viewBox="0 0 24 24" fill="none" xmlns="http://www.w3.org/2000/svg">
<path d="M3.764 10.523C4.612 9.733 5.749 9.25 7 9.25C8.519 9.25 9.75 10.481 9.75 12V16C9.75 17.519 8.519 18.75 7 18.75C4.377 18.75 2.25 16.623 2.25 14V11C2.25 5.615 6.615 1.25 12 1.25C17.385 1.25 21.75 5.615 21.75 11V15.876C21.75 16.855 21.75 17.631 21.704 18.258C21.657 18.9 21.559 19.445 21.331 19.949C20.855 21.008 20.008 21.855 18.949 22.331C18.445 22.559 17.9 22.657 17.258 22.704C16.631 22.75 15.855 22.75 14.876 22.75H12C11.586 22.75 11.25 22.414 11.25 22C11.25 21.586 11.586 21.25 12 21.25H14.846C15.861 21.25 16.582 21.25 17.149 21.208C17.707 21.167 18.056 21.089 18.334 20.964C19.058 20.638 19.638 20.058 19.964 19.334C20.089 19.056 20.167 18.707 20.208 18.149C20.223 17.946 20.233 17.723 20.239 17.475C19.39 18.266 18.252 18.75 17 18.75C15.481 18.75 14.25 17.519 14.25 16V12C14.25 10.481 15.481 9.25 17 9.25C18.25 9.25 19.388 9.733 20.236 10.523C19.99 6.189 16.396 2.75 12 2.75C7.604 2.75 4.011 6.189 3.764 10.523ZM3.75 14C3.75 15.795 5.205 17.25 7 17.25C7.69 17.25 8.25 16.69 8.25 16V12C8.25 11.31 7.69 10.75 7 10.75C5.205 10.75 3.75 12.205 3.75 14ZM20.25 14C20.25 12.205 18.795 10.75 17 10.75C16.31 10.75 15.75 11.31 15.75 12V16C15.75 16.69 16.31 17.25 17 17.25C18.795 17.25 20.25 15.795 20.25 14Z" fill="#141B34"/>
</svg>
