<svg width="24" height="24" viewBox="0 0 24 24" fill="none" xmlns="http://www.w3.org/2000/svg">
<path d="M12.0001 1.25C12.8741 1.25 13.6481 1.55 14.4741 2.049C15.2741 2.533 16.1881 3.247 17.3351 4.143L18.5181 5.067C19.8941 6.141 20.7841 6.835 21.2681 7.828C21.7511 8.82 21.7511 9.95 21.7501 11.7V14.033C21.7501 15.878 21.7501 17.34 21.5971 18.483C21.4401 19.659 21.1081 20.611 20.3601 21.362C19.1701 22.557 17.4391 22.715 15.0111 22.75C14.8101 22.753 14.6171 22.675 14.4741 22.534C14.3311 22.393 14.2501 22.201 14.2501 22V18.006C14.2501 17.529 14.2501 17.21 14.2331 16.962C14.2161 16.722 14.1871 16.604 14.1551 16.527C14.0281 16.221 13.7851 15.978 13.4791 15.851C13.4011 15.819 13.2841 15.789 13.0431 15.773C12.7961 15.756 12.4761 15.756 12.0001 15.756C11.5241 15.756 11.2041 15.756 10.9571 15.773C10.7161 15.789 10.5991 15.819 10.5221 15.851C10.2151 15.978 9.97208 16.221 9.84509 16.527C9.81309 16.604 9.78409 16.722 9.76709 16.962C9.75008 17.21 9.75008 17.529 9.75008 18.006V22C9.75008 22.201 9.67009 22.393 9.52709 22.534C9.38409 22.675 9.19009 22.753 8.98909 22.75C6.56109 22.715 4.83109 22.557 3.64009 21.362C2.89209 20.611 2.56109 19.659 2.40309 18.483C2.25009 17.34 2.25009 15.878 2.25009 14.033V11.7C2.24909 9.95 2.24909 8.82 2.73309 7.828C3.21609 6.835 4.10608 6.141 5.48208 5.067L6.66508 4.143C7.81208 3.247 8.72608 2.533 9.52608 2.049C10.3521 1.55 11.1261 1.25 12.0001 1.25ZM7.55009 5.355L6.55009 6.136C4.97609 7.365 4.39408 7.842 4.08108 8.484C3.76809 9.127 3.75009 9.882 3.75009 11.885V13.977C3.75009 15.891 3.75209 17.251 3.89009 18.284C4.02509 19.295 4.27909 19.878 4.70309 20.303C5.32509 20.927 6.25408 21.163 8.25008 21.232V17.98C8.25008 17.536 8.25008 17.165 8.27108 16.86C8.29208 16.543 8.33908 16.244 8.45908 15.953C8.73808 15.279 9.27409 14.744 9.94808 14.465C10.2381 14.345 10.5381 14.298 10.8551 14.276C11.1591 14.256 11.5301 14.256 11.9751 14.256H12.0251C12.4701 14.256 12.8411 14.256 13.1451 14.276C13.4621 14.298 13.7621 14.345 14.0521 14.465C14.7261 14.744 15.2621 15.279 15.5411 15.953C15.6611 16.244 15.7081 16.543 15.7291 16.86C15.7501 17.165 15.7501 17.536 15.7501 17.98V21.232C17.7461 21.163 18.6751 20.927 19.2971 20.303C19.7211 19.878 19.9751 19.295 20.1101 18.284C20.2481 17.251 20.2501 15.891 20.2501 13.977V11.885C20.2501 9.882 20.2321 9.127 19.9191 8.484C19.6061 7.842 19.0241 7.365 17.4501 6.136L16.4501 5.355C15.2561 4.422 14.4121 3.765 13.6971 3.333C13.0001 2.911 12.4991 2.75 12.0001 2.75C11.5011 2.75 11.0001 2.911 10.3031 3.333C9.58809 3.765 8.74409 4.422 7.55009 5.355Z" fill="#141B34"/>
</svg>
