<svg width="24" height="25" viewBox="0 0 24 25" fill="none" xmlns="http://www.w3.org/2000/svg">
<path fill-rule="evenodd" clip-rule="evenodd" d="M7.41207 17.3532C5.52458 16.1002 4.14189 14.132 3.66998 11.8127C2.45998 11.7727 1.5 10.7827 1.5 9.56274C1.5 8.34274 2.51 7.31274 3.75 7.31274H3.94C5.12 3.75274 8.45 1.31274 12.25 1.31274C16.05 1.31274 19.4 3.76276 20.57 7.33276C21.66 7.49276 22.5001 8.42274 22.5001 9.56274C22.5001 10.6027 21.8 11.4728 20.84 11.7328C20.3835 14.0905 18.992 16.0875 17.0861 17.3534C18.3089 18.6152 19.0001 20.3015 19.0001 22.0627C19.0001 22.4727 18.6601 22.8127 18.2501 22.8127C17.8401 22.8127 17.5001 22.4727 17.5001 22.0627C17.5001 20.5627 16.85 19.1228 15.72 18.1228C15.7132 18.1166 15.7065 18.1104 15.7 18.104C14.6374 18.5609 13.4697 18.8127 12.25 18.8127C11.0298 18.8127 9.86222 18.5609 8.7998 18.1043C8.79335 18.1106 8.78676 18.1167 8.78003 18.1228C7.65003 19.1228 7 20.5627 7 22.0627C7 22.4727 6.66 22.8127 6.25 22.8127C5.84 22.8127 5.5 22.4727 5.5 22.0627C5.5 20.3024 6.19048 18.6087 7.41207 17.3532ZM12.25 5.15176C11.1265 7.3237 8.85781 8.81274 6.25 8.81274H4.75C4.70817 8.81274 4.66706 8.8092 4.62697 8.80241C4.58575 8.80922 4.54333 8.81274 4.5 8.81274H3.75C3.34 8.81274 3 9.15274 3 9.56274C3 9.97274 3.34 10.3127 3.75 10.3127H4.31C4.69 10.3127 5.00999 10.5928 5.04999 10.9728C5.49999 14.5928 8.59 17.3127 12.25 17.3127C15.91 17.3127 19 14.5828 19.45 10.9728C19.5 10.5928 19.82 10.3127 20.19 10.3127C20.66 10.3127 21.0001 9.97274 21.0001 9.56274C21.0001 9.15274 20.6601 8.81274 20.2501 8.81274H20.0001C19.9575 8.81274 19.9155 8.80913 19.8745 8.80217C19.834 8.80912 19.7924 8.81274 19.7501 8.81274H18.2501C15.6423 8.81274 13.3735 7.3237 12.25 5.15176ZM18.957 7.31274H18.2501C15.6302 7.31274 13.4459 5.37336 13.0604 2.85786C15.6953 3.15275 17.9546 4.86976 18.957 7.31274ZM6.25 7.31274C8.86984 7.31274 11.0541 5.37335 11.4396 2.85784C8.80342 3.15266 6.5379 4.8697 5.54057 7.31274H6.25ZM12.25 15.8127C11.29 15.8127 10.5 15.0227 10.5 14.0627C10.5 13.6527 10.84 13.3127 11.25 13.3127H13.25C13.66 13.3127 14 13.6527 14 14.0627C14 15.0227 13.21 15.8127 12.25 15.8127ZM9.25 11.0728C8.7 11.0728 8.25 10.6228 8.25 10.0728C8.25 9.52275 8.7 9.07275 9.25 9.07275C9.8 9.07275 10.25 9.51275 10.25 10.0728C10.25 10.6328 9.8 11.0828 9.25 11.0828V11.0728ZM14.25 10.0728C14.25 10.6228 14.7001 11.0728 15.2501 11.0728V11.0828C15.8001 11.0828 16.2501 10.6328 16.2501 10.0728C16.2501 9.51275 15.8001 9.07275 15.2501 9.07275C14.7001 9.07275 14.25 9.52275 14.25 10.0728Z" fill="#141B34"/>
</svg>
