<svg width="24" height="24" viewBox="0 0 24 24" fill="none" xmlns="http://www.w3.org/2000/svg">
<path fill-rule="evenodd" clip-rule="evenodd" d="M19.7559 15.7383V8.5C19.7559 6.2 19.7359 5.25001 19.2459 4.76001C18.7559 4.27001 17.8059 4.25 15.5059 4.25H8.50586C6.21586 4.25 5.25586 4.27001 4.76586 4.76001C4.27586 5.25001 4.25586 6.2 4.25586 8.5V15.7383H19.7559ZM2.75586 16.277V8.5C2.75586 6.02001 2.75586 4.64995 3.70586 3.69995C4.65581 2.75 6.02572 2.75 8.50548 2.75H15.5059C17.9857 2.75 19.3559 2.75 20.3059 3.69995C21.2559 4.64995 21.2559 6.01999 21.2559 8.49999V16.2773L23.0959 19.3882C23.3159 19.8082 23.3059 20.2582 23.0759 20.6382C22.8459 21.0182 22.4359 21.2483 21.9859 21.2483H2.01594C1.56594 21.2483 1.16594 21.0182 0.925936 20.6382C0.695936 20.2682 0.685936 19.8182 0.885936 19.4282L2.75586 16.277ZM21.5559 19.7483H2.44594L3.92594 17.2483H20.0759L21.5559 19.7483Z" fill="#141B34"/>
</svg>
