<svg width="24" height="24" viewBox="0 0 24 24" fill="none" xmlns="http://www.w3.org/2000/svg">
<path d="M20.848 3.152C22.774 5.077 23.325 7.871 22.097 10.288C21.98 10.519 21.752 10.673 21.495 10.696C21.237 10.719 20.986 10.607 20.83 10.4C20.198 9.563 19.164 9.432 18.288 9.84C17.422 10.245 16.864 11.107 17.133 12.172C17.202 12.447 17.11 12.738 16.896 12.924C16.681 13.109 16.379 13.158 16.117 13.048C15.681 12.867 15.271 13.031 15.014 13.401C14.751 13.782 14.748 14.238 15.038 14.564C15.2 14.746 15.264 14.996 15.208 15.233C15.153 15.47 14.986 15.666 14.761 15.758C13.534 16.257 12.269 16.63 11.14 16.726C10.816 16.753 10.49 16.759 10.17 16.734L7.722 19.182C8.28 20.064 8.206 21.281 7.416 22.071C6.512 22.975 5.046 22.975 4.142 22.071C3.746 21.675 3.49 21.132 3.431 20.568C2.867 20.509 2.324 20.253 1.928 19.857C1.024 18.953 1.024 17.487 1.928 16.583C2.718 15.793 3.935 15.719 4.817 16.277L7.266 13.828C7.242 13.519 7.247 13.204 7.272 12.892C7.362 11.774 7.725 10.523 8.215 9.307C9.19 6.886 10.748 4.41 12.007 3.152C14.65 0.507998 18.424 0.726998 20.848 3.152ZM13.067 4.212C11.991 5.288 10.53 7.574 9.606 9.868C9.146 11.01 8.84 12.104 8.767 13.012C8.692 13.943 8.871 14.518 9.176 14.824C9.485 15.132 10.068 15.311 11.013 15.231C11.723 15.171 12.545 14.97 13.413 14.665C13.191 13.918 13.378 13.13 13.781 12.547C14.174 11.981 14.815 11.545 15.566 11.479C15.628 10.088 16.536 9.003 17.654 8.481C18.709 7.989 20.04 7.957 21.119 8.648C21.504 7.102 21.029 5.454 19.788 4.212C17.915 2.34 15.092 2.187 13.067 4.212ZM8.549 16.234C8.395 16.134 8.25 16.018 8.116 15.884C7.981 15.75 7.865 15.604 7.766 15.449L5.371 17.844C5.215 18 4.999 18.079 4.779 18.061C4.559 18.042 4.358 17.928 4.23 17.749C3.947 17.351 3.334 17.299 2.989 17.644C2.67 17.962 2.67 18.478 2.989 18.797C3.273 19.081 3.718 19.144 3.98 19.019C4.267 18.882 4.609 18.941 4.833 19.166C5.058 19.39 5.117 19.733 4.98 20.019C4.855 20.281 4.918 20.726 5.202 21.01C5.521 21.329 6.037 21.329 6.355 21.01C6.701 20.665 6.648 20.052 6.25 19.769C6.071 19.641 5.957 19.44 5.938 19.22C5.92 19 5.999 18.784 6.155 18.628L8.549 16.234Z" fill="#141B34"/>
</svg>
