<svg width="24" height="24" viewBox="0 0 24 24" fill="none" xmlns="http://www.w3.org/2000/svg">
<path d="M13.8951 8.78303L14.2191 11.372C14.8051 11.393 15.4441 11.568 16.1051 11.97C17.2831 12.686 17.9041 14.152 17.6851 15.77C17.4641 17.402 16.4071 19.187 14.2661 20.758L14.1831 20.819C13.4871 21.33 12.9161 21.75 12.0001 21.75C11.0841 21.75 10.5131 21.33 9.81706 20.819L9.73406 20.758C7.59306 19.187 6.53606 17.402 6.31506 15.77C6.09606 14.152 6.71706 12.686 7.89506 11.97C8.58706 11.549 9.25506 11.377 9.86406 11.37L10.1871 8.78303C10.2441 8.33103 10.3981 7.85903 10.8281 7.55403C11.2161 7.27803 11.6851 7.25003 12.0411 7.25003C12.3971 7.25003 12.8661 7.27803 13.2541 7.55403C13.6841 7.85903 13.8381 8.33103 13.8951 8.78303ZM11.0371 13.249C10.5461 12.884 9.71206 12.621 8.67406 13.252C8.10006 13.601 7.64606 14.424 7.80106 15.569C7.95506 16.701 8.72106 18.154 10.6211 19.548C11.4261 20.138 11.6171 20.25 12.0001 20.25C12.3841 20.25 12.5741 20.138 13.3791 19.548C15.2801 18.154 16.0461 16.701 16.1991 15.569C16.3541 14.424 15.9011 13.601 15.3261 13.252C14.2881 12.621 13.4541 12.884 12.9631 13.249L12.9461 13.262C12.8171 13.358 12.6931 13.45 12.5901 13.517C12.5351 13.552 12.4631 13.596 12.3821 13.632C12.3071 13.666 12.1711 13.718 12.0001 13.718C11.8291 13.718 11.6931 13.666 11.6181 13.632C11.5371 13.596 11.4661 13.552 11.4101 13.517C11.3071 13.45 11.1831 13.357 11.0541 13.262L11.0371 13.249ZM22.7431 2.95403C22.8621 4.89003 21.5631 8.65803 16.1741 10.376C15.7801 10.502 15.3581 10.284 15.2321 9.89003C15.1061 9.49503 15.3241 9.07303 15.7191 8.94703C20.4831 7.42803 21.3211 4.26603 21.2461 3.04603C21.2201 2.63303 21.5351 2.27703 21.9481 2.25103C22.3611 2.22603 22.7171 2.54003 22.7431 2.95403ZM2.75406 3.04603C2.67906 4.26603 3.51706 7.42803 8.28106 8.94703C8.67606 9.07303 8.89406 9.49503 8.76806 9.89003C8.64206 10.284 8.22006 10.502 7.82606 10.376C2.43706 8.65803 1.13806 4.89003 1.25706 2.95403C1.28306 2.54003 1.63906 2.22603 2.05206 2.25103C2.46606 2.27703 2.78006 2.63303 2.75406 3.04603ZM11.6761 8.96903L11.3361 11.69C11.5551 11.792 11.7551 11.913 11.9331 12.045L12.0001 12.096L12.0681 12.045C12.2661 11.898 12.4921 11.764 12.7421 11.655L12.4061 8.96903L12.3661 8.77403C12.3611 8.77303 12.3551 8.77203 12.3481 8.77103C12.2871 8.75903 12.1911 8.75003 12.0411 8.75003C11.8911 8.75003 11.7961 8.75903 11.7341 8.77103C11.7271 8.77203 11.7211 8.77303 11.7161 8.77403C11.7051 8.80703 11.6891 8.86803 11.6761 8.96903Z" fill="#141B34"/>
</svg>
