<svg width="24" height="24" viewBox="0 0 24 24" fill="none" xmlns="http://www.w3.org/2000/svg">
<path fill-rule="evenodd" clip-rule="evenodd" d="M10.5 22.75H13.5C15.9797 22.75 17.35 22.75 18.3 21.8C19.25 20.85 19.25 19.48 19.25 17V7C19.25 4.52 19.25 3.14995 18.3 2.19995C17.35 1.25 15.9801 1.25 13.5004 1.25H10.5C8.02026 1.25 6.64996 1.25 5.70001 2.19995C4.75001 3.14995 4.75 4.52 4.75 7V17C4.75 19.48 4.75001 20.85 5.70001 21.8C6.64996 22.75 8.02026 22.75 10.5 22.75ZM6.76001 3.26001C7.25001 2.77001 8.21 2.75 10.5 2.75H13.5C15.8 2.75 16.75 2.77001 17.24 3.26001C17.73 3.75001 17.75 4.7 17.75 7V17C17.75 19.3 17.73 20.25 17.24 20.74C16.75 21.23 15.79 21.25 13.5 21.25H10.5C8.2 21.25 7.25001 21.23 6.76001 20.74C6.27001 20.25 6.25 19.3 6.25 17V7C6.25 4.7 6.27001 3.75001 6.76001 3.26001ZM11.0098 19C11.0098 19.55 11.4598 20 12.0098 20C12.5598 20 13.0098 19.55 13.0098 19C13.0098 18.45 12.5598 18 12.0098 18C11.4498 18 11.0098 18.45 11.0098 19Z" fill="#141B34"/>
</svg>
