<svg width="24" height="24" viewBox="0 0 24 24" fill="none" xmlns="http://www.w3.org/2000/svg">
<path d="M14.2499 6C14.2499 3.929 15.9289 2.25 17.9999 2.25C20.0709 2.25 21.7499 3.929 21.7499 6C21.7499 8.071 20.0709 9.75 17.9999 9.75C16.9769 9.75 16.0489 9.34 15.3729 8.676L11.9099 11.85L15.3789 15.318C16.0549 14.657 16.9799 14.25 17.9999 14.25C20.0709 14.25 21.7499 15.929 21.7499 18C21.7499 20.071 20.0709 21.75 17.9999 21.75C15.9289 21.75 14.2499 20.071 14.2499 18C14.2499 17.498 14.3489 17.02 14.5269 16.582C14.5069 16.566 14.4879 16.549 14.4699 16.53L10.8039 12.864L3.50688 19.553C3.20088 19.833 2.72688 19.812 2.44688 19.507C2.16688 19.201 2.18788 18.727 2.49288 18.447L14.4929 7.447C14.5039 7.437 14.5159 7.427 14.5269 7.418C14.3489 6.98 14.2499 6.502 14.2499 6ZM17.9999 3.75C16.7569 3.75 15.7499 4.757 15.7499 6C15.7499 7.243 16.7569 8.25 17.9999 8.25C19.2429 8.25 20.2499 7.243 20.2499 6C20.2499 4.757 19.2429 3.75 17.9999 3.75ZM17.9999 15.75C16.7569 15.75 15.7499 16.757 15.7499 18C15.7499 19.243 16.7569 20.25 17.9999 20.25C19.2429 20.25 20.2499 19.243 20.2499 18C20.2499 16.757 19.2429 15.75 17.9999 15.75ZM9.00488 9.445C9.31088 9.724 9.33388 10.198 9.05488 10.505C8.77588 10.811 8.30188 10.834 7.99588 10.555L2.49588 5.555C2.18888 5.276 2.16588 4.802 2.44488 4.496C2.72388 4.189 3.19788 4.167 3.50388 4.445L9.00488 9.445Z" fill="#141B34"/>
</svg>
