<svg width="24" height="24" viewBox="0 0 24 24" fill="none" xmlns="http://www.w3.org/2000/svg">
<path d="M5.25 17.721C5.056 17.709 4.875 17.693 4.706 17.67C4.078 17.586 3.511 17.4 3.055 16.944C2.6 16.489 2.414 15.922 2.33 15.295C2.252 14.715 2.25 13.989 2.25 13.121C1.64 12.618 1.25 11.855 1.25 11C1.25 9.741 2.096 8.68 3.251 8.353C3.253 7.724 3.263 7.192 3.303 6.742C3.358 6.136 3.475 5.606 3.752 5.125C4.082 4.555 4.555 4.082 5.125 3.752C5.606 3.475 6.136 3.358 6.742 3.303C7.331 3.25 8.06 3.25 8.964 3.25H15.036C15.94 3.25 16.669 3.25 17.258 3.303C17.864 3.358 18.394 3.475 18.875 3.752C19.445 4.082 19.919 4.555 20.248 5.125C20.525 5.606 20.642 6.136 20.697 6.742C20.737 7.192 20.747 7.724 20.749 8.353C21.904 8.68 22.75 9.741 22.75 11C22.75 11.855 22.36 12.618 21.75 13.121C21.75 13.989 21.748 14.715 21.67 15.295C21.586 15.922 21.4 16.489 20.944 16.944C20.489 17.4 19.922 17.586 19.295 17.67C19.125 17.693 18.944 17.709 18.75 17.721V20C18.75 20.414 18.414 20.75 18 20.75C17.586 20.75 17.25 20.414 17.25 20V17.75H6.75V20C6.75 20.414 6.414 20.75 6 20.75C5.586 20.75 5.25 20.414 5.25 20V17.721ZM4.751 8.354C5.905 8.68 6.75 9.742 6.75 11V13C6.75 13.106 6.753 13.184 6.758 13.242C6.816 13.247 6.894 13.25 7 13.25H17C17.106 13.25 17.184 13.247 17.242 13.242C17.247 13.184 17.25 13.106 17.25 13V11C17.25 9.742 18.095 8.68 19.249 8.354C19.247 7.737 19.238 7.265 19.203 6.878C19.157 6.375 19.073 6.09 18.949 5.875C18.751 5.533 18.467 5.249 18.125 5.051C17.91 4.927 17.625 4.843 17.122 4.797C16.61 4.751 15.948 4.75 15 4.75H9C8.052 4.75 7.39 4.751 6.878 4.797C6.375 4.843 6.09 4.927 5.875 5.051C5.533 5.249 5.249 5.533 5.051 5.875C4.927 6.09 4.843 6.375 4.797 6.878C4.762 7.265 4.753 7.737 4.751 8.354ZM20 9.75C19.31 9.75 18.75 10.31 18.75 11V13C18.75 13.223 18.739 13.453 18.693 13.666C18.644 13.887 18.547 14.134 18.341 14.341C18.134 14.547 17.887 14.644 17.666 14.693C17.454 14.739 17.223 14.75 17 14.75H7C6.777 14.75 6.546 14.739 6.334 14.693C6.113 14.644 5.866 14.547 5.659 14.341C5.453 14.134 5.356 13.887 5.307 13.666C5.261 13.453 5.25 13.223 5.25 13V11C5.25 10.31 4.69 9.75 4 9.75C3.31 9.75 2.75 10.31 2.75 11C2.75 11.462 3 11.866 3.376 12.083C3.607 12.217 3.75 12.465 3.75 12.732V13C3.75 13.964 3.752 14.612 3.817 15.095C3.879 15.556 3.986 15.754 4.116 15.884C4.246 16.014 4.444 16.121 4.905 16.184C5.388 16.248 6.036 16.25 7 16.25H17C17.964 16.25 18.612 16.248 19.095 16.184C19.556 16.121 19.754 16.014 19.884 15.884C20.014 15.754 20.121 15.556 20.184 15.095C20.248 14.612 20.25 13.964 20.25 13V12.732C20.25 12.465 20.393 12.217 20.625 12.083C21 11.866 21.25 11.462 21.25 11C21.25 10.31 20.69 9.75 20 9.75Z" fill="#141B34"/>
</svg>
