<svg width="24" height="24" viewBox="0 0 24 24" fill="none" xmlns="http://www.w3.org/2000/svg">
<path d="M3.18691 7.83899C3.60291 7.77099 4.09591 7.74999 4.65891 7.74999H15.3409C15.9049 7.74999 16.3969 7.77099 16.8129 7.83899C17.2269 7.90699 17.6259 8.02899 17.9579 8.27699C18.4569 8.64899 18.6519 9.17999 18.7189 9.74999H19.6399C20.1149 9.74999 20.5389 9.76699 20.9039 9.81999C21.2659 9.87299 21.6249 9.96899 21.9329 10.165C22.6429 10.617 22.7719 11.373 22.7469 12.109C22.7069 13.296 22.4179 14.644 21.5479 15.801C20.6659 16.973 19.2529 17.864 17.1309 18.239L17.1139 18.241C16.5029 19.32 15.6629 20.323 14.5109 21.209C13.9619 21.631 13.4299 21.902 12.8279 22.06C12.2409 22.213 11.6209 22.25 10.9189 22.25H9.08091C8.37991 22.25 7.75891 22.213 7.17191 22.06C6.56991 21.902 6.03791 21.631 5.48891 21.209C1.81991 18.388 1.32491 14.382 1.25191 10.514C1.23591 9.67899 1.32291 8.81299 2.04191 8.27699C2.37391 8.02899 2.77291 7.90699 3.18691 7.83899ZM2.93891 9.47899C2.87291 9.52799 2.73591 9.66299 2.75091 10.486C2.82391 14.298 3.32391 17.652 6.40291 20.02C6.81491 20.336 7.16791 20.508 7.55191 20.609C7.95091 20.713 8.41791 20.75 9.08091 20.75H10.9189C11.5819 20.75 12.0489 20.713 12.4479 20.609C12.8319 20.508 13.1849 20.336 13.5969 20.02C16.6759 17.652 17.1759 14.298 17.2489 10.486C17.2639 9.66299 17.1269 9.52799 17.0609 9.47899C17.0009 9.43399 16.8679 9.36799 16.5709 9.31899C16.2769 9.27099 15.8809 9.24999 15.3409 9.24999H4.65891C4.11891 9.24999 3.72291 9.27099 3.42891 9.31899C3.13291 9.36799 2.99991 9.43399 2.93891 9.47899ZM19.6399 11.25H18.7289C18.6649 13.037 18.4749 14.836 17.8899 16.517C19.0969 16.14 19.8599 15.549 20.3489 14.899C20.9739 14.068 21.2139 13.055 21.2479 12.059C21.2669 11.505 21.1559 11.446 21.1309 11.432L21.1279 11.43C21.0719 11.395 20.9479 11.342 20.6879 11.304C20.4299 11.267 20.0919 11.25 19.6399 11.25ZM11.7039 3.13799C11.5889 3.20899 11.3429 3.45299 11.1219 3.89799C10.9099 4.32399 10.7509 4.87599 10.7509 5.49999C10.7509 5.91399 10.4159 6.24999 10.0009 6.24999C9.58692 6.24999 9.25091 5.91399 9.25091 5.49999C9.25091 4.62399 9.47291 3.84499 9.77891 3.23099C10.0739 2.63599 10.4819 2.12999 10.9139 1.86199C11.2659 1.64399 11.7289 1.75299 11.9469 2.10499C12.1649 2.45699 12.0559 2.91999 11.7039 3.13799ZM8.08991 3.48999C8.36791 3.78999 8.35391 4.25599 8.06091 4.53899C8.05791 4.54199 8.04991 4.55099 8.03791 4.56599C8.01291 4.59699 7.97291 4.65199 7.92991 4.73099C7.84591 4.88699 7.74991 5.13999 7.74991 5.49999C7.74991 5.91399 7.41391 6.24999 6.99991 6.24999C6.58591 6.24999 6.24991 5.91399 6.24991 5.49999C6.24991 4.85999 6.42391 4.36299 6.60991 4.01899C6.70191 3.84799 6.79691 3.71599 6.87291 3.62199C6.91091 3.57499 6.94391 3.53699 6.97091 3.50799C6.98491 3.49399 6.99691 3.48199 7.00691 3.47199L7.01991 3.45899L7.02491 3.45399L7.02791 3.45199L7.02891 3.45099L7.02991 3.44999C7.02991 3.44999 7.02991 3.44999 7.53991 3.99999L7.02991 3.44999C7.33391 3.16799 7.80891 3.18599 8.08991 3.48999ZM14.6389 3.60499C14.8399 3.93099 14.7629 4.34999 14.4719 4.58399L14.4659 4.59499C14.4369 4.64899 14.3999 4.73499 14.3639 4.84999C14.2899 5.08599 14.2499 5.34199 14.2499 5.49999C14.2499 5.91399 13.9139 6.24999 13.4999 6.24999C13.0859 6.24999 12.7499 5.91399 12.7499 5.49999C12.7499 5.15799 12.8239 4.74899 12.9319 4.40199C12.9879 4.22599 13.0589 4.04099 13.1489 3.87599C13.2279 3.73099 13.3709 3.50799 13.6059 3.36199C13.9589 3.14399 14.4209 3.25299 14.6389 3.60499ZM14.4869 4.56099C14.4859 4.56199 14.4849 4.56299 14.4839 4.56499L14.4879 4.55899C14.4879 4.55899 14.4879 4.55999 14.4869 4.56099Z" fill="#141B34"/>
</svg>
