<svg width="24" height="24" viewBox="0 0 24 24" fill="none" xmlns="http://www.w3.org/2000/svg">
<path d="M20.837 3.16102C22.679 5.00002 23.02 7.72202 22.573 10.253C22.123 12.795 20.854 15.328 19.214 16.965C17.157 19.019 14.021 18.9 11.501 17.65L11.417 17.609C11.192 17.496 11.02 17.411 10.848 17.354C10.668 17.295 10.556 17.291 10.472 17.311C9.88698 17.448 9.17798 18.042 8.40998 18.988C7.70098 19.862 7.05098 20.894 6.49798 21.772L6.42598 21.885C6.18798 22.264 5.85598 22.53 5.45498 22.66C5.06698 22.786 4.67198 22.766 4.31898 22.678C3.62798 22.506 2.96298 22.044 2.45198 21.524C1.93998 21.003 1.49298 20.332 1.32298 19.646C1.23598 19.296 1.21298 18.905 1.33098 18.521C1.45298 18.123 1.71198 17.788 2.08898 17.551L2.20598 17.478C3.08398 16.926 4.11698 16.277 4.99098 15.57C5.93898 14.803 6.53298 14.096 6.66998 13.512C6.68998 13.43 6.68698 13.318 6.62698 13.139C6.56998 12.967 6.48498 12.796 6.37198 12.571L6.33098 12.488C5.07898 9.97002 4.95898 6.83602 7.01598 4.78102C8.65598 3.14402 11.191 1.87602 13.735 1.42702C16.269 0.979017 18.993 1.32002 20.837 3.16102ZM8.07598 5.84302C7.50298 6.41602 7.14898 7.13802 7.00198 7.94102L16.04 16.98C16.849 16.834 17.578 16.479 18.154 15.904C19.552 14.507 20.694 12.265 21.096 9.99202C21.499 7.71002 21.133 5.57602 19.777 4.22202C18.419 2.86602 16.281 2.50002 13.995 2.90402C11.719 3.30602 9.47498 4.44602 8.07598 5.84302ZM7.06898 10.13C7.19298 10.691 7.39598 11.261 7.67398 11.82L7.71398 11.9C7.81998 12.112 7.95698 12.385 8.05098 12.667C8.16098 12.999 8.23598 13.409 8.12998 13.856C7.86698 14.975 6.89598 15.958 5.93398 16.736C4.98798 17.502 3.88598 18.194 3.02298 18.736L2.88698 18.821C2.80098 18.876 2.77698 18.923 2.76498 18.962C2.74798 19.017 2.73798 19.119 2.77898 19.285C2.86398 19.629 3.12898 20.073 3.52198 20.473C3.91598 20.874 4.34898 21.14 4.68198 21.222C4.83998 21.262 4.93898 21.251 4.99198 21.234C5.03298 21.22 5.09098 21.191 5.15698 21.085L5.24098 20.952C5.78398 20.09 6.47798 18.989 7.24598 18.043C8.02498 17.082 9.00998 16.114 10.129 15.851C10.576 15.745 10.987 15.82 11.319 15.93C11.601 16.023 11.875 16.16 12.087 16.266L12.167 16.306C12.723 16.582 13.289 16.783 13.847 16.908L7.06898 10.13Z" fill="#141B34"/>
</svg>
