<svg width="20" height="21" viewBox="0 0 20 21" fill="none" xmlns="http://www.w3.org/2000/svg">
<path d="M1.6665 10.9167C1.6665 9.99619 2.4127 9.25 3.33317 9.25C4.71388 9.25 5.83317 10.3693 5.83317 11.75V15.0833C5.83317 16.464 4.71388 17.5833 3.33317 17.5833C2.4127 17.5833 1.6665 16.8371 1.6665 15.9167V10.9167Z" stroke="#525E6F" stroke-width="1.5" stroke-linecap="round" stroke-linejoin="round"/>
<path d="M12.8991 7.00505L12.6772 7.72179C12.4954 8.3091 12.4044 8.60275 12.4744 8.83467C12.5309 9.02229 12.6551 9.18402 12.8243 9.29043C13.0335 9.42196 13.3499 9.42196 13.9828 9.42196H14.3194C16.4611 9.42196 17.532 9.42196 18.0378 10.0559C18.0956 10.1284 18.147 10.2054 18.1915 10.2862C18.5806 10.9933 18.1382 11.9458 17.2535 13.8508C16.4416 15.5989 16.0356 16.473 15.2819 16.9875C15.2089 17.0373 15.1339 17.0843 15.0571 17.1283C14.2635 17.5832 13.2803 17.5832 11.3138 17.5832H10.8873C8.50493 17.5832 7.31373 17.5832 6.57361 16.8661C5.8335 16.149 5.8335 14.9948 5.8335 12.6864V11.8751C5.8335 10.662 5.8335 10.0555 6.04878 9.50033C6.26406 8.94518 6.67629 8.48871 7.50074 7.57577L10.9103 3.8003C10.9958 3.70562 11.0385 3.65827 11.0762 3.62546C11.4281 3.31924 11.9712 3.35371 12.2788 3.70179C12.3118 3.73908 12.3478 3.79143 12.4198 3.89612C12.5325 4.05988 12.5889 4.14176 12.638 4.22288C13.0775 4.94911 13.2105 5.81181 13.0092 6.63079C12.9867 6.72227 12.9575 6.81658 12.8991 7.00505Z" stroke="#525E6F" stroke-width="1.5" stroke-linecap="round" stroke-linejoin="round"/>
</svg>
