<svg width="20" height="21" viewBox="0 0 20 21" fill="none" xmlns="http://www.w3.org/2000/svg">
<path d="M9.99984 18.8332C14.6022 18.8332 18.3332 15.1022 18.3332 10.4998C18.3332 5.89746 14.6022 2.1665 9.99984 2.1665C5.39746 2.1665 1.6665 5.89746 1.6665 10.4998C1.6665 15.1022 5.39746 18.8332 9.99984 18.8332Z" stroke="#525E6F" stroke-width="1.5"/>
<path d="M10.0068 9.25682C9.31648 9.25682 8.75684 9.81646 8.75684 10.5068C8.75684 11.1972 9.31648 11.7568 10.0068 11.7568C10.6972 11.7568 11.2568 11.1972 11.2568 10.5068C11.2568 9.81646 10.6972 9.25682 10.0068 9.25682ZM10.0068 9.25682V6.33252M12.5126 13.0165L10.8887 11.3927" stroke="#525E6F" stroke-width="1.5" stroke-linecap="round" stroke-linejoin="round"/>
</svg>
