<svg width="24" height="25" viewBox="0 0 24 25" fill="none" xmlns="http://www.w3.org/2000/svg">
<path fill-rule="evenodd" clip-rule="evenodd" d="M4.08149 18.5512L6.10549 15.5924C6.51549 14.9224 6.74549 14.1323 6.74549 13.3123C6.74549 12.5928 6.97935 11.9255 7.37484 11.3825C7.18199 11.1885 6.98879 10.9386 6.83554 10.6221C6.62554 10.2121 6.31554 10.0221 5.84554 10.0221C5.23554 10.0221 4.74555 10.5121 4.74555 11.1221V12.3622C4.74555 13.4522 4.30554 14.5321 3.52554 15.3021C3.37554 15.4521 3.18555 15.5221 2.99555 15.5221C2.80555 15.5221 2.61555 15.4521 2.46555 15.3021C2.17555 15.0121 2.17555 14.5321 2.46555 14.2421C2.96555 13.7421 3.24555 13.0622 3.24555 12.3622V11.1221C3.24555 9.69207 4.41554 8.52209 5.84554 8.52209C6.88554 8.52209 7.70555 9.03215 8.17555 9.95215C8.27313 10.1517 8.40219 10.2963 8.51648 10.3962C8.9715 10.1575 9.48842 10.0223 10.0355 10.0223H12.4955C12.9755 10.0223 13.3155 9.57228 13.4155 9.13228C14.0155 6.28228 16.0255 4.97232 16.5455 4.67232L17.9655 3.25227C18.1755 3.04227 18.5055 2.97236 18.7855 3.09236C19.0655 3.21236 19.2455 3.4823 19.2455 3.7823V4.94234L22.4855 7.72236C22.7755 7.97236 22.8355 8.39235 22.6255 8.71235L21.6255 10.2124C21.4355 10.4924 21.0855 10.6123 20.7655 10.5123L18.3855 9.72236L18.2555 9.98237V12.5823C18.2555 13.8323 18.7055 15.0523 19.5155 16.0023L20.9736 17.7051C21.142 17.5553 21.306 17.4009 21.4655 17.242C21.7555 16.952 22.2355 16.952 22.5255 17.242C22.8155 17.532 22.8155 18.0121 22.5255 18.3021C19.8355 20.9821 15.9955 22.5221 11.9955 22.5221C7.99555 22.5221 4.15555 20.9821 1.46555 18.3021C1.17555 18.0121 1.17555 17.532 1.46555 17.242C1.75555 16.952 2.23554 16.952 2.52554 17.242C3.00529 17.7198 3.52626 18.1571 4.08149 18.5512ZM19.79 18.6351L18.3655 16.9824C17.3155 15.7524 16.7355 14.1923 16.7355 12.5823V9.80232C16.7355 9.68232 16.7655 9.57236 16.8155 9.47236L17.3155 8.47236C17.4855 8.14236 17.8655 7.98236 18.2255 8.09236L20.6855 8.91231L20.9955 8.44234L17.9955 5.87227C17.8955 5.79227 17.8255 5.68233 17.7855 5.56233L17.5155 5.83235C17.4555 5.89235 17.3955 5.93236 17.3255 5.97236C17.2455 6.01236 15.3955 6.99235 14.8755 9.46235C14.6255 10.6724 13.6155 11.5523 12.4955 11.5523H10.0355C9.04549 11.5523 8.24549 12.3524 8.24549 13.3424C8.24549 14.4424 7.93549 15.5123 7.35549 16.4423L5.37168 19.3561C5.57828 19.4687 5.7883 19.576 6.00147 19.6778L7.84639 17.0421C8.94639 15.4621 10.7564 14.5221 12.6864 14.5221C14.3764 14.5221 15.9764 15.2421 17.0964 16.5021L19.2855 18.9671C19.4565 18.8602 19.6247 18.7496 19.79 18.6351ZM17.9326 19.7049L15.9764 17.5021C15.1364 16.5621 13.9364 16.0221 12.6864 16.0221C11.2464 16.0221 9.89639 16.7221 9.07639 17.9021L7.42547 20.2606C8.86919 20.7582 10.4171 21.0221 11.9955 21.0221C14.0851 21.0221 16.121 20.5597 17.9326 19.7049Z" fill="#141B34"/>
</svg>
