<svg width="24" height="24" viewBox="0 0 24 24" fill="none" xmlns="http://www.w3.org/2000/svg">
<path d="M10.491 3.25C10.995 3.252 11.44 3.26 11.809 3.312C12.289 3.38 12.751 3.533 13.122 3.921C13.488 4.304 13.629 4.773 13.691 5.258C13.728 5.545 13.742 5.877 13.747 6.25H14.783C15.275 6.251 15.699 6.257 16.06 6.293C16.52 6.338 16.935 6.436 17.334 6.662C17.73 6.886 18.033 7.193 18.322 7.567C18.597 7.923 18.89 8.383 19.245 8.939L19.263 8.968C19.736 9.709 20.213 10.222 20.886 10.684L20.973 10.743C21.646 11.204 22.182 11.571 22.478 12.176C22.631 12.488 22.694 12.806 22.723 13.144C22.75 13.461 22.75 13.842 22.75 14.287V14.362C22.75 14.945 22.75 15.449 22.701 15.854C22.649 16.285 22.531 16.713 22.213 17.072C22.19 17.099 22.165 17.125 22.141 17.15C21.798 17.5 21.378 17.636 20.954 17.696C20.612 17.744 20.2 17.749 19.739 17.75C19.746 17.832 19.75 17.916 19.75 18C19.75 19.519 18.519 20.75 17 20.75C15.481 20.75 14.25 19.519 14.25 18C14.25 17.916 14.254 17.832 14.261 17.75H9.739C9.746 17.832 9.75 17.916 9.75 18C9.75 19.519 8.519 20.75 7 20.75C5.481 20.75 4.25 19.519 4.25 18C4.25 17.915 4.254 17.831 4.261 17.748C3.858 17.744 3.498 17.731 3.191 17.688C2.711 17.62 2.249 17.467 1.878 17.079C1.512 16.696 1.371 16.227 1.309 15.742C1.25 15.285 1.25 14.714 1.25 14.048V6.673C1.251 6.125 1.258 5.65 1.309 5.258C1.371 4.773 1.512 4.304 1.878 3.921C2.249 3.533 2.711 3.38 3.191 3.312C3.634 3.25 4.186 3.25 4.819 3.25H10.491ZM10.56 4.751H4.44C3.979 4.753 3.653 4.762 3.4 4.798C3.098 4.84 3.011 4.906 2.962 4.958C2.909 5.014 2.839 5.119 2.796 5.45C2.761 5.722 2.753 6.068 2.751 6.551V14.449C2.753 14.932 2.761 15.278 2.796 15.55C2.839 15.882 2.909 15.986 2.962 16.042C3.011 16.094 3.098 16.16 3.4 16.202C3.726 16.248 4.171 16.25 4.87 16.25C5.383 15.639 6.146 15.25 7 15.25C7.854 15.25 8.617 15.639 9.121 16.25H12.25V6.998C12.25 6.272 12.248 5.799 12.204 5.45C12.161 5.119 12.091 5.014 12.038 4.958C11.989 4.906 11.902 4.84 11.6 4.798C11.347 4.762 11.021 4.753 10.56 4.751ZM13.75 10.854V16.25H14.879C15.383 15.639 16.146 15.25 17 15.25C17.854 15.25 18.617 15.639 19.121 16.25H19.503C20.103 16.25 20.475 16.248 20.746 16.21C20.991 16.176 21.045 16.125 21.069 16.1L21.089 16.079C21.12 16.043 21.177 15.963 21.212 15.674C21.249 15.37 21.25 14.958 21.25 14.317C21.25 13.834 21.249 13.517 21.228 13.271C21.208 13.038 21.174 12.922 21.132 12.836C21.116 12.806 21.1 12.776 21.079 12.746C21.053 12.749 21.027 12.75 21 12.75H17.669C17.047 12.75 16.52 12.75 16.087 12.703C15.627 12.652 15.204 12.542 14.812 12.277C14.421 12.012 14.162 11.66 13.944 11.252C13.879 11.13 13.815 10.997 13.75 10.854ZM14.906 7.751L14.108 7.75L14.691 9.207C14.941 9.831 15.106 10.243 15.268 10.546C15.42 10.832 15.537 10.956 15.653 11.035C15.77 11.114 15.929 11.176 16.251 11.212C16.592 11.249 17.036 11.25 17.708 11.25H19.2C18.745 10.824 18.362 10.344 17.999 9.774C17.621 9.182 17.364 8.78 17.134 8.484C16.914 8.198 16.754 8.057 16.595 7.967C16.438 7.879 16.247 7.819 15.913 7.786C15.649 7.76 15.331 7.753 14.906 7.751ZM17 16.75C16.31 16.75 15.75 17.31 15.75 18C15.75 18.69 16.31 19.25 17 19.25C17.69 19.25 18.25 18.69 18.25 18C18.25 17.31 17.69 16.75 17 16.75ZM7 16.75C6.31 16.75 5.75 17.31 5.75 18C5.75 18.69 6.31 19.25 7 19.25C7.69 19.25 8.25 18.69 8.25 18C8.25 17.83 8.216 17.667 8.154 17.519C8.075 17.436 8.014 17.335 7.979 17.223C7.75 16.935 7.397 16.75 7 16.75Z" fill="#141B34"/>
</svg>
