<svg width="24" height="24" viewBox="0 0 24 24" fill="none" xmlns="http://www.w3.org/2000/svg">
<path d="M19.3519 19.75C19.1349 19.75 18.9349 19.717 18.7499 19.664C18.7289 20.48 18.5059 21.126 17.6019 21.612C16.1889 22.369 14.0949 22.748 12.0019 22.748L11.9999 22.747C9.90695 22.747 7.81395 22.368 6.40095 21.612C5.49395 21.125 5.27095 20.477 5.25095 19.659C4.99695 19.732 4.71995 19.771 4.41695 19.738C2.91795 19.578 2.62695 18.573 2.43995 17.468L1.35995 11.046C1.19695 10.079 1.20195 9.965 1.45895 9.019L1.99695 7.036L1.99895 7.028C2.37895 5.63 2.58795 4.86 3.13195 4.221C3.67895 3.58 4.40995 3.249 5.73695 2.649L8.28095 1.496C8.77595 1.273 8.88195 1.25 9.42295 1.25H14.5799C15.1199 1.25 15.2259 1.273 15.7189 1.495L18.2639 2.649C19.5899 3.249 20.3209 3.58 20.8679 4.22C21.4139 4.861 21.6229 5.632 22.0029 7.035L22.5419 9.019C22.7989 9.965 22.8029 10.079 22.6399 11.046L21.5599 17.467C21.3739 18.573 21.0829 19.579 19.5799 19.738C19.5029 19.746 19.4259 19.75 19.3529 19.75H19.3519ZM18.4089 12.987L18.6729 18.006C19.0059 18.181 19.1989 18.271 19.4199 18.247C19.8299 18.204 19.9159 18.195 20.0799 17.219L21.1589 10.797C21.2379 10.33 21.2159 9.868 21.0929 9.412L20.5549 7.429C20.2209 6.197 20.0519 5.578 19.7259 5.194C19.4099 4.824 18.8899 4.58 17.6439 4.016L15.5569 3.07C15.2209 3.737 14.4769 5.06 13.6909 5.476C13.1709 5.752 12.6109 5.75 12.1129 5.749H12.1039H11.7879C11.3169 5.749 10.7959 5.732 10.3109 5.476C9.52495 5.059 8.78095 3.736 8.44495 3.069L6.35495 4.016C5.10795 4.58 4.58995 4.824 4.27295 5.195C3.94795 5.576 3.78095 6.191 3.44995 7.411L3.44495 7.428L2.90695 9.412C2.78295 9.868 2.76095 10.33 2.83995 10.797L3.91995 17.219C4.08495 18.194 4.16895 18.203 4.57695 18.247C4.78995 18.271 5.04195 18.151 5.32895 18.002L5.59295 12.97C5.66895 11.52 5.70695 10.793 5.61595 10.121C5.51095 9.343 5.24895 8.58 4.97095 7.773L4.90895 7.591C4.86795 7.473 4.82795 7.356 4.78895 7.239C4.65795 6.846 4.86995 6.421 5.26295 6.29C5.65595 6.159 6.08095 6.371 6.21195 6.764C6.26895 6.934 6.32795 7.105 6.38695 7.276L6.38995 7.285L6.39095 7.289C6.67995 8.129 6.97795 8.996 7.10295 9.92C7.21295 10.73 7.17295 11.505 7.09195 13.048V13.065L6.75095 19.547C6.75195 20.079 6.81695 20.133 7.11095 20.29C9.48695 21.563 14.5149 21.563 16.8919 20.29C17.1849 20.133 17.2499 20.079 17.2509 19.547L16.9099 13.051L16.9089 13.04C16.8289 11.502 16.7879 10.728 16.8989 9.919C17.0239 8.997 17.3219 8.129 17.6099 7.29L17.6119 7.285L17.6149 7.276C17.6739 7.105 17.7329 6.934 17.7899 6.764C17.9209 6.371 18.3459 6.159 18.7389 6.29C19.1319 6.421 19.3439 6.846 19.2129 7.239C19.1689 7.371 19.1229 7.504 19.0769 7.637L19.0309 7.773C18.7529 8.581 18.4909 9.343 18.3859 10.121C18.2949 10.793 18.3329 11.522 18.4089 12.973V12.987ZM9.97495 2.751C10.3359 3.397 10.7719 4.023 11.0129 4.15C11.2039 4.251 11.5549 4.25 11.8929 4.249H12.1089C12.4479 4.25 12.7979 4.251 12.9899 4.15C13.2299 4.023 13.6659 3.397 14.0269 2.751H9.97495Z" fill="#141B34"/>
</svg>
